<?xml version="1.0" encoding="UTF-8"?>
<!-- Generator: CustomSymbols v2.7.2.48 by @serious_bret https://bretlester.com/app_content/CustomSymbols/ -->
<!-- Guides: Left/Right 0.004/-0.004 Cap/Base 0.0/0.0 -->
<!-- Settings: RefScale 1.0 Min/Max Stroke Scales 0.5/2.21 -->
<!DOCTYPE svg
PUBLIC "-//W3C//DTD SVG 1.1//EN"
       "http://www.w3.org/Graphics/SVG/1.1/DTD/svg11.dtd">
<svg version="1.1" xmlns="http://www.w3.org/2000/svg" xmlns:xlink="http://www.w3.org/1999/xlink" width="3300" height="2200">
<![CDATA[<?xml version="1.0" encoding="utf-8"?>
<!-- Uploaded to: SVG Repo, www.svgrepo.com, Generator: SVG Repo Mixer Tools -->
<svg width="800px" height="800px" viewBox="0 0 48 48" xmlns="http://www.w3.org/2000/svg">
  <g id="Layer_2" data-name="Layer 2">
    <g id="invisible_box" data-name="invisible box">
      <rect width="48" height="48" fill="none"/>
    </g>
    <g id="Icons">
      <path d="M35,2H13A11.1,11.1,0,0,0,2,13V35A11.1,11.1,0,0,0,13,46H35A11.1,11.1,0,0,0,46,35V13A11.1,11.1,0,0,0,35,2Zm2.2,29.2a3,3,0,0,1-.8.7l-2.6.6-.3.2a5.6,5.6,0,0,0-.1.7v.2a.6.6,0,0,1-.1.4c-.1.2-.2.3-.4.3H29.7a5,5,0,0,0-2.1,1A5.6,5.6,0,0,1,24,36.6h-.3a5.6,5.6,0,0,1-3.6-1.4,5.8,5.8,0,0,0-2.1-1H14.9a.5.5,0,0,1-.5-.3,1.4,1.4,0,0,1-.2-.6h0a1.6,1.6,0,0,0-.3-.6.2.2,0,0,0-.2-.2,9.4,9.4,0,0,1-2.6-.7,1.8,1.8,0,0,1-.8-.6h0l.3-.3a5.8,5.8,0,0,0,2.5-.9,6.4,6.4,0,0,0,1.7-1.6A6.2,6.2,0,0,0,16.2,26h0a1.4,1.4,0,0,0,.2-1.2c-.3-.7-1.1-.9-1.7-1.1h-.1l-.3-.2a1.9,1.9,0,0,1-.9-.5.7.7,0,0,1-.3-.6.7.7,0,0,1,.4-.5c.3-.2.8-.3,1-.1s1.5.5,2,.2.2-.2.2-.3-.1-.5-.1-.7h0c-.1-1.8-.2-4.1.3-5.4a8.1,8.1,0,0,1,1.7-2.3,5.2,5.2,0,0,1,1.9-1.2,6.9,6.9,0,0,1,3-.7H24a7.2,7.2,0,0,1,3,.7,6.2,6.2,0,0,1,1.9,1.2,6.3,6.3,0,0,1,1.6,2.3c.6,1.3.4,3.6.3,5.4h0v.4h0a.5.5,0,0,0,.2.4h.6l1.2-.4h.9a.8.8,0,0,1,.7.7c0,.1,0,.2-.2.5l-1,.5h-.4a2.5,2.5,0,0,0-1.7,1,1.6,1.6,0,0,0,.2,1.3h0c.3.7,2.1,4.1,5.7,4.7a.5.5,0,0,1,.2.4Z"/>
    </g>
  </g>
</svg>]]>
 <g id="Notes">
  <rect height="2200" id="artboard" style="fill:white;opacity:1" width="3300" x="0" y="0"/>
  <line id="" style="fill:none;stroke:black;opacity:1;stroke-width:0.5;" x1="263" x2="3036" y1="292" y2="292"/>
  <text id="reftext1" style="stroke:none;fill:black;font-family:-apple-system,&quot;SF Pro Display&quot;,&quot;SF Pro Text&quot;,Helvetica,sans-serif;font-weight:bold;" transform="matrix(1 0 0 1 263 322)">Weight/Scale Variations</text>
  <text id="reftext2" style="stroke:none;fill:black;font-family:-apple-system,&quot;SF Pro Display&quot;,&quot;SF Pro Text&quot;,Helvetica,sans-serif;text-anchor:middle;" transform="matrix(1 0 0 1 559.711 322)">Ultralight</text>
  <text style="stroke:none;fill:black;font-family:-apple-system,&quot;SF Pro Display&quot;,&quot;SF Pro Text&quot;,Helvetica,sans-serif;text-anchor:middle;" transform="matrix(1 0 0 1 856.422 322)">Thin</text>
  <text style="stroke:none;fill:black;font-family:-apple-system,&quot;SF Pro Display&quot;,&quot;SF Pro Text&quot;,Helvetica,sans-serif;text-anchor:middle;" transform="matrix(1 0 0 1 1153.13 322)">Light</text>
  <text style="stroke:none;fill:black;font-family:-apple-system,&quot;SF Pro Display&quot;,&quot;SF Pro Text&quot;,Helvetica,sans-serif;text-anchor:middle;" transform="matrix(1 0 0 1 1449.84 322)">Regular</text>
  <text style="stroke:none;fill:black;font-family:-apple-system,&quot;SF Pro Display&quot;,&quot;SF Pro Text&quot;,Helvetica,sans-serif;text-anchor:middle;" transform="matrix(1 0 0 1 1746.56 322)">Medium</text>
  <text style="stroke:none;fill:black;font-family:-apple-system,&quot;SF Pro Display&quot;,&quot;SF Pro Text&quot;,Helvetica,sans-serif;text-anchor:middle;" transform="matrix(1 0 0 1 2043.27 322)">Semibold</text>
  <text style="stroke:none;fill:black;font-family:-apple-system,&quot;SF Pro Display&quot;,&quot;SF Pro Text&quot;,Helvetica,sans-serif;text-anchor:middle;" transform="matrix(1 0 0 1 2339.98 322)">Bold</text>
  <text style="stroke:none;fill:black;font-family:-apple-system,&quot;SF Pro Display&quot;,&quot;SF Pro Text&quot;,Helvetica,sans-serif;text-anchor:middle;" transform="matrix(1 0 0 1 2636.69 322)">Heavy</text>
  <text style="stroke:none;fill:black;font-family:-apple-system,&quot;SF Pro Display&quot;,&quot;SF Pro Text&quot;,Helvetica,sans-serif;text-anchor:middle;" transform="matrix(1 0 0 1 2933.4 322)">Black</text>
  <line id="" style="fill:none;stroke:black;opacity:1;stroke-width:0.5;" x1="263" x2="3036" y1="1903" y2="1903"/>
  <g id="" transform="matrix(1 0 0 1 263 1933)">
   <path d="M9.24805 0.830078C13.5547 0.830078 17.1387-2.74414 17.1387-7.05078C17.1387-11.3574 13.5449-14.9316 9.23828-14.9316C4.94141-14.9316 1.36719-11.3574 1.36719-7.05078C1.36719-2.74414 4.95117 0.830078 9.24805 0.830078ZM9.24805-0.654297C5.70312-0.654297 2.87109-3.49609 2.87109-7.05078C2.87109-10.6055 5.69336-13.4473 9.23828-13.4473C12.793-13.4473 15.6348-10.6055 15.6445-7.05078C15.6543-3.49609 12.8027-0.654297 9.24805-0.654297ZM6.39648-6.31836L8.50586-6.31836L8.50586-4.19922C8.50586-3.75977 8.79883-3.45703 9.22852-3.45703C9.67773-3.45703 9.9707-3.75977 9.9707-4.19922L9.9707-6.31836L12.0996-6.31836C12.5391-6.31836 12.8418-6.61133 12.8418-7.04102C12.8418-7.48047 12.5391-7.7832 12.0996-7.7832L9.9707-7.7832L9.9707-9.89258C9.9707-10.3418 9.67773-10.6445 9.22852-10.6445C8.79883-10.6445 8.50586-10.3418 8.50586-9.89258L8.50586-7.7832L6.39648-7.7832C5.94727-7.7832 5.64453-7.48047 5.64453-7.04102C5.64453-6.61133 5.94727-6.31836 6.39648-6.31836Z"/>
  </g>
  <g id="" transform="matrix(1 0 0 1 281.506 1933)">
   <path d="M11.709 2.91016C17.1582 2.91016 21.6699-1.61133 21.6699-7.05078C21.6699-12.5 17.1484-17.0117 11.6992-17.0117C6.25977-17.0117 1.74805-12.5 1.74805-7.05078C1.74805-1.61133 6.26953 2.91016 11.709 2.91016ZM11.709 1.25C7.09961 1.25 3.41797-2.44141 3.41797-7.05078C3.41797-11.6602 7.08984-15.3516 11.6992-15.3516C16.3086-15.3516 20-11.6602 20.0098-7.05078C20.0195-2.44141 16.3184 1.25 11.709 1.25ZM7.98828-6.23047L10.8789-6.23047L10.8789-3.32031C10.8789-2.83203 11.2109-2.5 11.6895-2.5C12.1777-2.5 12.5195-2.83203 12.5195-3.32031L12.5195-6.23047L15.4297-6.23047C15.918-6.23047 16.25-6.5625 16.25-7.04102C16.25-7.5293 15.918-7.87109 15.4297-7.87109L12.5195-7.87109L12.5195-10.7617C12.5195-11.2695 12.1777-11.6016 11.6895-11.6016C11.2109-11.6016 10.8789-11.2598 10.8789-10.7617L10.8789-7.87109L7.98828-7.87109C7.48047-7.87109 7.14844-7.5293 7.14844-7.04102C7.14844-6.5625 7.49023-6.23047 7.98828-6.23047Z"/>
  </g>
  <g id="" transform="matrix(1 0 0 1 304.924 1933)">
   <path d="M14.9707 5.66406C21.9336 5.66406 27.6953-0.0976562 27.6953-7.05078C27.6953-14.0137 21.9238-19.7754 14.9609-19.7754C8.00781-19.7754 2.25586-14.0137 2.25586-7.05078C2.25586-0.0976562 8.01758 5.66406 14.9707 5.66406ZM14.9707 3.84766C8.93555 3.84766 4.08203-1.01562 4.08203-7.05078C4.08203-13.0957 8.92578-17.9492 14.9609-17.9492C21.0059-17.9492 25.8594-13.0957 25.8691-7.05078C25.8789-1.01562 21.0156 3.84766 14.9707 3.84766ZM10.0586-6.14258L14.0625-6.14258L14.0625-2.12891C14.0625-1.5918 14.4336-1.2207 14.9512-1.2207C15.4883-1.2207 15.8594-1.5918 15.8594-2.12891L15.8594-6.14258L19.8828-6.14258C20.4102-6.14258 20.791-6.51367 20.791-7.03125C20.791-7.56836 20.4199-7.94922 19.8828-7.94922L15.8594-7.94922L15.8594-11.9531C15.8594-12.5098 15.4883-12.8809 14.9512-12.8809C14.4336-12.8809 14.0625-12.5 14.0625-11.9531L14.0625-7.94922L10.0586-7.94922C9.50195-7.94922 9.13086-7.56836 9.13086-7.03125C9.13086-6.51367 9.51172-6.14258 10.0586-6.14258Z"/>
  </g>
  <text style="stroke:none;fill:black;font-family:-apple-system,&quot;SF Pro Display&quot;,&quot;SF Pro Text&quot;,Helvetica,sans-serif;font-weight:bold;" transform="matrix(1 0 0 1 263 1953)">Design Variations</text>
  <text style="stroke:none;fill:black;font-family:-apple-system,&quot;SF Pro Display&quot;,&quot;SF Pro Text&quot;,Helvetica,sans-serif;" transform="matrix(1 0 0 1 263 1971)">Symbols are supported in up to nine weights and three scales.</text>
  <text style="stroke:none;fill:black;font-family:-apple-system,&quot;SF Pro Display&quot;,&quot;SF Pro Text&quot;,Helvetica,sans-serif;" transform="matrix(1 0 0 1 263 1989)">For optimal layout with text and other symbols, vertically align</text>
  <text style="stroke:none;fill:black;font-family:-apple-system,&quot;SF Pro Display&quot;,&quot;SF Pro Text&quot;,Helvetica,sans-serif;" transform="matrix(1 0 0 1 263 2007)">symbols with the adjacent text.</text>
  <line id="" style="fill:none;stroke:#00AEEF;stroke-width:0.5;opacity:1.0;" x1="776" x2="776" y1="1919" y2="1933"/>
  <g id="" transform="matrix(1 0 0 1 776 1933)">
   <path d="M3.31055 0.126953C3.82812 0.126953 4.08203-0.0683594 4.26758-0.605469L5.52734-4.0625L11.2891-4.0625L12.5488-0.605469C12.7344-0.0683594 12.9883 0.126953 13.4961 0.126953C14.0137 0.126953 14.3457-0.185547 14.3457-0.673828C14.3457-0.839844 14.3164-0.986328 14.2383-1.20117L9.6582-13.3887C9.43359-13.9941 9.0332-14.2871 8.4082-14.2871C7.80273-14.2871 7.39258-13.9941 7.17773-13.3984L2.59766-1.19141C2.51953-0.976562 2.49023-0.830078 2.49023-0.664062C2.49023-0.175781 2.80273 0.126953 3.31055 0.126953ZM6.00586-5.53711L8.37891-12.1094L8.42773-12.1094L10.8008-5.53711Z"/>
  </g>
  <line id="" style="fill:none;stroke:#00AEEF;stroke-width:0.5;opacity:1.0;" x1="792.836" x2="792.836" y1="1919" y2="1933"/>
  <text style="stroke:none;fill:black;font-family:-apple-system,&quot;SF Pro Display&quot;,&quot;SF Pro Text&quot;,Helvetica,sans-serif;font-weight:bold;" transform="matrix(1 0 0 1 776 1953)">Margins</text>
  <text style="stroke:none;fill:black;font-family:-apple-system,&quot;SF Pro Display&quot;,&quot;SF Pro Text&quot;,Helvetica,sans-serif;" transform="matrix(1 0 0 1 776 1971)">Leading and trailing margins on the left and right side of each symbol</text>
  <text style="stroke:none;fill:black;font-family:-apple-system,&quot;SF Pro Display&quot;,&quot;SF Pro Text&quot;,Helvetica,sans-serif;" transform="matrix(1 0 0 1 776 1989)">can be adjusted by modifying the x-location of the margin guidelines.</text>
  <text style="stroke:none;fill:black;font-family:-apple-system,&quot;SF Pro Display&quot;,&quot;SF Pro Text&quot;,Helvetica,sans-serif;" transform="matrix(1 0 0 1 776 2007)">Modifications are automatically applied proportionally to all</text>
  <text style="stroke:none;fill:black;font-family:-apple-system,&quot;SF Pro Display&quot;,&quot;SF Pro Text&quot;,Helvetica,sans-serif;" transform="matrix(1 0 0 1 776 2025)">scales and weights.</text>
  <g id="" transform="matrix(1 0 0 1 1289 1933)">
   <path d="M2.8418 1.86523L4.54102 3.57422C5.40039 4.44336 6.38672 4.38477 7.31445 3.35938L17.4902-7.85156C17.7539-7.76367 18.0273-7.7832 18.3398-7.8418L19.4043-8.03711L20.0684-7.36328L20.0293-6.80664C19.9902-6.30859 20.1172-5.92773 20.6055-5.44922L21.3672-4.70703C21.8457-4.22852 22.4609-4.19922 22.9297-4.66797L25.8398-7.58789C26.3086-8.05664 26.2891-8.65234 25.8105-9.13086L25.0391-9.89258C24.5605-10.3711 24.1895-10.5273 23.7109-10.4883L23.1348-10.4395L22.4902-11.0742L22.7344-12.1973C22.8613-12.7637 22.7051-13.2031 22.1191-13.7891L19.9219-15.9766C16.582-19.2969 12.1484-19.2188 9.25781-16.3281C8.83789-15.918 8.80859-15.3418 9.04297-14.9512C9.27734-14.5898 9.73633-14.3555 10.3809-14.5215C11.8457-14.8633 13.3691-14.9219 14.7949-13.9844L14.209-12.5293C14.0137-12.0508 13.9844-11.6504 14.1113-11.2891L3.04688-0.898438C2.06055 0.0195312 1.98242 0.996094 2.8418 1.86523ZM10.752-15.957C13.1836-17.7344 16.4746-17.4316 18.7012-15.2051L21.1328-12.793C21.3672-12.5586 21.4062-12.373 21.3379-12.0312L21.0156-10.5469L22.5195-9.0625L23.5059-9.12109C23.7598-9.13086 23.8379-9.11133 24.0332-8.91602L24.6094-8.33984L22.168-5.89844L21.5918-6.47461C21.3965-6.66992 21.3672-6.74805 21.377-7.01172L21.4453-7.98828L19.9512-9.47266L18.4277-9.21875C18.1055-9.15039 17.959-9.17969 17.7148-9.41406L15.7129-11.416C15.459-11.6504 15.4297-11.8164 15.5859-12.1875L16.4648-14.2773C14.9023-15.7324 12.8711-16.3574 10.8398-15.7617C10.6836-15.7227 10.625-15.8496 10.752-15.957ZM5.27344 2.30469L4.10156 1.14258C3.63281 0.683594 3.74023 0.341797 4.14062-0.0195312L14.9512-10.1953L16.416-8.71094L6.42578 2.27539C6.07422 2.67578 5.74219 2.77344 5.27344 2.30469Z"/>
  </g>
  <text style="stroke:none;fill:black;font-family:-apple-system,&quot;SF Pro Display&quot;,&quot;SF Pro Text&quot;,Helvetica,sans-serif;font-weight:bold;" transform="matrix(1 0 0 1 1289 1953)">Exporting</text>
  <text style="stroke:none;fill:black;font-family:-apple-system,&quot;SF Pro Display&quot;,&quot;SF Pro Text&quot;,Helvetica,sans-serif;" transform="matrix(1 0 0 1 1289 1971)">Symbols should be outlined when exporting to ensure the</text>
  <text style="stroke:none;fill:black;font-family:-apple-system,&quot;SF Pro Display&quot;,&quot;SF Pro Text&quot;,Helvetica,sans-serif;" transform="matrix(1 0 0 1 1289 1989)">design is preserved when submitting to Xcode.</text>
  <text id="template-version" style="stroke:none;fill:black;font-family:-apple-system,&quot;SF Pro Display&quot;,&quot;SF Pro Text&quot;,Helvetica,sans-serif;text-anchor:end;" transform="matrix(1 0 0 1 3036 1933)">Template v.2.0</text>
  <text style="stroke:none;fill:black;font-family:-apple-system,&quot;SF Pro Display&quot;,&quot;SF Pro Text&quot;,Helvetica,sans-serif;text-anchor:end;" transform="matrix(1 0 0 1 3036 1951)">Requires Xcode 12 or greater</text>
  <text style="stroke:none;fill:black;font-family:-apple-system,&quot;SF Pro Display&quot;,&quot;SF Pro Text&quot;,Helvetica,sans-serif;" transform="matrix(1 0 0 1 263 726)">Small</text>
  <text style="stroke:none;fill:black;font-family:-apple-system,&quot;SF Pro Display&quot;,&quot;SF Pro Text&quot;,Helvetica,sans-serif;" transform="matrix(1 0 0 1 263 1156)">Medium</text>
  <text style="stroke:none;fill:black;font-family:-apple-system,&quot;SF Pro Display&quot;,&quot;SF Pro Text&quot;,Helvetica,sans-serif;" transform="matrix(1 0 0 1 263 1586)">Large</text>
 </g>
 <g id="Guides">
  <g id="H-reference" style="fill:#27AAE1;stroke:none;" transform="matrix(1 0 0 1 339 696)">
   <path d="M0.976562 0L3.66211 0L12.9883-24.4629L45.752-24.4629L55.127 0L57.7637 0L30.6152-70.459L28.125-70.459ZM29.3457-67.1387L29.4434-67.1387L44.873-26.709L13.8672-26.709Z"/>
  </g>
  <line id="Baseline-S" style="fill:none;stroke:#27AAE1;opacity:1;stroke-width:0.5;" x1="263" x2="3036" y1="696" y2="696"/>
  <line id="Capline-S" style="fill:none;stroke:#27AAE1;opacity:1;stroke-width:0.5;" x1="263" x2="3036" y1="625.541" y2="625.541"/>
  <g id="H-reference" style="fill:#27AAE1;stroke:none;" transform="matrix(1 0 0 1 339 1126)">
   <path d="M0.976562 0L3.66211 0L12.9883-24.4629L45.752-24.4629L55.127 0L57.7637 0L30.6152-70.459L28.125-70.459ZM29.3457-67.1387L29.4434-67.1387L44.873-26.709L13.8672-26.709Z"/>
  </g>
  <line id="Baseline-M" style="fill:none;stroke:#27AAE1;opacity:1;stroke-width:0.5;" x1="263" x2="3036" y1="1126" y2="1126"/>
  <line id="Capline-M" style="fill:none;stroke:#27AAE1;opacity:1;stroke-width:0.5;" x1="263" x2="3036" y1="1055.54" y2="1055.54"/>
  <g id="H-reference" style="fill:#27AAE1;stroke:none;" transform="matrix(1 0 0 1 339 1556)">
   <path d="M0.976562 0L3.66211 0L12.9883-24.4629L45.752-24.4629L55.127 0L57.7637 0L30.6152-70.459L28.125-70.459ZM29.3457-67.1387L29.4434-67.1387L44.873-26.709L13.8672-26.709Z"/>
  </g>
  <line id="Baseline-L" style="fill:none;stroke:#27AAE1;opacity:1;stroke-width:0.5;" x1="263" x2="3036" y1="1556" y2="1556"/>
  <line id="Capline-L" style="fill:none;stroke:#27AAE1;opacity:1;stroke-width:0.5;" x1="263" x2="3036" y1="1485.54" y2="1485.54"/>
  <line id="left-margin" x1="1416.181859375" x2="1416.181859375" y1="1030.79" y2="1150.12" style="fill:none;stroke:#00AEEF;stroke-width:0.5;opacity:1.0;"/>
  <line id="right-margin" x1="1486.6418203125" x2="1486.6418203125" y1="1030.79" y2="1150.12" style="fill:none;stroke:#00AEEF;stroke-width:0.5;opacity:1.0;"/>
 </g>
 <g id="Symbols">
  <g id="Black-L" transform="matrix(1.0,0.0,0.0,1.0,2889.2333251953123,1475.3233447265625)">  <path stroke="none" stroke-linejoin="miter" fill-opacity="1" stroke-miterlimit="4" stroke-dasharray="none" data-name="Layer 2" stroke-opacity="1" fill-rule="nonzero" stroke-width="1px" stroke-linecap="butt" fill="#000000" d="M66.276,3.787L24.617,3.787C13.156,3.89,3.89,13.156,3.787,24.617L3.787,66.276C3.89,77.737,13.156,87.003,24.617,87.106L66.276,87.106C77.737,87.003,87.003,77.737,87.106,66.276L87.106,24.617C87.003,13.156,77.737,3.89,66.276,3.787ZM70.442,59.081C70.02,59.609,69.507,60.058,68.927,60.406L64.004,61.542L63.436,61.921C63.345,62.359,63.282,62.801,63.247,63.247L63.247,63.625C63.275,63.892,63.208,64.161,63.057,64.383C62.868,64.762,62.679,64.951,62.3,64.951L56.24,64.951C54.784,65.261,53.422,65.909,52.264,66.844C50.351,68.44,47.938,69.312,45.447,69.306L44.879,69.306C42.364,69.259,39.948,68.319,38.062,66.655C36.878,65.762,35.525,65.118,34.085,64.762L28.215,64.762C27.81,64.795,27.429,64.566,27.268,64.193C27.057,63.849,26.927,63.46,26.889,63.057L26.889,63.057C26.782,62.643,26.589,62.255,26.321,61.921C26.321,61.712,26.152,61.542,25.942,61.542C24.246,61.339,22.588,60.893,21.019,60.217C20.417,59.989,19.892,59.595,19.504,59.081L19.504,59.081L20.072,58.513C21.761,58.318,23.381,57.735,24.806,56.808C26.056,56.004,27.147,54.977,28.025,53.779C29.242,52.484,30.148,50.93,30.677,49.234L30.677,49.234C31.142,48.574,31.282,47.737,31.055,46.962C30.487,45.636,28.972,45.257,27.836,44.879L27.647,44.879L27.079,44.5C26.434,44.347,25.845,44.019,25.374,43.553C25.004,43.296,24.79,42.868,24.806,42.417C24.891,41.998,25.173,41.645,25.564,41.47C26.132,41.091,27.079,40.902,27.457,41.281C27.836,41.659,30.298,42.228,31.245,41.659C32.191,41.091,31.623,41.281,31.623,41.091C31.623,40.902,31.434,40.145,31.434,39.766L31.434,39.766C31.245,36.357,31.055,32.002,32.002,29.54C32.808,27.909,33.898,26.434,35.221,25.185C36.241,24.174,37.468,23.399,38.819,22.913C40.589,22.048,42.531,21.595,44.5,21.587L45.447,21.587C47.414,21.614,49.352,22.066,51.128,22.913C52.455,23.445,53.675,24.215,54.725,25.185C56.049,26.391,57.085,27.88,57.755,29.54C58.891,32.002,58.513,36.357,58.323,39.766L58.323,39.766L58.323,40.523L58.323,40.523C58.323,40.821,58.464,41.102,58.702,41.281L59.838,41.281L62.11,40.523L63.815,40.523C64.51,40.606,65.058,41.154,65.14,41.849C65.14,42.038,65.14,42.228,64.762,42.796L62.868,43.742L62.11,43.742C60.823,43.906,59.66,44.59,58.891,45.636C58.659,46.473,58.797,47.369,59.27,48.098L59.27,48.098C59.838,49.423,63.247,55.862,70.064,56.998C70.302,57.177,70.442,57.457,70.442,57.755ZM70.442,59.081"/>
</g>
  <g id="Heavy-L" transform="matrix(1.0,0.0,0.0,1.0,2592.5233251953123,1475.3233447265625)">  <path fill-rule="nonzero" stroke-opacity="1" data-name="Layer 2" stroke="none" stroke-width="1px" stroke-linejoin="miter" stroke-linecap="butt" stroke-dasharray="none" fill="#000000" fill-opacity="1" stroke-miterlimit="4" d="M66.276,3.787L24.617,3.787C13.156,3.89,3.89,13.156,3.787,24.617L3.787,66.276C3.89,77.737,13.156,87.003,24.617,87.106L66.276,87.106C77.737,87.003,87.003,77.737,87.106,66.276L87.106,24.617C87.003,13.156,77.737,3.89,66.276,3.787ZM70.442,59.081C70.02,59.609,69.507,60.058,68.927,60.406L64.004,61.542L63.436,61.921C63.345,62.359,63.282,62.801,63.247,63.247L63.247,63.625C63.275,63.892,63.208,64.161,63.057,64.383C62.868,64.762,62.679,64.951,62.3,64.951L56.24,64.951C54.784,65.261,53.422,65.909,52.264,66.844C50.351,68.44,47.938,69.312,45.447,69.306L44.879,69.306C42.364,69.259,39.948,68.319,38.062,66.655C36.878,65.762,35.525,65.118,34.085,64.762L28.215,64.762C27.81,64.795,27.429,64.566,27.268,64.193C27.057,63.849,26.927,63.46,26.889,63.057L26.889,63.057C26.782,62.643,26.589,62.255,26.321,61.921C26.321,61.712,26.152,61.542,25.942,61.542C24.246,61.339,22.588,60.893,21.019,60.217C20.417,59.989,19.892,59.595,19.504,59.081L19.504,59.081L20.072,58.513C21.761,58.318,23.381,57.735,24.806,56.808C26.056,56.004,27.147,54.977,28.025,53.779C29.242,52.484,30.148,50.93,30.677,49.234L30.677,49.234C31.142,48.574,31.282,47.737,31.055,46.962C30.487,45.636,28.972,45.257,27.836,44.879L27.647,44.879L27.079,44.5C26.434,44.347,25.845,44.019,25.374,43.553C25.004,43.296,24.79,42.868,24.806,42.417C24.891,41.998,25.173,41.645,25.564,41.47C26.132,41.091,27.079,40.902,27.457,41.281C27.836,41.659,30.298,42.228,31.245,41.659C32.191,41.091,31.623,41.281,31.623,41.091C31.623,40.902,31.434,40.145,31.434,39.766L31.434,39.766C31.245,36.357,31.055,32.002,32.002,29.54C32.808,27.909,33.898,26.434,35.221,25.185C36.241,24.174,37.468,23.399,38.819,22.913C40.589,22.048,42.531,21.595,44.5,21.587L45.447,21.587C47.414,21.614,49.352,22.066,51.128,22.913C52.455,23.445,53.675,24.215,54.725,25.185C56.049,26.391,57.085,27.88,57.755,29.54C58.891,32.002,58.513,36.357,58.323,39.766L58.323,39.766L58.323,40.523L58.323,40.523C58.323,40.821,58.464,41.102,58.702,41.281L59.838,41.281L62.11,40.523L63.815,40.523C64.51,40.606,65.058,41.154,65.14,41.849C65.14,42.038,65.14,42.228,64.762,42.796L62.868,43.742L62.11,43.742C60.823,43.906,59.66,44.59,58.891,45.636C58.659,46.473,58.797,47.369,59.27,48.098L59.27,48.098C59.838,49.423,63.247,55.862,70.064,56.998C70.302,57.177,70.442,57.457,70.442,57.755ZM70.442,59.081"/>
</g>
  <g id="Bold-L" transform="matrix(1.0,0.0,0.0,1.0,2295.8133251953122,1475.3233447265625)">  <path stroke-dasharray="none" stroke-opacity="1" data-name="Layer 2" stroke="none" stroke-linejoin="miter" fill-rule="nonzero" fill="#000000" stroke-linecap="butt" stroke-miterlimit="4" fill-opacity="1" stroke-width="1px" d="M66.276,3.787L24.617,3.787C13.156,3.89,3.89,13.156,3.787,24.617L3.787,66.276C3.89,77.737,13.156,87.003,24.617,87.106L66.276,87.106C77.737,87.003,87.003,77.737,87.106,66.276L87.106,24.617C87.003,13.156,77.737,3.89,66.276,3.787ZM70.442,59.081C70.02,59.609,69.507,60.058,68.927,60.406L64.004,61.542L63.436,61.921C63.345,62.359,63.282,62.801,63.247,63.247L63.247,63.625C63.275,63.892,63.208,64.161,63.057,64.383C62.868,64.762,62.679,64.951,62.3,64.951L56.24,64.951C54.784,65.261,53.422,65.909,52.264,66.844C50.351,68.44,47.938,69.312,45.447,69.306L44.879,69.306C42.364,69.259,39.948,68.319,38.062,66.655C36.878,65.762,35.525,65.118,34.085,64.762L28.215,64.762C27.81,64.795,27.429,64.566,27.268,64.193C27.057,63.849,26.927,63.46,26.889,63.057L26.889,63.057C26.782,62.643,26.589,62.255,26.321,61.921C26.321,61.712,26.152,61.542,25.942,61.542C24.246,61.339,22.588,60.893,21.019,60.217C20.417,59.989,19.892,59.595,19.504,59.081L19.504,59.081L20.072,58.513C21.761,58.318,23.381,57.735,24.806,56.808C26.056,56.004,27.147,54.977,28.025,53.779C29.242,52.484,30.148,50.93,30.677,49.234L30.677,49.234C31.142,48.574,31.282,47.737,31.055,46.962C30.487,45.636,28.972,45.257,27.836,44.879L27.647,44.879L27.079,44.5C26.434,44.347,25.845,44.019,25.374,43.553C25.004,43.296,24.79,42.868,24.806,42.417C24.891,41.998,25.173,41.645,25.564,41.47C26.132,41.091,27.079,40.902,27.457,41.281C27.836,41.659,30.298,42.228,31.245,41.659C32.191,41.091,31.623,41.281,31.623,41.091C31.623,40.902,31.434,40.145,31.434,39.766L31.434,39.766C31.245,36.357,31.055,32.002,32.002,29.54C32.808,27.909,33.898,26.434,35.221,25.185C36.241,24.174,37.468,23.399,38.819,22.913C40.589,22.048,42.531,21.595,44.5,21.587L45.447,21.587C47.414,21.614,49.352,22.066,51.128,22.913C52.455,23.445,53.675,24.215,54.725,25.185C56.049,26.391,57.085,27.88,57.755,29.54C58.891,32.002,58.513,36.357,58.323,39.766L58.323,39.766L58.323,40.523L58.323,40.523C58.323,40.821,58.464,41.102,58.702,41.281L59.838,41.281L62.11,40.523L63.815,40.523C64.51,40.606,65.058,41.154,65.14,41.849C65.14,42.038,65.14,42.228,64.762,42.796L62.868,43.742L62.11,43.742C60.823,43.906,59.66,44.59,58.891,45.636C58.659,46.473,58.797,47.369,59.27,48.098L59.27,48.098C59.838,49.423,63.247,55.862,70.064,56.998C70.302,57.177,70.442,57.457,70.442,57.755ZM70.442,59.081"/>
</g>
  <g id="Semibold-L" transform="matrix(1.0,0.0,0.0,1.0,1999.1033251953124,1475.3233447265625)">  <path fill-opacity="1" stroke-width="1px" stroke-opacity="1" fill="#000000" stroke-miterlimit="4" stroke-dasharray="none" fill-rule="nonzero" data-name="Layer 2" stroke-linecap="butt" stroke-linejoin="miter" stroke="none" d="M66.276,3.787L24.617,3.787C13.156,3.89,3.89,13.156,3.787,24.617L3.787,66.276C3.89,77.737,13.156,87.003,24.617,87.106L66.276,87.106C77.737,87.003,87.003,77.737,87.106,66.276L87.106,24.617C87.003,13.156,77.737,3.89,66.276,3.787ZM70.442,59.081C70.02,59.609,69.507,60.058,68.927,60.406L64.004,61.542L63.436,61.921C63.345,62.359,63.282,62.801,63.247,63.247L63.247,63.625C63.275,63.892,63.208,64.161,63.057,64.383C62.868,64.762,62.679,64.951,62.3,64.951L56.24,64.951C54.784,65.261,53.422,65.909,52.264,66.844C50.351,68.44,47.938,69.312,45.447,69.306L44.879,69.306C42.364,69.259,39.948,68.319,38.062,66.655C36.878,65.762,35.525,65.118,34.085,64.762L28.215,64.762C27.81,64.795,27.429,64.566,27.268,64.193C27.057,63.849,26.927,63.46,26.889,63.057L26.889,63.057C26.782,62.643,26.589,62.255,26.321,61.921C26.321,61.712,26.152,61.542,25.942,61.542C24.246,61.339,22.588,60.893,21.019,60.217C20.417,59.989,19.892,59.595,19.504,59.081L19.504,59.081L20.072,58.513C21.761,58.318,23.381,57.735,24.806,56.808C26.056,56.004,27.147,54.977,28.025,53.779C29.242,52.484,30.148,50.93,30.677,49.234L30.677,49.234C31.142,48.574,31.282,47.737,31.055,46.962C30.487,45.636,28.972,45.257,27.836,44.879L27.647,44.879L27.079,44.5C26.434,44.347,25.845,44.019,25.374,43.553C25.004,43.296,24.79,42.868,24.806,42.417C24.891,41.998,25.173,41.645,25.564,41.47C26.132,41.091,27.079,40.902,27.457,41.281C27.836,41.659,30.298,42.228,31.245,41.659C32.191,41.091,31.623,41.281,31.623,41.091C31.623,40.902,31.434,40.145,31.434,39.766L31.434,39.766C31.245,36.357,31.055,32.002,32.002,29.54C32.808,27.909,33.898,26.434,35.221,25.185C36.241,24.174,37.468,23.399,38.819,22.913C40.589,22.048,42.531,21.595,44.5,21.587L45.447,21.587C47.414,21.614,49.352,22.066,51.128,22.913C52.455,23.445,53.675,24.215,54.725,25.185C56.049,26.391,57.085,27.88,57.755,29.54C58.891,32.002,58.513,36.357,58.323,39.766L58.323,39.766L58.323,40.523L58.323,40.523C58.323,40.821,58.464,41.102,58.702,41.281L59.838,41.281L62.11,40.523L63.815,40.523C64.51,40.606,65.058,41.154,65.14,41.849C65.14,42.038,65.14,42.228,64.762,42.796L62.868,43.742L62.11,43.742C60.823,43.906,59.66,44.59,58.891,45.636C58.659,46.473,58.797,47.369,59.27,48.098L59.27,48.098C59.838,49.423,63.247,55.862,70.064,56.998C70.302,57.177,70.442,57.457,70.442,57.755ZM70.442,59.081"/>
</g>
  <g id="Medium-L" transform="matrix(1.0,0.0,0.0,1.0,1702.3933251953124,1475.3233447265625)">  <path stroke="none" stroke-miterlimit="4" data-name="Layer 2" stroke-dasharray="none" stroke-linejoin="miter" fill-rule="nonzero" stroke-linecap="butt" stroke-opacity="1" stroke-width="1px" fill-opacity="1" fill="#000000" d="M66.276,3.787L24.617,3.787C13.156,3.89,3.89,13.156,3.787,24.617L3.787,66.276C3.89,77.737,13.156,87.003,24.617,87.106L66.276,87.106C77.737,87.003,87.003,77.737,87.106,66.276L87.106,24.617C87.003,13.156,77.737,3.89,66.276,3.787ZM70.442,59.081C70.02,59.609,69.507,60.058,68.927,60.406L64.004,61.542L63.436,61.921C63.345,62.359,63.282,62.801,63.247,63.247L63.247,63.625C63.275,63.892,63.208,64.161,63.057,64.383C62.868,64.762,62.679,64.951,62.3,64.951L56.24,64.951C54.784,65.261,53.422,65.909,52.264,66.844C50.351,68.44,47.938,69.312,45.447,69.306L44.879,69.306C42.364,69.259,39.948,68.319,38.062,66.655C36.878,65.762,35.525,65.118,34.085,64.762L28.215,64.762C27.81,64.795,27.429,64.566,27.268,64.193C27.057,63.849,26.927,63.46,26.889,63.057L26.889,63.057C26.782,62.643,26.589,62.255,26.321,61.921C26.321,61.712,26.152,61.542,25.942,61.542C24.246,61.339,22.588,60.893,21.019,60.217C20.417,59.989,19.892,59.595,19.504,59.081L19.504,59.081L20.072,58.513C21.761,58.318,23.381,57.735,24.806,56.808C26.056,56.004,27.147,54.977,28.025,53.779C29.242,52.484,30.148,50.93,30.677,49.234L30.677,49.234C31.142,48.574,31.282,47.737,31.055,46.962C30.487,45.636,28.972,45.257,27.836,44.879L27.647,44.879L27.079,44.5C26.434,44.347,25.845,44.019,25.374,43.553C25.004,43.296,24.79,42.868,24.806,42.417C24.891,41.998,25.173,41.645,25.564,41.47C26.132,41.091,27.079,40.902,27.457,41.281C27.836,41.659,30.298,42.228,31.245,41.659C32.191,41.091,31.623,41.281,31.623,41.091C31.623,40.902,31.434,40.145,31.434,39.766L31.434,39.766C31.245,36.357,31.055,32.002,32.002,29.54C32.808,27.909,33.898,26.434,35.221,25.185C36.241,24.174,37.468,23.399,38.819,22.913C40.589,22.048,42.531,21.595,44.5,21.587L45.447,21.587C47.414,21.614,49.352,22.066,51.128,22.913C52.455,23.445,53.675,24.215,54.725,25.185C56.049,26.391,57.085,27.88,57.755,29.54C58.891,32.002,58.513,36.357,58.323,39.766L58.323,39.766L58.323,40.523L58.323,40.523C58.323,40.821,58.464,41.102,58.702,41.281L59.838,41.281L62.11,40.523L63.815,40.523C64.51,40.606,65.058,41.154,65.14,41.849C65.14,42.038,65.14,42.228,64.762,42.796L62.868,43.742L62.11,43.742C60.823,43.906,59.66,44.59,58.891,45.636C58.659,46.473,58.797,47.369,59.27,48.098L59.27,48.098C59.838,49.423,63.247,55.862,70.064,56.998C70.302,57.177,70.442,57.457,70.442,57.755ZM70.442,59.081"/>
</g>
  <g id="Regular-L" transform="matrix(1.0,0.0,0.0,1.0,1405.6833251953124,1475.3233447265625)">  <path fill="#000000" stroke-dasharray="none" data-name="Layer 2" stroke-width="1px" stroke-linecap="butt" stroke-miterlimit="4" stroke-opacity="1" fill-rule="nonzero" stroke="none" fill-opacity="1" stroke-linejoin="miter" d="M66.276,3.787L24.617,3.787C13.156,3.89,3.89,13.156,3.787,24.617L3.787,66.276C3.89,77.737,13.156,87.003,24.617,87.106L66.276,87.106C77.737,87.003,87.003,77.737,87.106,66.276L87.106,24.617C87.003,13.156,77.737,3.89,66.276,3.787ZM70.442,59.081C70.02,59.609,69.507,60.058,68.927,60.406L64.004,61.542L63.436,61.921C63.345,62.359,63.282,62.801,63.247,63.247L63.247,63.625C63.275,63.892,63.208,64.161,63.057,64.383C62.868,64.762,62.679,64.951,62.3,64.951L56.24,64.951C54.784,65.261,53.422,65.909,52.264,66.844C50.351,68.44,47.938,69.312,45.447,69.306L44.879,69.306C42.364,69.259,39.948,68.319,38.062,66.655C36.878,65.762,35.525,65.118,34.085,64.762L28.215,64.762C27.81,64.795,27.429,64.566,27.268,64.193C27.057,63.849,26.927,63.46,26.889,63.057L26.889,63.057C26.782,62.643,26.589,62.255,26.321,61.921C26.321,61.712,26.152,61.542,25.942,61.542C24.246,61.339,22.588,60.893,21.019,60.217C20.417,59.989,19.892,59.595,19.504,59.081L19.504,59.081L20.072,58.513C21.761,58.318,23.381,57.735,24.806,56.808C26.056,56.004,27.147,54.977,28.025,53.779C29.242,52.484,30.148,50.93,30.677,49.234L30.677,49.234C31.142,48.574,31.282,47.737,31.055,46.962C30.487,45.636,28.972,45.257,27.836,44.879L27.647,44.879L27.079,44.5C26.434,44.347,25.845,44.019,25.374,43.553C25.004,43.296,24.79,42.868,24.806,42.417C24.891,41.998,25.173,41.645,25.564,41.47C26.132,41.091,27.079,40.902,27.457,41.281C27.836,41.659,30.298,42.228,31.245,41.659C32.191,41.091,31.623,41.281,31.623,41.091C31.623,40.902,31.434,40.145,31.434,39.766L31.434,39.766C31.245,36.357,31.055,32.002,32.002,29.54C32.808,27.909,33.898,26.434,35.221,25.185C36.241,24.174,37.468,23.399,38.819,22.913C40.589,22.048,42.531,21.595,44.5,21.587L45.447,21.587C47.414,21.614,49.352,22.066,51.128,22.913C52.455,23.445,53.675,24.215,54.725,25.185C56.049,26.391,57.085,27.88,57.755,29.54C58.891,32.002,58.513,36.357,58.323,39.766L58.323,39.766L58.323,40.523L58.323,40.523C58.323,40.821,58.464,41.102,58.702,41.281L59.838,41.281L62.11,40.523L63.815,40.523C64.51,40.606,65.058,41.154,65.14,41.849C65.14,42.038,65.14,42.228,64.762,42.796L62.868,43.742L62.11,43.742C60.823,43.906,59.66,44.59,58.891,45.636C58.659,46.473,58.797,47.369,59.27,48.098L59.27,48.098C59.838,49.423,63.247,55.862,70.064,56.998C70.302,57.177,70.442,57.457,70.442,57.755ZM70.442,59.081"/>
</g>
  <g id="Light-L" transform="matrix(1.0,0.0,0.0,1.0,1108.9733251953126,1475.3233447265625)">  <path stroke-width="1px" stroke-miterlimit="4" stroke-linecap="butt" stroke-dasharray="none" stroke="none" fill-rule="nonzero" stroke-linejoin="miter" fill-opacity="1" data-name="Layer 2" stroke-opacity="1" fill="#000000" d="M66.276,3.787L24.617,3.787C13.156,3.89,3.89,13.156,3.787,24.617L3.787,66.276C3.89,77.737,13.156,87.003,24.617,87.106L66.276,87.106C77.737,87.003,87.003,77.737,87.106,66.276L87.106,24.617C87.003,13.156,77.737,3.89,66.276,3.787ZM70.442,59.081C70.02,59.609,69.507,60.058,68.927,60.406L64.004,61.542L63.436,61.921C63.345,62.359,63.282,62.801,63.247,63.247L63.247,63.625C63.275,63.892,63.208,64.161,63.057,64.383C62.868,64.762,62.679,64.951,62.3,64.951L56.24,64.951C54.784,65.261,53.422,65.909,52.264,66.844C50.351,68.44,47.938,69.312,45.447,69.306L44.879,69.306C42.364,69.259,39.948,68.319,38.062,66.655C36.878,65.762,35.525,65.118,34.085,64.762L28.215,64.762C27.81,64.795,27.429,64.566,27.268,64.193C27.057,63.849,26.927,63.46,26.889,63.057L26.889,63.057C26.782,62.643,26.589,62.255,26.321,61.921C26.321,61.712,26.152,61.542,25.942,61.542C24.246,61.339,22.588,60.893,21.019,60.217C20.417,59.989,19.892,59.595,19.504,59.081L19.504,59.081L20.072,58.513C21.761,58.318,23.381,57.735,24.806,56.808C26.056,56.004,27.147,54.977,28.025,53.779C29.242,52.484,30.148,50.93,30.677,49.234L30.677,49.234C31.142,48.574,31.282,47.737,31.055,46.962C30.487,45.636,28.972,45.257,27.836,44.879L27.647,44.879L27.079,44.5C26.434,44.347,25.845,44.019,25.374,43.553C25.004,43.296,24.79,42.868,24.806,42.417C24.891,41.998,25.173,41.645,25.564,41.47C26.132,41.091,27.079,40.902,27.457,41.281C27.836,41.659,30.298,42.228,31.245,41.659C32.191,41.091,31.623,41.281,31.623,41.091C31.623,40.902,31.434,40.145,31.434,39.766L31.434,39.766C31.245,36.357,31.055,32.002,32.002,29.54C32.808,27.909,33.898,26.434,35.221,25.185C36.241,24.174,37.468,23.399,38.819,22.913C40.589,22.048,42.531,21.595,44.5,21.587L45.447,21.587C47.414,21.614,49.352,22.066,51.128,22.913C52.455,23.445,53.675,24.215,54.725,25.185C56.049,26.391,57.085,27.88,57.755,29.54C58.891,32.002,58.513,36.357,58.323,39.766L58.323,39.766L58.323,40.523L58.323,40.523C58.323,40.821,58.464,41.102,58.702,41.281L59.838,41.281L62.11,40.523L63.815,40.523C64.51,40.606,65.058,41.154,65.14,41.849C65.14,42.038,65.14,42.228,64.762,42.796L62.868,43.742L62.11,43.742C60.823,43.906,59.66,44.59,58.891,45.636C58.659,46.473,58.797,47.369,59.27,48.098L59.27,48.098C59.838,49.423,63.247,55.862,70.064,56.998C70.302,57.177,70.442,57.457,70.442,57.755ZM70.442,59.081"/>
</g>
  <g id="Thin-L" transform="matrix(1.0,0.0,0.0,1.0,812.2633251953125,1475.3233447265625)">  <path data-name="Layer 2" stroke-linecap="butt" stroke="none" stroke-miterlimit="4" stroke-dasharray="none" stroke-opacity="1" fill-rule="nonzero" fill="#000000" stroke-linejoin="miter" fill-opacity="1" stroke-width="1px" d="M66.276,3.787L24.617,3.787C13.156,3.89,3.89,13.156,3.787,24.617L3.787,66.276C3.89,77.737,13.156,87.003,24.617,87.106L66.276,87.106C77.737,87.003,87.003,77.737,87.106,66.276L87.106,24.617C87.003,13.156,77.737,3.89,66.276,3.787ZM70.442,59.081C70.02,59.609,69.507,60.058,68.927,60.406L64.004,61.542L63.436,61.921C63.345,62.359,63.282,62.801,63.247,63.247L63.247,63.625C63.275,63.892,63.208,64.161,63.057,64.383C62.868,64.762,62.679,64.951,62.3,64.951L56.24,64.951C54.784,65.261,53.422,65.909,52.264,66.844C50.351,68.44,47.938,69.312,45.447,69.306L44.879,69.306C42.364,69.259,39.948,68.319,38.062,66.655C36.878,65.762,35.525,65.118,34.085,64.762L28.215,64.762C27.81,64.795,27.429,64.566,27.268,64.193C27.057,63.849,26.927,63.46,26.889,63.057L26.889,63.057C26.782,62.643,26.589,62.255,26.321,61.921C26.321,61.712,26.152,61.542,25.942,61.542C24.246,61.339,22.588,60.893,21.019,60.217C20.417,59.989,19.892,59.595,19.504,59.081L19.504,59.081L20.072,58.513C21.761,58.318,23.381,57.735,24.806,56.808C26.056,56.004,27.147,54.977,28.025,53.779C29.242,52.484,30.148,50.93,30.677,49.234L30.677,49.234C31.142,48.574,31.282,47.737,31.055,46.962C30.487,45.636,28.972,45.257,27.836,44.879L27.647,44.879L27.079,44.5C26.434,44.347,25.845,44.019,25.374,43.553C25.004,43.296,24.79,42.868,24.806,42.417C24.891,41.998,25.173,41.645,25.564,41.47C26.132,41.091,27.079,40.902,27.457,41.281C27.836,41.659,30.298,42.228,31.245,41.659C32.191,41.091,31.623,41.281,31.623,41.091C31.623,40.902,31.434,40.145,31.434,39.766L31.434,39.766C31.245,36.357,31.055,32.002,32.002,29.54C32.808,27.909,33.898,26.434,35.221,25.185C36.241,24.174,37.468,23.399,38.819,22.913C40.589,22.048,42.531,21.595,44.5,21.587L45.447,21.587C47.414,21.614,49.352,22.066,51.128,22.913C52.455,23.445,53.675,24.215,54.725,25.185C56.049,26.391,57.085,27.88,57.755,29.54C58.891,32.002,58.513,36.357,58.323,39.766L58.323,39.766L58.323,40.523L58.323,40.523C58.323,40.821,58.464,41.102,58.702,41.281L59.838,41.281L62.11,40.523L63.815,40.523C64.51,40.606,65.058,41.154,65.14,41.849C65.14,42.038,65.14,42.228,64.762,42.796L62.868,43.742L62.11,43.742C60.823,43.906,59.66,44.59,58.891,45.636C58.659,46.473,58.797,47.369,59.27,48.098L59.27,48.098C59.838,49.423,63.247,55.862,70.064,56.998C70.302,57.177,70.442,57.457,70.442,57.755ZM70.442,59.081"/>
</g>
  <g id="Ultralight-L" transform="matrix(1.0,0.0,0.0,1.0,515.5533251953125,1475.3233447265625)">  <path stroke="none" fill="#000000" fill-rule="nonzero" stroke-width="1px" stroke-miterlimit="4" stroke-dasharray="none" stroke-linejoin="miter" stroke-linecap="butt" data-name="Layer 2" stroke-opacity="1" fill-opacity="1" d="M66.276,3.787L24.617,3.787C13.156,3.89,3.89,13.156,3.787,24.617L3.787,66.276C3.89,77.737,13.156,87.003,24.617,87.106L66.276,87.106C77.737,87.003,87.003,77.737,87.106,66.276L87.106,24.617C87.003,13.156,77.737,3.89,66.276,3.787ZM70.442,59.081C70.02,59.609,69.507,60.058,68.927,60.406L64.004,61.542L63.436,61.921C63.345,62.359,63.282,62.801,63.247,63.247L63.247,63.625C63.275,63.892,63.208,64.161,63.057,64.383C62.868,64.762,62.679,64.951,62.3,64.951L56.24,64.951C54.784,65.261,53.422,65.909,52.264,66.844C50.351,68.44,47.938,69.312,45.447,69.306L44.879,69.306C42.364,69.259,39.948,68.319,38.062,66.655C36.878,65.762,35.525,65.118,34.085,64.762L28.215,64.762C27.81,64.795,27.429,64.566,27.268,64.193C27.057,63.849,26.927,63.46,26.889,63.057L26.889,63.057C26.782,62.643,26.589,62.255,26.321,61.921C26.321,61.712,26.152,61.542,25.942,61.542C24.246,61.339,22.588,60.893,21.019,60.217C20.417,59.989,19.892,59.595,19.504,59.081L19.504,59.081L20.072,58.513C21.761,58.318,23.381,57.735,24.806,56.808C26.056,56.004,27.147,54.977,28.025,53.779C29.242,52.484,30.148,50.93,30.677,49.234L30.677,49.234C31.142,48.574,31.282,47.737,31.055,46.962C30.487,45.636,28.972,45.257,27.836,44.879L27.647,44.879L27.079,44.5C26.434,44.347,25.845,44.019,25.374,43.553C25.004,43.296,24.79,42.868,24.806,42.417C24.891,41.998,25.173,41.645,25.564,41.47C26.132,41.091,27.079,40.902,27.457,41.281C27.836,41.659,30.298,42.228,31.245,41.659C32.191,41.091,31.623,41.281,31.623,41.091C31.623,40.902,31.434,40.145,31.434,39.766L31.434,39.766C31.245,36.357,31.055,32.002,32.002,29.54C32.808,27.909,33.898,26.434,35.221,25.185C36.241,24.174,37.468,23.399,38.819,22.913C40.589,22.048,42.531,21.595,44.5,21.587L45.447,21.587C47.414,21.614,49.352,22.066,51.128,22.913C52.455,23.445,53.675,24.215,54.725,25.185C56.049,26.391,57.085,27.88,57.755,29.54C58.891,32.002,58.513,36.357,58.323,39.766L58.323,39.766L58.323,40.523L58.323,40.523C58.323,40.821,58.464,41.102,58.702,41.281L59.838,41.281L62.11,40.523L63.815,40.523C64.51,40.606,65.058,41.154,65.14,41.849C65.14,42.038,65.14,42.228,64.762,42.796L62.868,43.742L62.11,43.742C60.823,43.906,59.66,44.59,58.891,45.636C58.659,46.473,58.797,47.369,59.27,48.098L59.27,48.098C59.838,49.423,63.247,55.862,70.064,56.998C70.302,57.177,70.442,57.457,70.442,57.755ZM70.442,59.081"/>
</g>
  <g id="Black-M" transform="matrix(1.0,0.0,0.0,1.0,2899.45001953125,1055.5400390625)">  <path stroke="none" stroke-linejoin="miter" fill-opacity="1" stroke-miterlimit="4" stroke-dasharray="none" data-name="Layer 2" stroke-opacity="1" fill-rule="nonzero" stroke-width="1px" stroke-linecap="butt" fill="#000000" d="M51.377,2.936L19.083,2.936C10.198,3.016,3.016,10.198,2.936,19.083L2.936,51.377C3.016,60.262,10.198,67.444,19.083,67.524L51.377,67.524C60.262,67.444,67.444,60.262,67.524,51.377L67.524,19.083C67.444,10.198,60.262,3.016,51.377,2.936ZM54.606,45.799C54.279,46.209,53.882,46.557,53.432,46.827L49.616,47.707L49.175,48.001C49.105,48.34,49.056,48.683,49.028,49.028L49.028,49.322C49.05,49.529,48.998,49.737,48.882,49.909C48.735,50.203,48.588,50.35,48.294,50.35L43.597,50.35C42.468,50.59,41.412,51.093,40.514,51.817C39.032,53.054,37.161,53.73,35.23,53.726L34.79,53.726C32.84,53.689,30.967,52.961,29.505,51.671C28.587,50.978,27.539,50.479,26.422,50.203L21.872,50.203C21.558,50.229,21.263,50.051,21.138,49.762C20.974,49.495,20.874,49.194,20.844,48.882L20.844,48.882C20.761,48.56,20.611,48.26,20.404,48.001C20.404,47.839,20.273,47.707,20.11,47.707C18.796,47.55,17.51,47.204,16.294,46.68C15.827,46.503,15.42,46.198,15.12,45.799L15.12,45.799L15.56,45.359C16.869,45.208,18.125,44.756,19.23,44.037C20.198,43.414,21.044,42.618,21.725,41.689C22.668,40.685,23.371,39.48,23.78,38.166L23.78,38.166C24.141,37.654,24.25,37.006,24.074,36.404C23.633,35.377,22.459,35.083,21.578,34.79L21.432,34.79L20.991,34.496C20.492,34.378,20.035,34.124,19.67,33.762C19.383,33.563,19.217,33.231,19.23,32.881C19.295,32.556,19.514,32.283,19.817,32.147C20.257,31.854,20.991,31.707,21.285,32.001C21.578,32.294,23.487,32.735,24.221,32.294C24.955,31.854,24.514,32.001,24.514,31.854C24.514,31.707,24.367,31.12,24.367,30.826L24.367,30.826C24.221,28.184,24.074,24.808,24.808,22.899C25.433,21.635,26.278,20.492,27.303,19.523C28.093,18.74,29.045,18.139,30.092,17.762C31.464,17.092,32.969,16.741,34.496,16.734L35.23,16.734C36.755,16.755,38.257,17.106,39.634,17.762C40.663,18.174,41.608,18.771,42.423,19.523C43.449,20.458,44.252,21.612,44.771,22.899C45.652,24.808,45.359,28.184,45.212,30.826L45.212,30.826L45.212,31.413L45.212,31.413C45.212,31.644,45.321,31.862,45.505,32.001L46.386,32.001L48.148,31.413L49.469,31.413C50.008,31.477,50.432,31.902,50.496,32.441C50.496,32.588,50.496,32.735,50.203,33.175L48.735,33.909L48.148,33.909C47.15,34.035,46.248,34.566,45.652,35.377C45.472,36.026,45.579,36.72,45.946,37.285L45.946,37.285C46.386,38.313,49.028,43.304,54.313,44.184C54.498,44.323,54.606,44.54,54.606,44.771ZM54.606,45.799"/>
</g>
  <g id="Heavy-M" transform="matrix(1.0,0.0,0.0,1.0,2602.74001953125,1055.5400390625)">  <path fill-rule="nonzero" stroke-opacity="1" data-name="Layer 2" stroke="none" stroke-width="1px" stroke-linejoin="miter" stroke-linecap="butt" stroke-dasharray="none" fill="#000000" fill-opacity="1" stroke-miterlimit="4" d="M51.377,2.936L19.083,2.936C10.198,3.016,3.016,10.198,2.936,19.083L2.936,51.377C3.016,60.262,10.198,67.444,19.083,67.524L51.377,67.524C60.262,67.444,67.444,60.262,67.524,51.377L67.524,19.083C67.444,10.198,60.262,3.016,51.377,2.936ZM54.606,45.799C54.279,46.209,53.882,46.557,53.432,46.827L49.616,47.707L49.175,48.001C49.105,48.34,49.056,48.683,49.028,49.028L49.028,49.322C49.05,49.529,48.998,49.737,48.882,49.909C48.735,50.203,48.588,50.35,48.294,50.35L43.597,50.35C42.468,50.59,41.412,51.093,40.514,51.817C39.032,53.054,37.161,53.73,35.23,53.726L34.79,53.726C32.84,53.689,30.967,52.961,29.505,51.671C28.587,50.978,27.539,50.479,26.422,50.203L21.872,50.203C21.558,50.229,21.263,50.051,21.138,49.762C20.974,49.495,20.874,49.194,20.844,48.882L20.844,48.882C20.761,48.56,20.611,48.26,20.404,48.001C20.404,47.839,20.273,47.707,20.11,47.707C18.796,47.55,17.51,47.204,16.294,46.68C15.827,46.503,15.42,46.198,15.12,45.799L15.12,45.799L15.56,45.359C16.869,45.208,18.125,44.756,19.23,44.037C20.198,43.414,21.044,42.618,21.725,41.689C22.668,40.685,23.371,39.48,23.78,38.166L23.78,38.166C24.141,37.654,24.25,37.006,24.074,36.404C23.633,35.377,22.459,35.083,21.578,34.79L21.432,34.79L20.991,34.496C20.492,34.378,20.035,34.124,19.67,33.762C19.383,33.563,19.217,33.231,19.23,32.881C19.295,32.556,19.514,32.283,19.817,32.147C20.257,31.854,20.991,31.707,21.285,32.001C21.578,32.294,23.487,32.735,24.221,32.294C24.955,31.854,24.514,32.001,24.514,31.854C24.514,31.707,24.367,31.12,24.367,30.826L24.367,30.826C24.221,28.184,24.074,24.808,24.808,22.899C25.433,21.635,26.278,20.492,27.303,19.523C28.093,18.74,29.045,18.139,30.092,17.762C31.464,17.092,32.969,16.741,34.496,16.734L35.23,16.734C36.755,16.755,38.257,17.106,39.634,17.762C40.663,18.174,41.608,18.771,42.423,19.523C43.449,20.458,44.252,21.612,44.771,22.899C45.652,24.808,45.359,28.184,45.212,30.826L45.212,30.826L45.212,31.413L45.212,31.413C45.212,31.644,45.321,31.862,45.505,32.001L46.386,32.001L48.148,31.413L49.469,31.413C50.008,31.477,50.432,31.902,50.496,32.441C50.496,32.588,50.496,32.735,50.203,33.175L48.735,33.909L48.148,33.909C47.15,34.035,46.248,34.566,45.652,35.377C45.472,36.026,45.579,36.72,45.946,37.285L45.946,37.285C46.386,38.313,49.028,43.304,54.313,44.184C54.498,44.323,54.606,44.54,54.606,44.771ZM54.606,45.799"/>
</g>
  <g id="Bold-M" transform="matrix(1.0,0.0,0.0,1.0,2306.0300195312498,1055.5400390625)">  <path stroke-dasharray="none" stroke-opacity="1" data-name="Layer 2" stroke="none" stroke-linejoin="miter" fill-rule="nonzero" fill="#000000" stroke-linecap="butt" stroke-miterlimit="4" fill-opacity="1" stroke-width="1px" d="M51.377,2.936L19.083,2.936C10.198,3.016,3.016,10.198,2.936,19.083L2.936,51.377C3.016,60.262,10.198,67.444,19.083,67.524L51.377,67.524C60.262,67.444,67.444,60.262,67.524,51.377L67.524,19.083C67.444,10.198,60.262,3.016,51.377,2.936ZM54.606,45.799C54.279,46.209,53.882,46.557,53.432,46.827L49.616,47.707L49.175,48.001C49.105,48.34,49.056,48.683,49.028,49.028L49.028,49.322C49.05,49.529,48.998,49.737,48.882,49.909C48.735,50.203,48.588,50.35,48.294,50.35L43.597,50.35C42.468,50.59,41.412,51.093,40.514,51.817C39.032,53.054,37.161,53.73,35.23,53.726L34.79,53.726C32.84,53.689,30.967,52.961,29.505,51.671C28.587,50.978,27.539,50.479,26.422,50.203L21.872,50.203C21.558,50.229,21.263,50.051,21.138,49.762C20.974,49.495,20.874,49.194,20.844,48.882L20.844,48.882C20.761,48.56,20.611,48.26,20.404,48.001C20.404,47.839,20.273,47.707,20.11,47.707C18.796,47.55,17.51,47.204,16.294,46.68C15.827,46.503,15.42,46.198,15.12,45.799L15.12,45.799L15.56,45.359C16.869,45.208,18.125,44.756,19.23,44.037C20.198,43.414,21.044,42.618,21.725,41.689C22.668,40.685,23.371,39.48,23.78,38.166L23.78,38.166C24.141,37.654,24.25,37.006,24.074,36.404C23.633,35.377,22.459,35.083,21.578,34.79L21.432,34.79L20.991,34.496C20.492,34.378,20.035,34.124,19.67,33.762C19.383,33.563,19.217,33.231,19.23,32.881C19.295,32.556,19.514,32.283,19.817,32.147C20.257,31.854,20.991,31.707,21.285,32.001C21.578,32.294,23.487,32.735,24.221,32.294C24.955,31.854,24.514,32.001,24.514,31.854C24.514,31.707,24.367,31.12,24.367,30.826L24.367,30.826C24.221,28.184,24.074,24.808,24.808,22.899C25.433,21.635,26.278,20.492,27.303,19.523C28.093,18.74,29.045,18.139,30.092,17.762C31.464,17.092,32.969,16.741,34.496,16.734L35.23,16.734C36.755,16.755,38.257,17.106,39.634,17.762C40.663,18.174,41.608,18.771,42.423,19.523C43.449,20.458,44.252,21.612,44.771,22.899C45.652,24.808,45.359,28.184,45.212,30.826L45.212,30.826L45.212,31.413L45.212,31.413C45.212,31.644,45.321,31.862,45.505,32.001L46.386,32.001L48.148,31.413L49.469,31.413C50.008,31.477,50.432,31.902,50.496,32.441C50.496,32.588,50.496,32.735,50.203,33.175L48.735,33.909L48.148,33.909C47.15,34.035,46.248,34.566,45.652,35.377C45.472,36.026,45.579,36.72,45.946,37.285L45.946,37.285C46.386,38.313,49.028,43.304,54.313,44.184C54.498,44.323,54.606,44.54,54.606,44.771ZM54.606,45.799"/>
</g>
  <g id="Semibold-M" transform="matrix(1.0,0.0,0.0,1.0,2009.32001953125,1055.5400390625)">  <path fill-opacity="1" stroke-width="1px" stroke-opacity="1" fill="#000000" stroke-miterlimit="4" stroke-dasharray="none" fill-rule="nonzero" data-name="Layer 2" stroke-linecap="butt" stroke-linejoin="miter" stroke="none" d="M51.377,2.936L19.083,2.936C10.198,3.016,3.016,10.198,2.936,19.083L2.936,51.377C3.016,60.262,10.198,67.444,19.083,67.524L51.377,67.524C60.262,67.444,67.444,60.262,67.524,51.377L67.524,19.083C67.444,10.198,60.262,3.016,51.377,2.936ZM54.606,45.799C54.279,46.209,53.882,46.557,53.432,46.827L49.616,47.707L49.175,48.001C49.105,48.34,49.056,48.683,49.028,49.028L49.028,49.322C49.05,49.529,48.998,49.737,48.882,49.909C48.735,50.203,48.588,50.35,48.294,50.35L43.597,50.35C42.468,50.59,41.412,51.093,40.514,51.817C39.032,53.054,37.161,53.73,35.23,53.726L34.79,53.726C32.84,53.689,30.967,52.961,29.505,51.671C28.587,50.978,27.539,50.479,26.422,50.203L21.872,50.203C21.558,50.229,21.263,50.051,21.138,49.762C20.974,49.495,20.874,49.194,20.844,48.882L20.844,48.882C20.761,48.56,20.611,48.26,20.404,48.001C20.404,47.839,20.273,47.707,20.11,47.707C18.796,47.55,17.51,47.204,16.294,46.68C15.827,46.503,15.42,46.198,15.12,45.799L15.12,45.799L15.56,45.359C16.869,45.208,18.125,44.756,19.23,44.037C20.198,43.414,21.044,42.618,21.725,41.689C22.668,40.685,23.371,39.48,23.78,38.166L23.78,38.166C24.141,37.654,24.25,37.006,24.074,36.404C23.633,35.377,22.459,35.083,21.578,34.79L21.432,34.79L20.991,34.496C20.492,34.378,20.035,34.124,19.67,33.762C19.383,33.563,19.217,33.231,19.23,32.881C19.295,32.556,19.514,32.283,19.817,32.147C20.257,31.854,20.991,31.707,21.285,32.001C21.578,32.294,23.487,32.735,24.221,32.294C24.955,31.854,24.514,32.001,24.514,31.854C24.514,31.707,24.367,31.12,24.367,30.826L24.367,30.826C24.221,28.184,24.074,24.808,24.808,22.899C25.433,21.635,26.278,20.492,27.303,19.523C28.093,18.74,29.045,18.139,30.092,17.762C31.464,17.092,32.969,16.741,34.496,16.734L35.23,16.734C36.755,16.755,38.257,17.106,39.634,17.762C40.663,18.174,41.608,18.771,42.423,19.523C43.449,20.458,44.252,21.612,44.771,22.899C45.652,24.808,45.359,28.184,45.212,30.826L45.212,30.826L45.212,31.413L45.212,31.413C45.212,31.644,45.321,31.862,45.505,32.001L46.386,32.001L48.148,31.413L49.469,31.413C50.008,31.477,50.432,31.902,50.496,32.441C50.496,32.588,50.496,32.735,50.203,33.175L48.735,33.909L48.148,33.909C47.15,34.035,46.248,34.566,45.652,35.377C45.472,36.026,45.579,36.72,45.946,37.285L45.946,37.285C46.386,38.313,49.028,43.304,54.313,44.184C54.498,44.323,54.606,44.54,54.606,44.771ZM54.606,45.799"/>
</g>
  <g id="Medium-M" transform="matrix(1.0,0.0,0.0,1.0,1712.61001953125,1055.5400390625)">  <path stroke="none" stroke-miterlimit="4" data-name="Layer 2" stroke-dasharray="none" stroke-linejoin="miter" fill-rule="nonzero" stroke-linecap="butt" stroke-opacity="1" stroke-width="1px" fill-opacity="1" fill="#000000" d="M51.377,2.936L19.083,2.936C10.198,3.016,3.016,10.198,2.936,19.083L2.936,51.377C3.016,60.262,10.198,67.444,19.083,67.524L51.377,67.524C60.262,67.444,67.444,60.262,67.524,51.377L67.524,19.083C67.444,10.198,60.262,3.016,51.377,2.936ZM54.606,45.799C54.279,46.209,53.882,46.557,53.432,46.827L49.616,47.707L49.175,48.001C49.105,48.34,49.056,48.683,49.028,49.028L49.028,49.322C49.05,49.529,48.998,49.737,48.882,49.909C48.735,50.203,48.588,50.35,48.294,50.35L43.597,50.35C42.468,50.59,41.412,51.093,40.514,51.817C39.032,53.054,37.161,53.73,35.23,53.726L34.79,53.726C32.84,53.689,30.967,52.961,29.505,51.671C28.587,50.978,27.539,50.479,26.422,50.203L21.872,50.203C21.558,50.229,21.263,50.051,21.138,49.762C20.974,49.495,20.874,49.194,20.844,48.882L20.844,48.882C20.761,48.56,20.611,48.26,20.404,48.001C20.404,47.839,20.273,47.707,20.11,47.707C18.796,47.55,17.51,47.204,16.294,46.68C15.827,46.503,15.42,46.198,15.12,45.799L15.12,45.799L15.56,45.359C16.869,45.208,18.125,44.756,19.23,44.037C20.198,43.414,21.044,42.618,21.725,41.689C22.668,40.685,23.371,39.48,23.78,38.166L23.78,38.166C24.141,37.654,24.25,37.006,24.074,36.404C23.633,35.377,22.459,35.083,21.578,34.79L21.432,34.79L20.991,34.496C20.492,34.378,20.035,34.124,19.67,33.762C19.383,33.563,19.217,33.231,19.23,32.881C19.295,32.556,19.514,32.283,19.817,32.147C20.257,31.854,20.991,31.707,21.285,32.001C21.578,32.294,23.487,32.735,24.221,32.294C24.955,31.854,24.514,32.001,24.514,31.854C24.514,31.707,24.367,31.12,24.367,30.826L24.367,30.826C24.221,28.184,24.074,24.808,24.808,22.899C25.433,21.635,26.278,20.492,27.303,19.523C28.093,18.74,29.045,18.139,30.092,17.762C31.464,17.092,32.969,16.741,34.496,16.734L35.23,16.734C36.755,16.755,38.257,17.106,39.634,17.762C40.663,18.174,41.608,18.771,42.423,19.523C43.449,20.458,44.252,21.612,44.771,22.899C45.652,24.808,45.359,28.184,45.212,30.826L45.212,30.826L45.212,31.413L45.212,31.413C45.212,31.644,45.321,31.862,45.505,32.001L46.386,32.001L48.148,31.413L49.469,31.413C50.008,31.477,50.432,31.902,50.496,32.441C50.496,32.588,50.496,32.735,50.203,33.175L48.735,33.909L48.148,33.909C47.15,34.035,46.248,34.566,45.652,35.377C45.472,36.026,45.579,36.72,45.946,37.285L45.946,37.285C46.386,38.313,49.028,43.304,54.313,44.184C54.498,44.323,54.606,44.54,54.606,44.771ZM54.606,45.799"/>
</g>
  <g id="Regular-M" transform="matrix(1.0,0.0,0.0,1.0,1415.9000195312499,1055.5400390625)">  <path fill="#000000" stroke-dasharray="none" data-name="Layer 2" stroke-width="1px" stroke-linecap="butt" stroke-miterlimit="4" stroke-opacity="1" fill-rule="nonzero" stroke="none" fill-opacity="1" stroke-linejoin="miter" d="M51.377,2.936L19.083,2.936C10.198,3.016,3.016,10.198,2.936,19.083L2.936,51.377C3.016,60.262,10.198,67.444,19.083,67.524L51.377,67.524C60.262,67.444,67.444,60.262,67.524,51.377L67.524,19.083C67.444,10.198,60.262,3.016,51.377,2.936ZM54.606,45.799C54.279,46.209,53.882,46.557,53.432,46.827L49.616,47.707L49.175,48.001C49.105,48.34,49.056,48.683,49.028,49.028L49.028,49.322C49.05,49.529,48.998,49.737,48.882,49.909C48.735,50.203,48.588,50.35,48.294,50.35L43.597,50.35C42.468,50.59,41.412,51.093,40.514,51.817C39.032,53.054,37.161,53.73,35.23,53.726L34.79,53.726C32.84,53.689,30.967,52.961,29.505,51.671C28.587,50.978,27.539,50.479,26.422,50.203L21.872,50.203C21.558,50.229,21.263,50.051,21.138,49.762C20.974,49.495,20.874,49.194,20.844,48.882L20.844,48.882C20.761,48.56,20.611,48.26,20.404,48.001C20.404,47.839,20.273,47.707,20.11,47.707C18.796,47.55,17.51,47.204,16.294,46.68C15.827,46.503,15.42,46.198,15.12,45.799L15.12,45.799L15.56,45.359C16.869,45.208,18.125,44.756,19.23,44.037C20.198,43.414,21.044,42.618,21.725,41.689C22.668,40.685,23.371,39.48,23.78,38.166L23.78,38.166C24.141,37.654,24.25,37.006,24.074,36.404C23.633,35.377,22.459,35.083,21.578,34.79L21.432,34.79L20.991,34.496C20.492,34.378,20.035,34.124,19.67,33.762C19.383,33.563,19.217,33.231,19.23,32.881C19.295,32.556,19.514,32.283,19.817,32.147C20.257,31.854,20.991,31.707,21.285,32.001C21.578,32.294,23.487,32.735,24.221,32.294C24.955,31.854,24.514,32.001,24.514,31.854C24.514,31.707,24.367,31.12,24.367,30.826L24.367,30.826C24.221,28.184,24.074,24.808,24.808,22.899C25.433,21.635,26.278,20.492,27.303,19.523C28.093,18.74,29.045,18.139,30.092,17.762C31.464,17.092,32.969,16.741,34.496,16.734L35.23,16.734C36.755,16.755,38.257,17.106,39.634,17.762C40.663,18.174,41.608,18.771,42.423,19.523C43.449,20.458,44.252,21.612,44.771,22.899C45.652,24.808,45.359,28.184,45.212,30.826L45.212,30.826L45.212,31.413L45.212,31.413C45.212,31.644,45.321,31.862,45.505,32.001L46.386,32.001L48.148,31.413L49.469,31.413C50.008,31.477,50.432,31.902,50.496,32.441C50.496,32.588,50.496,32.735,50.203,33.175L48.735,33.909L48.148,33.909C47.15,34.035,46.248,34.566,45.652,35.377C45.472,36.026,45.579,36.72,45.946,37.285L45.946,37.285C46.386,38.313,49.028,43.304,54.313,44.184C54.498,44.323,54.606,44.54,54.606,44.771ZM54.606,45.799"/>
</g>
  <g id="Light-M" transform="matrix(1.0,0.0,0.0,1.0,1119.19001953125,1055.5400390625)">  <path stroke-width="1px" stroke-miterlimit="4" stroke-linecap="butt" stroke-dasharray="none" stroke="none" fill-rule="nonzero" stroke-linejoin="miter" fill-opacity="1" data-name="Layer 2" stroke-opacity="1" fill="#000000" d="M51.377,2.936L19.083,2.936C10.198,3.016,3.016,10.198,2.936,19.083L2.936,51.377C3.016,60.262,10.198,67.444,19.083,67.524L51.377,67.524C60.262,67.444,67.444,60.262,67.524,51.377L67.524,19.083C67.444,10.198,60.262,3.016,51.377,2.936ZM54.606,45.799C54.279,46.209,53.882,46.557,53.432,46.827L49.616,47.707L49.175,48.001C49.105,48.34,49.056,48.683,49.028,49.028L49.028,49.322C49.05,49.529,48.998,49.737,48.882,49.909C48.735,50.203,48.588,50.35,48.294,50.35L43.597,50.35C42.468,50.59,41.412,51.093,40.514,51.817C39.032,53.054,37.161,53.73,35.23,53.726L34.79,53.726C32.84,53.689,30.967,52.961,29.505,51.671C28.587,50.978,27.539,50.479,26.422,50.203L21.872,50.203C21.558,50.229,21.263,50.051,21.138,49.762C20.974,49.495,20.874,49.194,20.844,48.882L20.844,48.882C20.761,48.56,20.611,48.26,20.404,48.001C20.404,47.839,20.273,47.707,20.11,47.707C18.796,47.55,17.51,47.204,16.294,46.68C15.827,46.503,15.42,46.198,15.12,45.799L15.12,45.799L15.56,45.359C16.869,45.208,18.125,44.756,19.23,44.037C20.198,43.414,21.044,42.618,21.725,41.689C22.668,40.685,23.371,39.48,23.78,38.166L23.78,38.166C24.141,37.654,24.25,37.006,24.074,36.404C23.633,35.377,22.459,35.083,21.578,34.79L21.432,34.79L20.991,34.496C20.492,34.378,20.035,34.124,19.67,33.762C19.383,33.563,19.217,33.231,19.23,32.881C19.295,32.556,19.514,32.283,19.817,32.147C20.257,31.854,20.991,31.707,21.285,32.001C21.578,32.294,23.487,32.735,24.221,32.294C24.955,31.854,24.514,32.001,24.514,31.854C24.514,31.707,24.367,31.12,24.367,30.826L24.367,30.826C24.221,28.184,24.074,24.808,24.808,22.899C25.433,21.635,26.278,20.492,27.303,19.523C28.093,18.74,29.045,18.139,30.092,17.762C31.464,17.092,32.969,16.741,34.496,16.734L35.23,16.734C36.755,16.755,38.257,17.106,39.634,17.762C40.663,18.174,41.608,18.771,42.423,19.523C43.449,20.458,44.252,21.612,44.771,22.899C45.652,24.808,45.359,28.184,45.212,30.826L45.212,30.826L45.212,31.413L45.212,31.413C45.212,31.644,45.321,31.862,45.505,32.001L46.386,32.001L48.148,31.413L49.469,31.413C50.008,31.477,50.432,31.902,50.496,32.441C50.496,32.588,50.496,32.735,50.203,33.175L48.735,33.909L48.148,33.909C47.15,34.035,46.248,34.566,45.652,35.377C45.472,36.026,45.579,36.72,45.946,37.285L45.946,37.285C46.386,38.313,49.028,43.304,54.313,44.184C54.498,44.323,54.606,44.54,54.606,44.771ZM54.606,45.799"/>
</g>
  <g id="Thin-M" transform="matrix(1.0,0.0,0.0,1.0,822.48001953125,1055.5400390625)">  <path data-name="Layer 2" stroke-linecap="butt" stroke="none" stroke-miterlimit="4" stroke-dasharray="none" stroke-opacity="1" fill-rule="nonzero" fill="#000000" stroke-linejoin="miter" fill-opacity="1" stroke-width="1px" d="M51.377,2.936L19.083,2.936C10.198,3.016,3.016,10.198,2.936,19.083L2.936,51.377C3.016,60.262,10.198,67.444,19.083,67.524L51.377,67.524C60.262,67.444,67.444,60.262,67.524,51.377L67.524,19.083C67.444,10.198,60.262,3.016,51.377,2.936ZM54.606,45.799C54.279,46.209,53.882,46.557,53.432,46.827L49.616,47.707L49.175,48.001C49.105,48.34,49.056,48.683,49.028,49.028L49.028,49.322C49.05,49.529,48.998,49.737,48.882,49.909C48.735,50.203,48.588,50.35,48.294,50.35L43.597,50.35C42.468,50.59,41.412,51.093,40.514,51.817C39.032,53.054,37.161,53.73,35.23,53.726L34.79,53.726C32.84,53.689,30.967,52.961,29.505,51.671C28.587,50.978,27.539,50.479,26.422,50.203L21.872,50.203C21.558,50.229,21.263,50.051,21.138,49.762C20.974,49.495,20.874,49.194,20.844,48.882L20.844,48.882C20.761,48.56,20.611,48.26,20.404,48.001C20.404,47.839,20.273,47.707,20.11,47.707C18.796,47.55,17.51,47.204,16.294,46.68C15.827,46.503,15.42,46.198,15.12,45.799L15.12,45.799L15.56,45.359C16.869,45.208,18.125,44.756,19.23,44.037C20.198,43.414,21.044,42.618,21.725,41.689C22.668,40.685,23.371,39.48,23.78,38.166L23.78,38.166C24.141,37.654,24.25,37.006,24.074,36.404C23.633,35.377,22.459,35.083,21.578,34.79L21.432,34.79L20.991,34.496C20.492,34.378,20.035,34.124,19.67,33.762C19.383,33.563,19.217,33.231,19.23,32.881C19.295,32.556,19.514,32.283,19.817,32.147C20.257,31.854,20.991,31.707,21.285,32.001C21.578,32.294,23.487,32.735,24.221,32.294C24.955,31.854,24.514,32.001,24.514,31.854C24.514,31.707,24.367,31.12,24.367,30.826L24.367,30.826C24.221,28.184,24.074,24.808,24.808,22.899C25.433,21.635,26.278,20.492,27.303,19.523C28.093,18.74,29.045,18.139,30.092,17.762C31.464,17.092,32.969,16.741,34.496,16.734L35.23,16.734C36.755,16.755,38.257,17.106,39.634,17.762C40.663,18.174,41.608,18.771,42.423,19.523C43.449,20.458,44.252,21.612,44.771,22.899C45.652,24.808,45.359,28.184,45.212,30.826L45.212,30.826L45.212,31.413L45.212,31.413C45.212,31.644,45.321,31.862,45.505,32.001L46.386,32.001L48.148,31.413L49.469,31.413C50.008,31.477,50.432,31.902,50.496,32.441C50.496,32.588,50.496,32.735,50.203,33.175L48.735,33.909L48.148,33.909C47.15,34.035,46.248,34.566,45.652,35.377C45.472,36.026,45.579,36.72,45.946,37.285L45.946,37.285C46.386,38.313,49.028,43.304,54.313,44.184C54.498,44.323,54.606,44.54,54.606,44.771ZM54.606,45.799"/>
</g>
  <g id="Ultralight-M" transform="matrix(1.0,0.0,0.0,1.0,525.77001953125,1055.5400390625)">  <path stroke="none" fill="#000000" fill-rule="nonzero" stroke-width="1px" stroke-miterlimit="4" stroke-dasharray="none" stroke-linejoin="miter" stroke-linecap="butt" data-name="Layer 2" stroke-opacity="1" fill-opacity="1" d="M51.377,2.936L19.083,2.936C10.198,3.016,3.016,10.198,2.936,19.083L2.936,51.377C3.016,60.262,10.198,67.444,19.083,67.524L51.377,67.524C60.262,67.444,67.444,60.262,67.524,51.377L67.524,19.083C67.444,10.198,60.262,3.016,51.377,2.936ZM54.606,45.799C54.279,46.209,53.882,46.557,53.432,46.827L49.616,47.707L49.175,48.001C49.105,48.34,49.056,48.683,49.028,49.028L49.028,49.322C49.05,49.529,48.998,49.737,48.882,49.909C48.735,50.203,48.588,50.35,48.294,50.35L43.597,50.35C42.468,50.59,41.412,51.093,40.514,51.817C39.032,53.054,37.161,53.73,35.23,53.726L34.79,53.726C32.84,53.689,30.967,52.961,29.505,51.671C28.587,50.978,27.539,50.479,26.422,50.203L21.872,50.203C21.558,50.229,21.263,50.051,21.138,49.762C20.974,49.495,20.874,49.194,20.844,48.882L20.844,48.882C20.761,48.56,20.611,48.26,20.404,48.001C20.404,47.839,20.273,47.707,20.11,47.707C18.796,47.55,17.51,47.204,16.294,46.68C15.827,46.503,15.42,46.198,15.12,45.799L15.12,45.799L15.56,45.359C16.869,45.208,18.125,44.756,19.23,44.037C20.198,43.414,21.044,42.618,21.725,41.689C22.668,40.685,23.371,39.48,23.78,38.166L23.78,38.166C24.141,37.654,24.25,37.006,24.074,36.404C23.633,35.377,22.459,35.083,21.578,34.79L21.432,34.79L20.991,34.496C20.492,34.378,20.035,34.124,19.67,33.762C19.383,33.563,19.217,33.231,19.23,32.881C19.295,32.556,19.514,32.283,19.817,32.147C20.257,31.854,20.991,31.707,21.285,32.001C21.578,32.294,23.487,32.735,24.221,32.294C24.955,31.854,24.514,32.001,24.514,31.854C24.514,31.707,24.367,31.12,24.367,30.826L24.367,30.826C24.221,28.184,24.074,24.808,24.808,22.899C25.433,21.635,26.278,20.492,27.303,19.523C28.093,18.74,29.045,18.139,30.092,17.762C31.464,17.092,32.969,16.741,34.496,16.734L35.23,16.734C36.755,16.755,38.257,17.106,39.634,17.762C40.663,18.174,41.608,18.771,42.423,19.523C43.449,20.458,44.252,21.612,44.771,22.899C45.652,24.808,45.359,28.184,45.212,30.826L45.212,30.826L45.212,31.413L45.212,31.413C45.212,31.644,45.321,31.862,45.505,32.001L46.386,32.001L48.148,31.413L49.469,31.413C50.008,31.477,50.432,31.902,50.496,32.441C50.496,32.588,50.496,32.735,50.203,33.175L48.735,33.909L48.148,33.909C47.15,34.035,46.248,34.566,45.652,35.377C45.472,36.026,45.579,36.72,45.946,37.285L45.946,37.285C46.386,38.313,49.028,43.304,54.313,44.184C54.498,44.323,54.606,44.54,54.606,44.771ZM54.606,45.799"/>
</g>
  <g id="Black-S" transform="matrix(1.0,0.0,0.0,1.0,2907.0949252929686,633.1849448242187)">  <path stroke="none" stroke-linejoin="miter" fill-opacity="1" stroke-miterlimit="4" stroke-dasharray="none" data-name="Layer 2" stroke-opacity="1" fill-rule="nonzero" stroke-width="1px" stroke-linecap="butt" fill="#000000" d="M40.228,2.299L14.942,2.299C7.985,2.361,2.361,7.985,2.299,14.942L2.299,40.228C2.361,47.185,7.985,52.809,14.942,52.871L40.228,52.871C47.185,52.809,52.809,47.185,52.871,40.228L52.871,14.942C52.809,7.985,47.185,2.361,40.228,2.299ZM42.757,35.861C42.501,36.181,42.189,36.454,41.837,36.665L38.849,37.355L38.504,37.585C38.449,37.85,38.411,38.119,38.389,38.389L38.389,38.619C38.406,38.781,38.366,38.944,38.274,39.079C38.159,39.309,38.044,39.424,37.815,39.424L34.137,39.424C33.253,39.612,32.426,40.006,31.723,40.573C30.562,41.542,29.097,42.071,27.585,42.067L27.24,42.067C25.714,42.039,24.247,41.468,23.103,40.458C22.384,39.916,21.563,39.525,20.689,39.309L17.126,39.309C16.88,39.329,16.649,39.19,16.551,38.964C16.423,38.755,16.344,38.519,16.321,38.274L16.321,38.274C16.256,38.023,16.139,37.788,15.976,37.585C15.976,37.458,15.873,37.355,15.746,37.355C14.717,37.231,13.71,36.96,12.758,36.55C12.393,36.412,12.074,36.173,11.839,35.861L11.839,35.861L12.183,35.516C13.208,35.398,14.192,35.044,15.057,34.481C15.815,33.993,16.478,33.37,17.011,32.642C17.749,31.856,18.299,30.913,18.62,29.884L18.62,29.884C18.903,29.483,18.987,28.975,18.85,28.505C18.505,27.7,17.585,27.47,16.896,27.24L16.781,27.24L16.436,27.01C16.045,26.918,15.687,26.719,15.402,26.436C15.177,26.279,15.047,26.02,15.057,25.746C15.108,25.492,15.28,25.278,15.517,25.171C15.861,24.942,16.436,24.827,16.666,25.056C16.896,25.286,18.39,25.631,18.965,25.286C19.539,24.942,19.195,25.056,19.195,24.942C19.195,24.827,19.08,24.367,19.08,24.137L19.08,24.137C18.965,22.068,18.85,19.424,19.424,17.93C19.914,16.94,20.575,16.045,21.378,15.287C21.997,14.673,22.742,14.203,23.562,13.907C24.636,13.383,25.815,13.108,27.01,13.103L27.585,13.103C28.779,13.119,29.955,13.394,31.033,13.907C31.839,14.23,32.579,14.698,33.217,15.287C34.021,16.019,34.649,16.922,35.056,17.93C35.746,19.424,35.516,22.068,35.401,24.137L35.401,24.137L35.401,24.597L35.401,24.597C35.401,24.778,35.486,24.948,35.631,25.056L36.32,25.056L37.7,24.597L38.734,24.597C39.156,24.647,39.488,24.979,39.539,25.401C39.539,25.516,39.539,25.631,39.309,25.976L38.159,26.551L37.7,26.551C36.918,26.65,36.212,27.065,35.746,27.7C35.605,28.208,35.688,28.752,35.976,29.194L35.976,29.194C36.32,29.999,38.389,33.907,42.527,34.596C42.672,34.705,42.757,34.875,42.757,35.056ZM42.757,35.861"/>
</g>
  <g id="Heavy-S" transform="matrix(1.0,0.0,0.0,1.0,2610.3849252929685,633.1849448242187)">  <path fill-rule="nonzero" stroke-opacity="1" data-name="Layer 2" stroke="none" stroke-width="1px" stroke-linejoin="miter" stroke-linecap="butt" stroke-dasharray="none" fill="#000000" fill-opacity="1" stroke-miterlimit="4" d="M40.228,2.299L14.942,2.299C7.985,2.361,2.361,7.985,2.299,14.942L2.299,40.228C2.361,47.185,7.985,52.809,14.942,52.871L40.228,52.871C47.185,52.809,52.809,47.185,52.871,40.228L52.871,14.942C52.809,7.985,47.185,2.361,40.228,2.299ZM42.757,35.861C42.501,36.181,42.189,36.454,41.837,36.665L38.849,37.355L38.504,37.585C38.449,37.85,38.411,38.119,38.389,38.389L38.389,38.619C38.406,38.781,38.366,38.944,38.274,39.079C38.159,39.309,38.044,39.424,37.815,39.424L34.137,39.424C33.253,39.612,32.426,40.006,31.723,40.573C30.562,41.542,29.097,42.071,27.585,42.067L27.24,42.067C25.714,42.039,24.247,41.468,23.103,40.458C22.384,39.916,21.563,39.525,20.689,39.309L17.126,39.309C16.88,39.329,16.649,39.19,16.551,38.964C16.423,38.755,16.344,38.519,16.321,38.274L16.321,38.274C16.256,38.023,16.139,37.788,15.976,37.585C15.976,37.458,15.873,37.355,15.746,37.355C14.717,37.231,13.71,36.96,12.758,36.55C12.393,36.412,12.074,36.173,11.839,35.861L11.839,35.861L12.183,35.516C13.208,35.398,14.192,35.044,15.057,34.481C15.815,33.993,16.478,33.37,17.011,32.642C17.749,31.856,18.299,30.913,18.62,29.884L18.62,29.884C18.903,29.483,18.987,28.975,18.85,28.505C18.505,27.7,17.585,27.47,16.896,27.24L16.781,27.24L16.436,27.01C16.045,26.918,15.687,26.719,15.402,26.436C15.177,26.279,15.047,26.02,15.057,25.746C15.108,25.492,15.28,25.278,15.517,25.171C15.861,24.942,16.436,24.827,16.666,25.056C16.896,25.286,18.39,25.631,18.965,25.286C19.539,24.942,19.195,25.056,19.195,24.942C19.195,24.827,19.08,24.367,19.08,24.137L19.08,24.137C18.965,22.068,18.85,19.424,19.424,17.93C19.914,16.94,20.575,16.045,21.378,15.287C21.997,14.673,22.742,14.203,23.562,13.907C24.636,13.383,25.815,13.108,27.01,13.103L27.585,13.103C28.779,13.119,29.955,13.394,31.033,13.907C31.839,14.23,32.579,14.698,33.217,15.287C34.021,16.019,34.649,16.922,35.056,17.93C35.746,19.424,35.516,22.068,35.401,24.137L35.401,24.137L35.401,24.597L35.401,24.597C35.401,24.778,35.486,24.948,35.631,25.056L36.32,25.056L37.7,24.597L38.734,24.597C39.156,24.647,39.488,24.979,39.539,25.401C39.539,25.516,39.539,25.631,39.309,25.976L38.159,26.551L37.7,26.551C36.918,26.65,36.212,27.065,35.746,27.7C35.605,28.208,35.688,28.752,35.976,29.194L35.976,29.194C36.32,29.999,38.389,33.907,42.527,34.596C42.672,34.705,42.757,34.875,42.757,35.056ZM42.757,35.861"/>
</g>
  <g id="Bold-S" transform="matrix(1.0,0.0,0.0,1.0,2313.6749252929685,633.1849448242187)">  <path stroke-dasharray="none" stroke-opacity="1" data-name="Layer 2" stroke="none" stroke-linejoin="miter" fill-rule="nonzero" fill="#000000" stroke-linecap="butt" stroke-miterlimit="4" fill-opacity="1" stroke-width="1px" d="M40.228,2.299L14.942,2.299C7.985,2.361,2.361,7.985,2.299,14.942L2.299,40.228C2.361,47.185,7.985,52.809,14.942,52.871L40.228,52.871C47.185,52.809,52.809,47.185,52.871,40.228L52.871,14.942C52.809,7.985,47.185,2.361,40.228,2.299ZM42.757,35.861C42.501,36.181,42.189,36.454,41.837,36.665L38.849,37.355L38.504,37.585C38.449,37.85,38.411,38.119,38.389,38.389L38.389,38.619C38.406,38.781,38.366,38.944,38.274,39.079C38.159,39.309,38.044,39.424,37.815,39.424L34.137,39.424C33.253,39.612,32.426,40.006,31.723,40.573C30.562,41.542,29.097,42.071,27.585,42.067L27.24,42.067C25.714,42.039,24.247,41.468,23.103,40.458C22.384,39.916,21.563,39.525,20.689,39.309L17.126,39.309C16.88,39.329,16.649,39.19,16.551,38.964C16.423,38.755,16.344,38.519,16.321,38.274L16.321,38.274C16.256,38.023,16.139,37.788,15.976,37.585C15.976,37.458,15.873,37.355,15.746,37.355C14.717,37.231,13.71,36.96,12.758,36.55C12.393,36.412,12.074,36.173,11.839,35.861L11.839,35.861L12.183,35.516C13.208,35.398,14.192,35.044,15.057,34.481C15.815,33.993,16.478,33.37,17.011,32.642C17.749,31.856,18.299,30.913,18.62,29.884L18.62,29.884C18.903,29.483,18.987,28.975,18.85,28.505C18.505,27.7,17.585,27.47,16.896,27.24L16.781,27.24L16.436,27.01C16.045,26.918,15.687,26.719,15.402,26.436C15.177,26.279,15.047,26.02,15.057,25.746C15.108,25.492,15.28,25.278,15.517,25.171C15.861,24.942,16.436,24.827,16.666,25.056C16.896,25.286,18.39,25.631,18.965,25.286C19.539,24.942,19.195,25.056,19.195,24.942C19.195,24.827,19.08,24.367,19.08,24.137L19.08,24.137C18.965,22.068,18.85,19.424,19.424,17.93C19.914,16.94,20.575,16.045,21.378,15.287C21.997,14.673,22.742,14.203,23.562,13.907C24.636,13.383,25.815,13.108,27.01,13.103L27.585,13.103C28.779,13.119,29.955,13.394,31.033,13.907C31.839,14.23,32.579,14.698,33.217,15.287C34.021,16.019,34.649,16.922,35.056,17.93C35.746,19.424,35.516,22.068,35.401,24.137L35.401,24.137L35.401,24.597L35.401,24.597C35.401,24.778,35.486,24.948,35.631,25.056L36.32,25.056L37.7,24.597L38.734,24.597C39.156,24.647,39.488,24.979,39.539,25.401C39.539,25.516,39.539,25.631,39.309,25.976L38.159,26.551L37.7,26.551C36.918,26.65,36.212,27.065,35.746,27.7C35.605,28.208,35.688,28.752,35.976,29.194L35.976,29.194C36.32,29.999,38.389,33.907,42.527,34.596C42.672,34.705,42.757,34.875,42.757,35.056ZM42.757,35.861"/>
</g>
  <g id="Semibold-S" transform="matrix(1.0,0.0,0.0,1.0,2016.9649252929687,633.1849448242187)">  <path fill-opacity="1" stroke-width="1px" stroke-opacity="1" fill="#000000" stroke-miterlimit="4" stroke-dasharray="none" fill-rule="nonzero" data-name="Layer 2" stroke-linecap="butt" stroke-linejoin="miter" stroke="none" d="M40.228,2.299L14.942,2.299C7.985,2.361,2.361,7.985,2.299,14.942L2.299,40.228C2.361,47.185,7.985,52.809,14.942,52.871L40.228,52.871C47.185,52.809,52.809,47.185,52.871,40.228L52.871,14.942C52.809,7.985,47.185,2.361,40.228,2.299ZM42.757,35.861C42.501,36.181,42.189,36.454,41.837,36.665L38.849,37.355L38.504,37.585C38.449,37.85,38.411,38.119,38.389,38.389L38.389,38.619C38.406,38.781,38.366,38.944,38.274,39.079C38.159,39.309,38.044,39.424,37.815,39.424L34.137,39.424C33.253,39.612,32.426,40.006,31.723,40.573C30.562,41.542,29.097,42.071,27.585,42.067L27.24,42.067C25.714,42.039,24.247,41.468,23.103,40.458C22.384,39.916,21.563,39.525,20.689,39.309L17.126,39.309C16.88,39.329,16.649,39.19,16.551,38.964C16.423,38.755,16.344,38.519,16.321,38.274L16.321,38.274C16.256,38.023,16.139,37.788,15.976,37.585C15.976,37.458,15.873,37.355,15.746,37.355C14.717,37.231,13.71,36.96,12.758,36.55C12.393,36.412,12.074,36.173,11.839,35.861L11.839,35.861L12.183,35.516C13.208,35.398,14.192,35.044,15.057,34.481C15.815,33.993,16.478,33.37,17.011,32.642C17.749,31.856,18.299,30.913,18.62,29.884L18.62,29.884C18.903,29.483,18.987,28.975,18.85,28.505C18.505,27.7,17.585,27.47,16.896,27.24L16.781,27.24L16.436,27.01C16.045,26.918,15.687,26.719,15.402,26.436C15.177,26.279,15.047,26.02,15.057,25.746C15.108,25.492,15.28,25.278,15.517,25.171C15.861,24.942,16.436,24.827,16.666,25.056C16.896,25.286,18.39,25.631,18.965,25.286C19.539,24.942,19.195,25.056,19.195,24.942C19.195,24.827,19.08,24.367,19.08,24.137L19.08,24.137C18.965,22.068,18.85,19.424,19.424,17.93C19.914,16.94,20.575,16.045,21.378,15.287C21.997,14.673,22.742,14.203,23.562,13.907C24.636,13.383,25.815,13.108,27.01,13.103L27.585,13.103C28.779,13.119,29.955,13.394,31.033,13.907C31.839,14.23,32.579,14.698,33.217,15.287C34.021,16.019,34.649,16.922,35.056,17.93C35.746,19.424,35.516,22.068,35.401,24.137L35.401,24.137L35.401,24.597L35.401,24.597C35.401,24.778,35.486,24.948,35.631,25.056L36.32,25.056L37.7,24.597L38.734,24.597C39.156,24.647,39.488,24.979,39.539,25.401C39.539,25.516,39.539,25.631,39.309,25.976L38.159,26.551L37.7,26.551C36.918,26.65,36.212,27.065,35.746,27.7C35.605,28.208,35.688,28.752,35.976,29.194L35.976,29.194C36.32,29.999,38.389,33.907,42.527,34.596C42.672,34.705,42.757,34.875,42.757,35.056ZM42.757,35.861"/>
</g>
  <g id="Medium-S" transform="matrix(1.0,0.0,0.0,1.0,1720.2549252929687,633.1849448242187)">  <path stroke="none" stroke-miterlimit="4" data-name="Layer 2" stroke-dasharray="none" stroke-linejoin="miter" fill-rule="nonzero" stroke-linecap="butt" stroke-opacity="1" stroke-width="1px" fill-opacity="1" fill="#000000" d="M40.228,2.299L14.942,2.299C7.985,2.361,2.361,7.985,2.299,14.942L2.299,40.228C2.361,47.185,7.985,52.809,14.942,52.871L40.228,52.871C47.185,52.809,52.809,47.185,52.871,40.228L52.871,14.942C52.809,7.985,47.185,2.361,40.228,2.299ZM42.757,35.861C42.501,36.181,42.189,36.454,41.837,36.665L38.849,37.355L38.504,37.585C38.449,37.85,38.411,38.119,38.389,38.389L38.389,38.619C38.406,38.781,38.366,38.944,38.274,39.079C38.159,39.309,38.044,39.424,37.815,39.424L34.137,39.424C33.253,39.612,32.426,40.006,31.723,40.573C30.562,41.542,29.097,42.071,27.585,42.067L27.24,42.067C25.714,42.039,24.247,41.468,23.103,40.458C22.384,39.916,21.563,39.525,20.689,39.309L17.126,39.309C16.88,39.329,16.649,39.19,16.551,38.964C16.423,38.755,16.344,38.519,16.321,38.274L16.321,38.274C16.256,38.023,16.139,37.788,15.976,37.585C15.976,37.458,15.873,37.355,15.746,37.355C14.717,37.231,13.71,36.96,12.758,36.55C12.393,36.412,12.074,36.173,11.839,35.861L11.839,35.861L12.183,35.516C13.208,35.398,14.192,35.044,15.057,34.481C15.815,33.993,16.478,33.37,17.011,32.642C17.749,31.856,18.299,30.913,18.62,29.884L18.62,29.884C18.903,29.483,18.987,28.975,18.85,28.505C18.505,27.7,17.585,27.47,16.896,27.24L16.781,27.24L16.436,27.01C16.045,26.918,15.687,26.719,15.402,26.436C15.177,26.279,15.047,26.02,15.057,25.746C15.108,25.492,15.28,25.278,15.517,25.171C15.861,24.942,16.436,24.827,16.666,25.056C16.896,25.286,18.39,25.631,18.965,25.286C19.539,24.942,19.195,25.056,19.195,24.942C19.195,24.827,19.08,24.367,19.08,24.137L19.08,24.137C18.965,22.068,18.85,19.424,19.424,17.93C19.914,16.94,20.575,16.045,21.378,15.287C21.997,14.673,22.742,14.203,23.562,13.907C24.636,13.383,25.815,13.108,27.01,13.103L27.585,13.103C28.779,13.119,29.955,13.394,31.033,13.907C31.839,14.23,32.579,14.698,33.217,15.287C34.021,16.019,34.649,16.922,35.056,17.93C35.746,19.424,35.516,22.068,35.401,24.137L35.401,24.137L35.401,24.597L35.401,24.597C35.401,24.778,35.486,24.948,35.631,25.056L36.32,25.056L37.7,24.597L38.734,24.597C39.156,24.647,39.488,24.979,39.539,25.401C39.539,25.516,39.539,25.631,39.309,25.976L38.159,26.551L37.7,26.551C36.918,26.65,36.212,27.065,35.746,27.7C35.605,28.208,35.688,28.752,35.976,29.194L35.976,29.194C36.32,29.999,38.389,33.907,42.527,34.596C42.672,34.705,42.757,34.875,42.757,35.056ZM42.757,35.861"/>
</g>
  <g id="Regular-S" transform="matrix(1.0,0.0,0.0,1.0,1423.5449252929686,633.1849448242187)">  <path fill="#000000" stroke-dasharray="none" data-name="Layer 2" stroke-width="1px" stroke-linecap="butt" stroke-miterlimit="4" stroke-opacity="1" fill-rule="nonzero" stroke="none" fill-opacity="1" stroke-linejoin="miter" d="M40.228,2.299L14.942,2.299C7.985,2.361,2.361,7.985,2.299,14.942L2.299,40.228C2.361,47.185,7.985,52.809,14.942,52.871L40.228,52.871C47.185,52.809,52.809,47.185,52.871,40.228L52.871,14.942C52.809,7.985,47.185,2.361,40.228,2.299ZM42.757,35.861C42.501,36.181,42.189,36.454,41.837,36.665L38.849,37.355L38.504,37.585C38.449,37.85,38.411,38.119,38.389,38.389L38.389,38.619C38.406,38.781,38.366,38.944,38.274,39.079C38.159,39.309,38.044,39.424,37.815,39.424L34.137,39.424C33.253,39.612,32.426,40.006,31.723,40.573C30.562,41.542,29.097,42.071,27.585,42.067L27.24,42.067C25.714,42.039,24.247,41.468,23.103,40.458C22.384,39.916,21.563,39.525,20.689,39.309L17.126,39.309C16.88,39.329,16.649,39.19,16.551,38.964C16.423,38.755,16.344,38.519,16.321,38.274L16.321,38.274C16.256,38.023,16.139,37.788,15.976,37.585C15.976,37.458,15.873,37.355,15.746,37.355C14.717,37.231,13.71,36.96,12.758,36.55C12.393,36.412,12.074,36.173,11.839,35.861L11.839,35.861L12.183,35.516C13.208,35.398,14.192,35.044,15.057,34.481C15.815,33.993,16.478,33.37,17.011,32.642C17.749,31.856,18.299,30.913,18.62,29.884L18.62,29.884C18.903,29.483,18.987,28.975,18.85,28.505C18.505,27.7,17.585,27.47,16.896,27.24L16.781,27.24L16.436,27.01C16.045,26.918,15.687,26.719,15.402,26.436C15.177,26.279,15.047,26.02,15.057,25.746C15.108,25.492,15.28,25.278,15.517,25.171C15.861,24.942,16.436,24.827,16.666,25.056C16.896,25.286,18.39,25.631,18.965,25.286C19.539,24.942,19.195,25.056,19.195,24.942C19.195,24.827,19.08,24.367,19.08,24.137L19.08,24.137C18.965,22.068,18.85,19.424,19.424,17.93C19.914,16.94,20.575,16.045,21.378,15.287C21.997,14.673,22.742,14.203,23.562,13.907C24.636,13.383,25.815,13.108,27.01,13.103L27.585,13.103C28.779,13.119,29.955,13.394,31.033,13.907C31.839,14.23,32.579,14.698,33.217,15.287C34.021,16.019,34.649,16.922,35.056,17.93C35.746,19.424,35.516,22.068,35.401,24.137L35.401,24.137L35.401,24.597L35.401,24.597C35.401,24.778,35.486,24.948,35.631,25.056L36.32,25.056L37.7,24.597L38.734,24.597C39.156,24.647,39.488,24.979,39.539,25.401C39.539,25.516,39.539,25.631,39.309,25.976L38.159,26.551L37.7,26.551C36.918,26.65,36.212,27.065,35.746,27.7C35.605,28.208,35.688,28.752,35.976,29.194L35.976,29.194C36.32,29.999,38.389,33.907,42.527,34.596C42.672,34.705,42.757,34.875,42.757,35.056ZM42.757,35.861"/>
</g>
  <g id="Light-S" transform="matrix(1.0,0.0,0.0,1.0,1126.8349252929688,633.1849448242187)">  <path stroke-width="1px" stroke-miterlimit="4" stroke-linecap="butt" stroke-dasharray="none" stroke="none" fill-rule="nonzero" stroke-linejoin="miter" fill-opacity="1" data-name="Layer 2" stroke-opacity="1" fill="#000000" d="M40.228,2.299L14.942,2.299C7.985,2.361,2.361,7.985,2.299,14.942L2.299,40.228C2.361,47.185,7.985,52.809,14.942,52.871L40.228,52.871C47.185,52.809,52.809,47.185,52.871,40.228L52.871,14.942C52.809,7.985,47.185,2.361,40.228,2.299ZM42.757,35.861C42.501,36.181,42.189,36.454,41.837,36.665L38.849,37.355L38.504,37.585C38.449,37.85,38.411,38.119,38.389,38.389L38.389,38.619C38.406,38.781,38.366,38.944,38.274,39.079C38.159,39.309,38.044,39.424,37.815,39.424L34.137,39.424C33.253,39.612,32.426,40.006,31.723,40.573C30.562,41.542,29.097,42.071,27.585,42.067L27.24,42.067C25.714,42.039,24.247,41.468,23.103,40.458C22.384,39.916,21.563,39.525,20.689,39.309L17.126,39.309C16.88,39.329,16.649,39.19,16.551,38.964C16.423,38.755,16.344,38.519,16.321,38.274L16.321,38.274C16.256,38.023,16.139,37.788,15.976,37.585C15.976,37.458,15.873,37.355,15.746,37.355C14.717,37.231,13.71,36.96,12.758,36.55C12.393,36.412,12.074,36.173,11.839,35.861L11.839,35.861L12.183,35.516C13.208,35.398,14.192,35.044,15.057,34.481C15.815,33.993,16.478,33.37,17.011,32.642C17.749,31.856,18.299,30.913,18.62,29.884L18.62,29.884C18.903,29.483,18.987,28.975,18.85,28.505C18.505,27.7,17.585,27.47,16.896,27.24L16.781,27.24L16.436,27.01C16.045,26.918,15.687,26.719,15.402,26.436C15.177,26.279,15.047,26.02,15.057,25.746C15.108,25.492,15.28,25.278,15.517,25.171C15.861,24.942,16.436,24.827,16.666,25.056C16.896,25.286,18.39,25.631,18.965,25.286C19.539,24.942,19.195,25.056,19.195,24.942C19.195,24.827,19.08,24.367,19.08,24.137L19.08,24.137C18.965,22.068,18.85,19.424,19.424,17.93C19.914,16.94,20.575,16.045,21.378,15.287C21.997,14.673,22.742,14.203,23.562,13.907C24.636,13.383,25.815,13.108,27.01,13.103L27.585,13.103C28.779,13.119,29.955,13.394,31.033,13.907C31.839,14.23,32.579,14.698,33.217,15.287C34.021,16.019,34.649,16.922,35.056,17.93C35.746,19.424,35.516,22.068,35.401,24.137L35.401,24.137L35.401,24.597L35.401,24.597C35.401,24.778,35.486,24.948,35.631,25.056L36.32,25.056L37.7,24.597L38.734,24.597C39.156,24.647,39.488,24.979,39.539,25.401C39.539,25.516,39.539,25.631,39.309,25.976L38.159,26.551L37.7,26.551C36.918,26.65,36.212,27.065,35.746,27.7C35.605,28.208,35.688,28.752,35.976,29.194L35.976,29.194C36.32,29.999,38.389,33.907,42.527,34.596C42.672,34.705,42.757,34.875,42.757,35.056ZM42.757,35.861"/>
</g>
  <g id="Thin-S" transform="matrix(1.0,0.0,0.0,1.0,830.1249252929688,633.1849448242187)">  <path data-name="Layer 2" stroke-linecap="butt" stroke="none" stroke-miterlimit="4" stroke-dasharray="none" stroke-opacity="1" fill-rule="nonzero" fill="#000000" stroke-linejoin="miter" fill-opacity="1" stroke-width="1px" d="M40.228,2.299L14.942,2.299C7.985,2.361,2.361,7.985,2.299,14.942L2.299,40.228C2.361,47.185,7.985,52.809,14.942,52.871L40.228,52.871C47.185,52.809,52.809,47.185,52.871,40.228L52.871,14.942C52.809,7.985,47.185,2.361,40.228,2.299ZM42.757,35.861C42.501,36.181,42.189,36.454,41.837,36.665L38.849,37.355L38.504,37.585C38.449,37.85,38.411,38.119,38.389,38.389L38.389,38.619C38.406,38.781,38.366,38.944,38.274,39.079C38.159,39.309,38.044,39.424,37.815,39.424L34.137,39.424C33.253,39.612,32.426,40.006,31.723,40.573C30.562,41.542,29.097,42.071,27.585,42.067L27.24,42.067C25.714,42.039,24.247,41.468,23.103,40.458C22.384,39.916,21.563,39.525,20.689,39.309L17.126,39.309C16.88,39.329,16.649,39.19,16.551,38.964C16.423,38.755,16.344,38.519,16.321,38.274L16.321,38.274C16.256,38.023,16.139,37.788,15.976,37.585C15.976,37.458,15.873,37.355,15.746,37.355C14.717,37.231,13.71,36.96,12.758,36.55C12.393,36.412,12.074,36.173,11.839,35.861L11.839,35.861L12.183,35.516C13.208,35.398,14.192,35.044,15.057,34.481C15.815,33.993,16.478,33.37,17.011,32.642C17.749,31.856,18.299,30.913,18.62,29.884L18.62,29.884C18.903,29.483,18.987,28.975,18.85,28.505C18.505,27.7,17.585,27.47,16.896,27.24L16.781,27.24L16.436,27.01C16.045,26.918,15.687,26.719,15.402,26.436C15.177,26.279,15.047,26.02,15.057,25.746C15.108,25.492,15.28,25.278,15.517,25.171C15.861,24.942,16.436,24.827,16.666,25.056C16.896,25.286,18.39,25.631,18.965,25.286C19.539,24.942,19.195,25.056,19.195,24.942C19.195,24.827,19.08,24.367,19.08,24.137L19.08,24.137C18.965,22.068,18.85,19.424,19.424,17.93C19.914,16.94,20.575,16.045,21.378,15.287C21.997,14.673,22.742,14.203,23.562,13.907C24.636,13.383,25.815,13.108,27.01,13.103L27.585,13.103C28.779,13.119,29.955,13.394,31.033,13.907C31.839,14.23,32.579,14.698,33.217,15.287C34.021,16.019,34.649,16.922,35.056,17.93C35.746,19.424,35.516,22.068,35.401,24.137L35.401,24.137L35.401,24.597L35.401,24.597C35.401,24.778,35.486,24.948,35.631,25.056L36.32,25.056L37.7,24.597L38.734,24.597C39.156,24.647,39.488,24.979,39.539,25.401C39.539,25.516,39.539,25.631,39.309,25.976L38.159,26.551L37.7,26.551C36.918,26.65,36.212,27.065,35.746,27.7C35.605,28.208,35.688,28.752,35.976,29.194L35.976,29.194C36.32,29.999,38.389,33.907,42.527,34.596C42.672,34.705,42.757,34.875,42.757,35.056ZM42.757,35.861"/>
</g>
  <g id="Ultralight-S" transform="matrix(1.0,0.0,0.0,1.0,533.4149252929687,633.1849448242187)">  <path stroke="none" fill="#000000" fill-rule="nonzero" stroke-width="1px" stroke-miterlimit="4" stroke-dasharray="none" stroke-linejoin="miter" stroke-linecap="butt" data-name="Layer 2" stroke-opacity="1" fill-opacity="1" d="M40.228,2.299L14.942,2.299C7.985,2.361,2.361,7.985,2.299,14.942L2.299,40.228C2.361,47.185,7.985,52.809,14.942,52.871L40.228,52.871C47.185,52.809,52.809,47.185,52.871,40.228L52.871,14.942C52.809,7.985,47.185,2.361,40.228,2.299ZM42.757,35.861C42.501,36.181,42.189,36.454,41.837,36.665L38.849,37.355L38.504,37.585C38.449,37.85,38.411,38.119,38.389,38.389L38.389,38.619C38.406,38.781,38.366,38.944,38.274,39.079C38.159,39.309,38.044,39.424,37.815,39.424L34.137,39.424C33.253,39.612,32.426,40.006,31.723,40.573C30.562,41.542,29.097,42.071,27.585,42.067L27.24,42.067C25.714,42.039,24.247,41.468,23.103,40.458C22.384,39.916,21.563,39.525,20.689,39.309L17.126,39.309C16.88,39.329,16.649,39.19,16.551,38.964C16.423,38.755,16.344,38.519,16.321,38.274L16.321,38.274C16.256,38.023,16.139,37.788,15.976,37.585C15.976,37.458,15.873,37.355,15.746,37.355C14.717,37.231,13.71,36.96,12.758,36.55C12.393,36.412,12.074,36.173,11.839,35.861L11.839,35.861L12.183,35.516C13.208,35.398,14.192,35.044,15.057,34.481C15.815,33.993,16.478,33.37,17.011,32.642C17.749,31.856,18.299,30.913,18.62,29.884L18.62,29.884C18.903,29.483,18.987,28.975,18.85,28.505C18.505,27.7,17.585,27.47,16.896,27.24L16.781,27.24L16.436,27.01C16.045,26.918,15.687,26.719,15.402,26.436C15.177,26.279,15.047,26.02,15.057,25.746C15.108,25.492,15.28,25.278,15.517,25.171C15.861,24.942,16.436,24.827,16.666,25.056C16.896,25.286,18.39,25.631,18.965,25.286C19.539,24.942,19.195,25.056,19.195,24.942C19.195,24.827,19.08,24.367,19.08,24.137L19.08,24.137C18.965,22.068,18.85,19.424,19.424,17.93C19.914,16.94,20.575,16.045,21.378,15.287C21.997,14.673,22.742,14.203,23.562,13.907C24.636,13.383,25.815,13.108,27.01,13.103L27.585,13.103C28.779,13.119,29.955,13.394,31.033,13.907C31.839,14.23,32.579,14.698,33.217,15.287C34.021,16.019,34.649,16.922,35.056,17.93C35.746,19.424,35.516,22.068,35.401,24.137L35.401,24.137L35.401,24.597L35.401,24.597C35.401,24.778,35.486,24.948,35.631,25.056L36.32,25.056L37.7,24.597L38.734,24.597C39.156,24.647,39.488,24.979,39.539,25.401C39.539,25.516,39.539,25.631,39.309,25.976L38.159,26.551L37.7,26.551C36.918,26.65,36.212,27.065,35.746,27.7C35.605,28.208,35.688,28.752,35.976,29.194L35.976,29.194C36.32,29.999,38.389,33.907,42.527,34.596C42.672,34.705,42.757,34.875,42.757,35.056ZM42.757,35.861"/>
</g>
 </g>
</svg>
