<?xml version="1.0" encoding="UTF-8"?>
<!-- Generator: CustomSymbols v2.7.2.48 by @serious_bret https://bretlester.com/app_content/CustomSymbols/ -->
<!-- Guides: Left/Right 0.004/-0.004 Cap/Base 0.0/0.0 -->
<!-- Settings: RefScale 1.0 Min/Max Stroke Scales 0.5/2.21 -->
<!DOCTYPE svg
PUBLIC "-//W3C//DTD SVG 1.1//EN"
       "http://www.w3.org/Graphics/SVG/1.1/DTD/svg11.dtd">
<svg version="1.1" xmlns="http://www.w3.org/2000/svg" xmlns:xlink="http://www.w3.org/1999/xlink" width="3300" height="2200">
<![CDATA[<?xml version="1.0" encoding="utf-8"?><!-- Uploaded to: SVG Repo, www.svgrepo.com, Generator: SVG Repo Mixer Tools -->
<svg width="800px" height="800px" viewBox="0 0 24 24" fill="none" xmlns="http://www.w3.org/2000/svg">
<path d="M16.65 7.2H16.66M8 20H16C18.2091 20 20 18.2091 20 16V8C20 5.79086 18.2091 4 16 4H8C5.79086 4 4 5.79086 4 8V16C4 18.2091 5.79086 20 8 20ZM15.75 12C15.75 14.0711 14.0711 15.75 12 15.75C9.92893 15.75 8.25 14.0711 8.25 12C8.25 9.92893 9.92893 8.25 12 8.25C14.0711 8.25 15.75 9.92893 15.75 12Z" stroke="#000000" stroke-width="2" stroke-linecap="round" stroke-linejoin="round"/>
</svg>]]>
 <g id="Notes">
  <rect height="2200" id="artboard" style="fill:white;opacity:1" width="3300" x="0" y="0"/>
  <line id="" style="fill:none;stroke:black;opacity:1;stroke-width:0.5;" x1="263" x2="3036" y1="292" y2="292"/>
  <text id="reftext1" style="stroke:none;fill:black;font-family:-apple-system,&quot;SF Pro Display&quot;,&quot;SF Pro Text&quot;,Helvetica,sans-serif;font-weight:bold;" transform="matrix(1 0 0 1 263 322)">Weight/Scale Variations</text>
  <text id="reftext2" style="stroke:none;fill:black;font-family:-apple-system,&quot;SF Pro Display&quot;,&quot;SF Pro Text&quot;,Helvetica,sans-serif;text-anchor:middle;" transform="matrix(1 0 0 1 559.711 322)">Ultralight</text>
  <text style="stroke:none;fill:black;font-family:-apple-system,&quot;SF Pro Display&quot;,&quot;SF Pro Text&quot;,Helvetica,sans-serif;text-anchor:middle;" transform="matrix(1 0 0 1 856.422 322)">Thin</text>
  <text style="stroke:none;fill:black;font-family:-apple-system,&quot;SF Pro Display&quot;,&quot;SF Pro Text&quot;,Helvetica,sans-serif;text-anchor:middle;" transform="matrix(1 0 0 1 1153.13 322)">Light</text>
  <text style="stroke:none;fill:black;font-family:-apple-system,&quot;SF Pro Display&quot;,&quot;SF Pro Text&quot;,Helvetica,sans-serif;text-anchor:middle;" transform="matrix(1 0 0 1 1449.84 322)">Regular</text>
  <text style="stroke:none;fill:black;font-family:-apple-system,&quot;SF Pro Display&quot;,&quot;SF Pro Text&quot;,Helvetica,sans-serif;text-anchor:middle;" transform="matrix(1 0 0 1 1746.56 322)">Medium</text>
  <text style="stroke:none;fill:black;font-family:-apple-system,&quot;SF Pro Display&quot;,&quot;SF Pro Text&quot;,Helvetica,sans-serif;text-anchor:middle;" transform="matrix(1 0 0 1 2043.27 322)">Semibold</text>
  <text style="stroke:none;fill:black;font-family:-apple-system,&quot;SF Pro Display&quot;,&quot;SF Pro Text&quot;,Helvetica,sans-serif;text-anchor:middle;" transform="matrix(1 0 0 1 2339.98 322)">Bold</text>
  <text style="stroke:none;fill:black;font-family:-apple-system,&quot;SF Pro Display&quot;,&quot;SF Pro Text&quot;,Helvetica,sans-serif;text-anchor:middle;" transform="matrix(1 0 0 1 2636.69 322)">Heavy</text>
  <text style="stroke:none;fill:black;font-family:-apple-system,&quot;SF Pro Display&quot;,&quot;SF Pro Text&quot;,Helvetica,sans-serif;text-anchor:middle;" transform="matrix(1 0 0 1 2933.4 322)">Black</text>
  <line id="" style="fill:none;stroke:black;opacity:1;stroke-width:0.5;" x1="263" x2="3036" y1="1903" y2="1903"/>
  <g id="" transform="matrix(1 0 0 1 263 1933)">
   <path d="M9.24805 0.830078C13.5547 0.830078 17.1387-2.74414 17.1387-7.05078C17.1387-11.3574 13.5449-14.9316 9.23828-14.9316C4.94141-14.9316 1.36719-11.3574 1.36719-7.05078C1.36719-2.74414 4.95117 0.830078 9.24805 0.830078ZM9.24805-0.654297C5.70312-0.654297 2.87109-3.49609 2.87109-7.05078C2.87109-10.6055 5.69336-13.4473 9.23828-13.4473C12.793-13.4473 15.6348-10.6055 15.6445-7.05078C15.6543-3.49609 12.8027-0.654297 9.24805-0.654297ZM6.39648-6.31836L8.50586-6.31836L8.50586-4.19922C8.50586-3.75977 8.79883-3.45703 9.22852-3.45703C9.67773-3.45703 9.9707-3.75977 9.9707-4.19922L9.9707-6.31836L12.0996-6.31836C12.5391-6.31836 12.8418-6.61133 12.8418-7.04102C12.8418-7.48047 12.5391-7.7832 12.0996-7.7832L9.9707-7.7832L9.9707-9.89258C9.9707-10.3418 9.67773-10.6445 9.22852-10.6445C8.79883-10.6445 8.50586-10.3418 8.50586-9.89258L8.50586-7.7832L6.39648-7.7832C5.94727-7.7832 5.64453-7.48047 5.64453-7.04102C5.64453-6.61133 5.94727-6.31836 6.39648-6.31836Z"/>
  </g>
  <g id="" transform="matrix(1 0 0 1 281.506 1933)">
   <path d="M11.709 2.91016C17.1582 2.91016 21.6699-1.61133 21.6699-7.05078C21.6699-12.5 17.1484-17.0117 11.6992-17.0117C6.25977-17.0117 1.74805-12.5 1.74805-7.05078C1.74805-1.61133 6.26953 2.91016 11.709 2.91016ZM11.709 1.25C7.09961 1.25 3.41797-2.44141 3.41797-7.05078C3.41797-11.6602 7.08984-15.3516 11.6992-15.3516C16.3086-15.3516 20-11.6602 20.0098-7.05078C20.0195-2.44141 16.3184 1.25 11.709 1.25ZM7.98828-6.23047L10.8789-6.23047L10.8789-3.32031C10.8789-2.83203 11.2109-2.5 11.6895-2.5C12.1777-2.5 12.5195-2.83203 12.5195-3.32031L12.5195-6.23047L15.4297-6.23047C15.918-6.23047 16.25-6.5625 16.25-7.04102C16.25-7.5293 15.918-7.87109 15.4297-7.87109L12.5195-7.87109L12.5195-10.7617C12.5195-11.2695 12.1777-11.6016 11.6895-11.6016C11.2109-11.6016 10.8789-11.2598 10.8789-10.7617L10.8789-7.87109L7.98828-7.87109C7.48047-7.87109 7.14844-7.5293 7.14844-7.04102C7.14844-6.5625 7.49023-6.23047 7.98828-6.23047Z"/>
  </g>
  <g id="" transform="matrix(1 0 0 1 304.924 1933)">
   <path d="M14.9707 5.66406C21.9336 5.66406 27.6953-0.0976562 27.6953-7.05078C27.6953-14.0137 21.9238-19.7754 14.9609-19.7754C8.00781-19.7754 2.25586-14.0137 2.25586-7.05078C2.25586-0.0976562 8.01758 5.66406 14.9707 5.66406ZM14.9707 3.84766C8.93555 3.84766 4.08203-1.01562 4.08203-7.05078C4.08203-13.0957 8.92578-17.9492 14.9609-17.9492C21.0059-17.9492 25.8594-13.0957 25.8691-7.05078C25.8789-1.01562 21.0156 3.84766 14.9707 3.84766ZM10.0586-6.14258L14.0625-6.14258L14.0625-2.12891C14.0625-1.5918 14.4336-1.2207 14.9512-1.2207C15.4883-1.2207 15.8594-1.5918 15.8594-2.12891L15.8594-6.14258L19.8828-6.14258C20.4102-6.14258 20.791-6.51367 20.791-7.03125C20.791-7.56836 20.4199-7.94922 19.8828-7.94922L15.8594-7.94922L15.8594-11.9531C15.8594-12.5098 15.4883-12.8809 14.9512-12.8809C14.4336-12.8809 14.0625-12.5 14.0625-11.9531L14.0625-7.94922L10.0586-7.94922C9.50195-7.94922 9.13086-7.56836 9.13086-7.03125C9.13086-6.51367 9.51172-6.14258 10.0586-6.14258Z"/>
  </g>
  <text style="stroke:none;fill:black;font-family:-apple-system,&quot;SF Pro Display&quot;,&quot;SF Pro Text&quot;,Helvetica,sans-serif;font-weight:bold;" transform="matrix(1 0 0 1 263 1953)">Design Variations</text>
  <text style="stroke:none;fill:black;font-family:-apple-system,&quot;SF Pro Display&quot;,&quot;SF Pro Text&quot;,Helvetica,sans-serif;" transform="matrix(1 0 0 1 263 1971)">Symbols are supported in up to nine weights and three scales.</text>
  <text style="stroke:none;fill:black;font-family:-apple-system,&quot;SF Pro Display&quot;,&quot;SF Pro Text&quot;,Helvetica,sans-serif;" transform="matrix(1 0 0 1 263 1989)">For optimal layout with text and other symbols, vertically align</text>
  <text style="stroke:none;fill:black;font-family:-apple-system,&quot;SF Pro Display&quot;,&quot;SF Pro Text&quot;,Helvetica,sans-serif;" transform="matrix(1 0 0 1 263 2007)">symbols with the adjacent text.</text>
  <line id="" style="fill:none;stroke:#00AEEF;stroke-width:0.5;opacity:1.0;" x1="776" x2="776" y1="1919" y2="1933"/>
  <g id="" transform="matrix(1 0 0 1 776 1933)">
   <path d="M3.31055 0.126953C3.82812 0.126953 4.08203-0.0683594 4.26758-0.605469L5.52734-4.0625L11.2891-4.0625L12.5488-0.605469C12.7344-0.0683594 12.9883 0.126953 13.4961 0.126953C14.0137 0.126953 14.3457-0.185547 14.3457-0.673828C14.3457-0.839844 14.3164-0.986328 14.2383-1.20117L9.6582-13.3887C9.43359-13.9941 9.0332-14.2871 8.4082-14.2871C7.80273-14.2871 7.39258-13.9941 7.17773-13.3984L2.59766-1.19141C2.51953-0.976562 2.49023-0.830078 2.49023-0.664062C2.49023-0.175781 2.80273 0.126953 3.31055 0.126953ZM6.00586-5.53711L8.37891-12.1094L8.42773-12.1094L10.8008-5.53711Z"/>
  </g>
  <line id="" style="fill:none;stroke:#00AEEF;stroke-width:0.5;opacity:1.0;" x1="792.836" x2="792.836" y1="1919" y2="1933"/>
  <text style="stroke:none;fill:black;font-family:-apple-system,&quot;SF Pro Display&quot;,&quot;SF Pro Text&quot;,Helvetica,sans-serif;font-weight:bold;" transform="matrix(1 0 0 1 776 1953)">Margins</text>
  <text style="stroke:none;fill:black;font-family:-apple-system,&quot;SF Pro Display&quot;,&quot;SF Pro Text&quot;,Helvetica,sans-serif;" transform="matrix(1 0 0 1 776 1971)">Leading and trailing margins on the left and right side of each symbol</text>
  <text style="stroke:none;fill:black;font-family:-apple-system,&quot;SF Pro Display&quot;,&quot;SF Pro Text&quot;,Helvetica,sans-serif;" transform="matrix(1 0 0 1 776 1989)">can be adjusted by modifying the x-location of the margin guidelines.</text>
  <text style="stroke:none;fill:black;font-family:-apple-system,&quot;SF Pro Display&quot;,&quot;SF Pro Text&quot;,Helvetica,sans-serif;" transform="matrix(1 0 0 1 776 2007)">Modifications are automatically applied proportionally to all</text>
  <text style="stroke:none;fill:black;font-family:-apple-system,&quot;SF Pro Display&quot;,&quot;SF Pro Text&quot;,Helvetica,sans-serif;" transform="matrix(1 0 0 1 776 2025)">scales and weights.</text>
  <g id="" transform="matrix(1 0 0 1 1289 1933)">
   <path d="M2.8418 1.86523L4.54102 3.57422C5.40039 4.44336 6.38672 4.38477 7.31445 3.35938L17.4902-7.85156C17.7539-7.76367 18.0273-7.7832 18.3398-7.8418L19.4043-8.03711L20.0684-7.36328L20.0293-6.80664C19.9902-6.30859 20.1172-5.92773 20.6055-5.44922L21.3672-4.70703C21.8457-4.22852 22.4609-4.19922 22.9297-4.66797L25.8398-7.58789C26.3086-8.05664 26.2891-8.65234 25.8105-9.13086L25.0391-9.89258C24.5605-10.3711 24.1895-10.5273 23.7109-10.4883L23.1348-10.4395L22.4902-11.0742L22.7344-12.1973C22.8613-12.7637 22.7051-13.2031 22.1191-13.7891L19.9219-15.9766C16.582-19.2969 12.1484-19.2188 9.25781-16.3281C8.83789-15.918 8.80859-15.3418 9.04297-14.9512C9.27734-14.5898 9.73633-14.3555 10.3809-14.5215C11.8457-14.8633 13.3691-14.9219 14.7949-13.9844L14.209-12.5293C14.0137-12.0508 13.9844-11.6504 14.1113-11.2891L3.04688-0.898438C2.06055 0.0195312 1.98242 0.996094 2.8418 1.86523ZM10.752-15.957C13.1836-17.7344 16.4746-17.4316 18.7012-15.2051L21.1328-12.793C21.3672-12.5586 21.4062-12.373 21.3379-12.0312L21.0156-10.5469L22.5195-9.0625L23.5059-9.12109C23.7598-9.13086 23.8379-9.11133 24.0332-8.91602L24.6094-8.33984L22.168-5.89844L21.5918-6.47461C21.3965-6.66992 21.3672-6.74805 21.377-7.01172L21.4453-7.98828L19.9512-9.47266L18.4277-9.21875C18.1055-9.15039 17.959-9.17969 17.7148-9.41406L15.7129-11.416C15.459-11.6504 15.4297-11.8164 15.5859-12.1875L16.4648-14.2773C14.9023-15.7324 12.8711-16.3574 10.8398-15.7617C10.6836-15.7227 10.625-15.8496 10.752-15.957ZM5.27344 2.30469L4.10156 1.14258C3.63281 0.683594 3.74023 0.341797 4.14062-0.0195312L14.9512-10.1953L16.416-8.71094L6.42578 2.27539C6.07422 2.67578 5.74219 2.77344 5.27344 2.30469Z"/>
  </g>
  <text style="stroke:none;fill:black;font-family:-apple-system,&quot;SF Pro Display&quot;,&quot;SF Pro Text&quot;,Helvetica,sans-serif;font-weight:bold;" transform="matrix(1 0 0 1 1289 1953)">Exporting</text>
  <text style="stroke:none;fill:black;font-family:-apple-system,&quot;SF Pro Display&quot;,&quot;SF Pro Text&quot;,Helvetica,sans-serif;" transform="matrix(1 0 0 1 1289 1971)">Symbols should be outlined when exporting to ensure the</text>
  <text style="stroke:none;fill:black;font-family:-apple-system,&quot;SF Pro Display&quot;,&quot;SF Pro Text&quot;,Helvetica,sans-serif;" transform="matrix(1 0 0 1 1289 1989)">design is preserved when submitting to Xcode.</text>
  <text id="template-version" style="stroke:none;fill:black;font-family:-apple-system,&quot;SF Pro Display&quot;,&quot;SF Pro Text&quot;,Helvetica,sans-serif;text-anchor:end;" transform="matrix(1 0 0 1 3036 1933)">Template v.2.0</text>
  <text style="stroke:none;fill:black;font-family:-apple-system,&quot;SF Pro Display&quot;,&quot;SF Pro Text&quot;,Helvetica,sans-serif;text-anchor:end;" transform="matrix(1 0 0 1 3036 1951)">Requires Xcode 12 or greater</text>
  <text style="stroke:none;fill:black;font-family:-apple-system,&quot;SF Pro Display&quot;,&quot;SF Pro Text&quot;,Helvetica,sans-serif;" transform="matrix(1 0 0 1 263 726)">Small</text>
  <text style="stroke:none;fill:black;font-family:-apple-system,&quot;SF Pro Display&quot;,&quot;SF Pro Text&quot;,Helvetica,sans-serif;" transform="matrix(1 0 0 1 263 1156)">Medium</text>
  <text style="stroke:none;fill:black;font-family:-apple-system,&quot;SF Pro Display&quot;,&quot;SF Pro Text&quot;,Helvetica,sans-serif;" transform="matrix(1 0 0 1 263 1586)">Large</text>
 </g>
 <g id="Guides">
  <g id="H-reference" style="fill:#27AAE1;stroke:none;" transform="matrix(1 0 0 1 339 696)">
   <path d="M0.976562 0L3.66211 0L12.9883-24.4629L45.752-24.4629L55.127 0L57.7637 0L30.6152-70.459L28.125-70.459ZM29.3457-67.1387L29.4434-67.1387L44.873-26.709L13.8672-26.709Z"/>
  </g>
  <line id="Baseline-S" style="fill:none;stroke:#27AAE1;opacity:1;stroke-width:0.5;" x1="263" x2="3036" y1="696" y2="696"/>
  <line id="Capline-S" style="fill:none;stroke:#27AAE1;opacity:1;stroke-width:0.5;" x1="263" x2="3036" y1="625.541" y2="625.541"/>
  <g id="H-reference" style="fill:#27AAE1;stroke:none;" transform="matrix(1 0 0 1 339 1126)">
   <path d="M0.976562 0L3.66211 0L12.9883-24.4629L45.752-24.4629L55.127 0L57.7637 0L30.6152-70.459L28.125-70.459ZM29.3457-67.1387L29.4434-67.1387L44.873-26.709L13.8672-26.709Z"/>
  </g>
  <line id="Baseline-M" style="fill:none;stroke:#27AAE1;opacity:1;stroke-width:0.5;" x1="263" x2="3036" y1="1126" y2="1126"/>
  <line id="Capline-M" style="fill:none;stroke:#27AAE1;opacity:1;stroke-width:0.5;" x1="263" x2="3036" y1="1055.54" y2="1055.54"/>
  <g id="H-reference" style="fill:#27AAE1;stroke:none;" transform="matrix(1 0 0 1 339 1556)">
   <path d="M0.976562 0L3.66211 0L12.9883-24.4629L45.752-24.4629L55.127 0L57.7637 0L30.6152-70.459L28.125-70.459ZM29.3457-67.1387L29.4434-67.1387L44.873-26.709L13.8672-26.709Z"/>
  </g>
  <line id="Baseline-L" style="fill:none;stroke:#27AAE1;opacity:1;stroke-width:0.5;" x1="263" x2="3036" y1="1556" y2="1556"/>
  <line id="Capline-L" style="fill:none;stroke:#27AAE1;opacity:1;stroke-width:0.5;" x1="263" x2="3036" y1="1485.54" y2="1485.54"/>
  <line id="left-margin" x1="1416.181859375" x2="1416.181859375" y1="1030.79" y2="1150.12" style="fill:none;stroke:#00AEEF;stroke-width:0.5;opacity:1.0;"/>
  <line id="right-margin" x1="1486.6418203125" x2="1486.6418203125" y1="1030.79" y2="1150.12" style="fill:none;stroke:#00AEEF;stroke-width:0.5;opacity:1.0;"/>
 </g>
 <g id="Symbols">
  <g id="Black-L" transform="matrix(1.0,0.0,0.0,1.0,2889.2333251953123,1475.3233447265625)">  <path stroke-width="2px" fill-rule="nonzero" fill="#000000" fill-opacity="1" stroke-opacity="1" stroke-linejoin="round" stroke-dasharray="none" stroke="none" stroke-miterlimit="4" stroke-linecap="round" d="M63.057,35.638L63.095,35.638C67.718,35.638,71.465,31.89,71.465,27.268C71.465,22.646,67.718,18.898,63.095,18.898L63.057,18.898C58.435,18.898,54.687,22.646,54.687,27.268C54.687,31.89,58.435,35.638,63.057,35.638ZM30.298,84.114L60.596,84.114C73.584,84.114,84.114,73.584,84.114,60.596L84.114,30.298C84.114,17.309,73.584,6.779,60.596,6.779L30.298,6.779C17.309,6.779,6.779,17.309,6.779,30.298L6.779,60.596C6.779,73.584,17.309,84.114,30.298,84.114ZM30.298,67.375C26.554,67.375,23.519,64.339,23.519,60.596L23.519,30.298C23.519,26.554,26.554,23.519,30.298,23.519L60.596,23.519C64.339,23.519,67.375,26.554,67.375,30.298L67.375,60.596C67.375,64.339,64.339,67.375,60.596,67.375L30.298,67.375ZM51.279,45.447C51.279,48.668,48.668,51.279,45.447,51.279C42.226,51.279,39.614,48.668,39.614,45.447C39.614,42.226,42.226,39.614,45.447,39.614C48.668,39.614,51.279,42.226,51.279,45.447ZM68.019,45.447C68.019,32.981,57.913,22.875,45.447,22.875C32.981,22.875,22.875,32.981,22.875,45.447C22.875,57.913,32.981,68.019,45.447,68.019C57.913,68.019,68.019,57.913,68.019,45.447Z"/>
</g>
  <g id="Heavy-L" transform="matrix(1.0,0.0,0.0,1.0,2592.5233251953123,1475.3233447265625)">  <path stroke-width="2px" fill="#000000" stroke="none" stroke-opacity="1" stroke-dasharray="none" stroke-miterlimit="4" fill-rule="nonzero" stroke-linecap="round" fill-opacity="1" stroke-linejoin="round" d="M63.057,34.721L63.095,34.721C67.211,34.721,70.548,31.384,70.548,27.268C70.548,23.152,67.211,19.815,63.095,19.815L63.057,19.815C58.941,19.815,55.604,23.152,55.604,27.268C55.604,31.384,58.941,34.721,63.057,34.721ZM30.298,83.198L60.596,83.198C73.078,83.198,83.198,73.078,83.198,60.596L83.198,30.298C83.198,17.815,73.078,7.696,60.596,7.696L30.298,7.696C17.815,7.696,7.696,17.815,7.696,30.298L7.696,60.596C7.696,73.078,17.815,83.198,30.298,83.198ZM30.298,68.291C26.048,68.291,22.602,64.846,22.602,60.596L22.602,30.298C22.602,26.048,26.048,22.602,30.298,22.602L60.596,22.602C64.846,22.602,68.291,26.048,68.291,30.298L68.291,60.596C68.291,64.846,64.846,68.291,60.596,68.291L30.298,68.291ZM52.196,45.447C52.196,49.174,49.174,52.196,45.447,52.196C41.719,52.196,38.698,49.174,38.698,45.447C38.698,41.719,41.719,38.698,45.447,38.698C49.174,38.698,52.196,41.719,52.196,45.447ZM67.102,45.447C67.102,33.487,57.407,23.791,45.447,23.791C33.487,23.791,23.791,33.487,23.791,45.447C23.791,57.407,33.487,67.102,45.447,67.102C57.407,67.102,67.102,57.407,67.102,45.447Z"/>
</g>
  <g id="Bold-L" transform="matrix(1.0,0.0,0.0,1.0,2295.8133251953122,1475.3233447265625)">  <path stroke-opacity="1" stroke-width="2px" fill-rule="nonzero" stroke-miterlimit="4" fill-opacity="1" stroke-linecap="round" fill="#000000" stroke-linejoin="round" stroke="none" stroke-dasharray="none" d="M63.057,33.805L63.095,33.805C66.705,33.805,69.632,30.878,69.632,27.268C69.632,23.658,66.705,20.731,63.095,20.731L63.057,20.731C59.447,20.731,56.521,23.658,56.521,27.268C56.521,30.878,59.447,33.805,63.057,33.805ZM30.298,82.281L60.596,82.281C72.572,82.281,82.281,72.572,82.281,60.596L82.281,30.298C82.281,18.321,72.572,8.612,60.596,8.612L30.298,8.612C18.321,8.612,8.612,18.321,8.612,30.298L8.612,60.596C8.612,72.572,18.321,82.281,30.298,82.281ZM30.298,69.208C25.541,69.208,21.686,65.352,21.686,60.596L21.686,30.298C21.686,25.541,25.541,21.686,30.298,21.686L60.596,21.686C65.352,21.686,69.208,25.541,69.208,30.298L69.208,60.596C69.208,65.352,65.352,69.208,60.596,69.208L30.298,69.208ZM53.112,45.447C53.112,49.68,49.68,53.112,45.447,53.112C41.213,53.112,37.781,49.68,37.781,45.447C37.781,41.213,41.213,37.781,45.447,37.781C49.68,37.781,53.112,41.213,53.112,45.447ZM66.186,45.447C66.186,33.993,56.901,24.708,45.447,24.708C33.993,24.708,24.708,33.993,24.708,45.447C24.708,56.901,33.993,66.186,45.447,66.186C56.901,66.186,66.186,56.901,66.186,45.447Z"/>
</g>
  <g id="Semibold-L" transform="matrix(1.0,0.0,0.0,1.0,1999.1033251953124,1475.3233447265625)">  <path stroke-miterlimit="4" stroke-width="2px" stroke="none" stroke-linejoin="round" fill-rule="nonzero" fill="#000000" stroke-dasharray="none" stroke-opacity="1" fill-opacity="1" stroke-linecap="round" d="M63.057,32.888L63.095,32.888C66.199,32.888,68.715,30.372,68.715,27.268C68.715,24.164,66.199,21.648,63.095,21.648L63.057,21.648C59.953,21.648,57.437,24.164,57.437,27.268C57.437,30.372,59.953,32.888,63.057,32.888ZM30.298,81.365L60.596,81.365C72.066,81.365,81.365,72.066,81.365,60.596L81.365,30.298C81.365,18.827,72.066,9.529,60.596,9.529L30.298,9.529C18.827,9.529,9.529,18.827,9.529,30.298L9.529,60.596C9.529,72.066,18.827,81.365,30.298,81.365ZM30.298,70.124C25.035,70.124,20.769,65.858,20.769,60.596L20.769,30.298C20.769,25.035,25.035,20.769,30.298,20.769L60.596,20.769C65.858,20.769,70.124,25.035,70.124,30.298L70.124,60.596C70.124,65.858,65.858,70.124,60.596,70.124L30.298,70.124ZM54.029,45.447C54.029,50.186,50.186,54.029,45.447,54.029C40.707,54.029,36.865,50.186,36.865,45.447C36.865,40.707,40.707,36.865,45.447,36.865C50.186,36.865,54.029,40.707,54.029,45.447ZM65.269,45.447C65.269,34.499,56.394,25.624,45.447,25.624C34.499,25.624,25.624,34.499,25.624,45.447C25.624,56.394,34.499,65.269,45.447,65.269C56.394,65.269,65.269,56.394,65.269,45.447Z"/>
</g>
  <g id="Medium-L" transform="matrix(1.0,0.0,0.0,1.0,1702.3933251953124,1475.3233447265625)">  <path stroke="none" stroke-linecap="round" stroke-linejoin="round" fill="#000000" stroke-opacity="1" stroke-miterlimit="4" fill-rule="nonzero" fill-opacity="1" stroke-dasharray="none" stroke-width="2px" d="M63.057,31.972L63.095,31.972C65.693,31.972,67.799,29.866,67.799,27.268C67.799,24.67,65.693,22.564,63.095,22.564L63.057,22.564C60.459,22.564,58.354,24.67,58.354,27.268C58.354,29.866,60.459,31.972,63.057,31.972ZM30.298,80.448L60.596,80.448C71.56,80.448,80.448,71.56,80.448,60.596L80.448,30.298C80.448,19.334,71.56,10.445,60.596,10.445L30.298,10.445C19.333,10.445,10.445,19.333,10.445,30.298L10.445,60.596C10.445,71.56,19.334,80.448,30.298,80.448ZM30.298,71.041C24.529,71.041,19.853,66.364,19.853,60.596L19.853,30.298C19.853,24.529,24.529,19.853,30.298,19.853L60.596,19.853C66.364,19.853,71.041,24.529,71.041,30.298L71.041,60.596C71.041,66.364,66.364,71.041,60.596,71.041L30.298,71.041ZM54.945,45.447C54.945,50.693,50.693,54.945,45.447,54.945C40.201,54.945,35.948,50.693,35.948,45.447C35.948,40.201,40.201,35.948,45.447,35.948C50.693,35.948,54.945,40.201,54.945,45.447ZM64.352,45.447C64.352,35.005,55.888,26.541,45.447,26.541C35.005,26.541,26.541,35.005,26.541,45.447C26.541,55.888,35.005,64.352,45.447,64.352C55.888,64.352,64.352,55.888,64.352,45.447Z"/>
</g>
  <g id="Regular-L" transform="matrix(1.0,0.0,0.0,1.0,1405.6833251953124,1475.3233447265625)">  <path stroke-linecap="round" fill-opacity="1" fill-rule="nonzero" stroke-miterlimit="4" stroke-linejoin="round" stroke-width="2px" stroke-opacity="1" stroke-dasharray="none" fill="#000000" stroke="none" d="M63.057,31.055L63.095,31.055C65.187,31.055,66.882,29.36,66.882,27.268C66.882,25.176,65.187,23.481,63.095,23.481L63.057,23.481C60.966,23.481,59.27,25.176,59.27,27.268C59.27,29.36,60.966,31.055,63.057,31.055ZM30.298,79.532L60.596,79.532C71.054,79.532,79.532,71.054,79.532,60.596L79.532,30.298C79.532,19.84,71.054,11.362,60.596,11.362L30.298,11.362C19.84,11.362,11.362,19.84,11.362,30.298L11.362,60.596C11.362,71.054,19.84,79.532,30.298,79.532ZM30.298,71.957C24.023,71.957,18.936,66.87,18.936,60.596L18.936,30.298C18.936,24.023,24.023,18.936,30.298,18.936L60.596,18.936C66.87,18.936,71.957,24.023,71.957,30.298L71.957,60.596C71.957,66.87,66.87,71.957,60.596,71.957L30.298,71.957ZM55.862,45.447C55.862,51.199,51.199,55.862,45.447,55.862C39.695,55.862,35.032,51.199,35.032,45.447C35.032,39.695,39.695,35.032,45.447,35.032C51.199,35.032,55.862,39.695,55.862,45.447ZM63.436,45.447C63.436,35.511,55.382,27.457,45.447,27.457C35.511,27.457,27.457,35.511,27.457,45.447C27.457,55.382,35.511,63.436,45.447,63.436C55.382,63.436,63.436,55.382,63.436,45.447Z"/>
</g>
  <g id="Light-L" transform="matrix(1.0,0.0,0.0,1.0,1108.9733251953126,1475.3233447265625)">  <path stroke-linejoin="round" fill-rule="nonzero" fill-opacity="1" stroke="none" stroke-linecap="round" stroke-opacity="1" stroke-dasharray="none" stroke-width="2px" stroke-miterlimit="4" fill="#000000" d="M63.057,30.424L63.095,30.424C64.838,30.424,66.251,29.011,66.251,27.268C66.251,25.525,64.838,24.112,63.095,24.112L63.057,24.112C61.314,24.112,59.901,25.525,59.901,27.268C59.901,29.011,61.314,30.424,63.057,30.424ZM30.298,78.9L60.596,78.9C70.705,78.9,78.9,70.705,78.9,60.596L78.9,30.298C78.9,20.188,70.705,11.993,60.596,11.993L30.298,11.993C20.188,11.993,11.993,20.188,11.993,30.298L11.993,60.596C11.993,70.705,20.188,78.9,30.298,78.9ZM30.298,72.588C23.674,72.588,18.305,67.219,18.305,60.596L18.305,30.298C18.305,23.674,23.674,18.305,30.298,18.305L60.596,18.305C67.219,18.305,72.588,23.674,72.588,30.298L72.588,60.596C72.588,67.219,67.219,72.588,60.596,72.588L30.298,72.588ZM56.493,45.447C56.493,51.547,51.547,56.493,45.447,56.493C39.346,56.493,34.401,51.547,34.401,45.447C34.401,39.346,39.346,34.401,45.447,34.401C51.547,34.401,56.493,39.346,56.493,45.447ZM62.805,45.447C62.805,35.86,55.033,28.089,45.447,28.089C35.86,28.089,28.089,35.86,28.089,45.447C28.089,55.033,35.86,62.805,45.447,62.805C55.033,62.805,62.805,55.033,62.805,45.447Z"/>
</g>
  <g id="Thin-L" transform="matrix(1.0,0.0,0.0,1.0,812.2633251953125,1475.3233447265625)">  <path stroke-opacity="1" stroke-linecap="round" fill="#000000" fill-rule="nonzero" stroke-linejoin="round" stroke-width="2px" stroke-dasharray="none" fill-opacity="1" stroke="none" stroke-miterlimit="4" d="M63.057,29.793L63.095,29.793C64.49,29.793,65.62,28.662,65.62,27.268C65.62,25.874,64.49,24.743,63.095,24.743L63.057,24.743C61.663,24.743,60.532,25.874,60.532,27.268C60.532,28.662,61.663,29.793,63.057,29.793ZM30.298,78.269L60.596,78.269C70.356,78.269,78.269,70.356,78.269,60.596L78.269,30.298C78.269,20.537,70.356,12.624,60.596,12.624L30.298,12.624C20.537,12.624,12.624,20.537,12.624,30.298L12.624,60.596C12.624,70.356,20.537,78.269,30.298,78.269ZM30.298,73.22C23.326,73.22,17.674,67.568,17.674,60.596L17.674,30.298C17.674,23.326,23.326,17.674,30.298,17.674L60.596,17.674C67.568,17.674,73.22,23.326,73.22,30.298L73.22,60.596C73.22,67.568,67.568,73.22,60.596,73.22L30.298,73.22ZM57.124,45.447C57.124,51.896,51.896,57.124,45.447,57.124C38.997,57.124,33.769,51.896,33.769,45.447C33.769,38.997,38.997,33.769,45.447,33.769C51.896,33.769,57.124,38.997,57.124,45.447ZM62.174,45.447C62.174,36.209,54.685,28.72,45.447,28.72C36.209,28.72,28.72,36.209,28.72,45.447C28.72,54.685,36.209,62.174,45.447,62.174C54.685,62.174,62.174,54.685,62.174,45.447Z"/>
</g>
  <g id="Ultralight-L" transform="matrix(1.0,0.0,0.0,1.0,515.5533251953125,1475.3233447265625)">  <path stroke-opacity="1" stroke-dasharray="none" stroke-linejoin="round" fill="#000000" fill-opacity="1" stroke-miterlimit="4" fill-rule="nonzero" stroke="none" stroke-width="2px" stroke-linecap="round" d="M63.057,29.162L63.095,29.162C64.141,29.162,64.989,28.314,64.989,27.268C64.989,26.222,64.141,25.374,63.095,25.374L63.057,25.374C62.011,25.374,61.164,26.222,61.164,27.268C61.164,28.314,62.011,29.162,63.057,29.162ZM30.298,77.638L60.596,77.638C70.008,77.638,77.638,70.008,77.638,60.596L77.638,30.298C77.638,20.886,70.008,13.255,60.596,13.255L30.298,13.255C20.885,13.255,13.255,20.885,13.255,30.298L13.255,60.596C13.255,70.008,20.886,77.638,30.298,77.638ZM30.298,73.851C22.977,73.851,17.043,67.916,17.043,60.596L17.043,30.298C17.043,22.977,22.977,17.043,30.298,17.043L60.596,17.043C67.916,17.043,73.851,22.977,73.851,30.298L73.851,60.596C73.851,67.916,67.916,73.851,60.596,73.851L30.298,73.851ZM57.755,45.447C57.755,52.245,52.245,57.755,45.447,57.755C38.649,57.755,33.138,52.245,33.138,45.447C33.138,38.649,38.649,33.138,45.447,33.138C52.245,33.138,57.755,38.649,57.755,45.447ZM61.542,45.447C61.542,36.557,54.336,29.351,45.447,29.351C36.557,29.351,29.351,36.557,29.351,45.447C29.351,54.336,36.557,61.542,45.447,61.542C54.336,61.542,61.542,54.336,61.542,45.447Z"/>
</g>
  <g id="Black-M" transform="matrix(1.0,0.0,0.0,1.0,2899.45001953125,1055.5400390625)">  <path stroke-width="2px" fill-rule="nonzero" fill="#000000" fill-opacity="1" stroke-opacity="1" stroke-linejoin="round" stroke-dasharray="none" stroke="none" stroke-miterlimit="4" stroke-linecap="round" d="M48.882,27.626L48.911,27.626C52.494,27.626,55.399,24.721,55.399,21.138C55.399,17.555,52.494,14.65,48.911,14.65L48.882,14.65C45.298,14.65,42.393,17.555,42.393,21.138C42.393,24.721,45.298,27.626,48.882,27.626ZM23.487,65.205L46.973,65.205C57.042,65.205,65.205,57.042,65.205,46.973L65.205,23.487C65.205,13.418,57.042,5.255,46.973,5.255L23.487,5.255C13.418,5.255,5.255,13.418,5.255,23.487L5.255,46.973C5.255,57.042,13.418,65.205,23.487,65.205ZM23.487,52.228C20.584,52.228,18.232,49.876,18.232,46.973L18.232,23.487C18.232,20.584,20.584,18.232,23.487,18.232L46.973,18.232C49.876,18.232,52.228,20.584,52.228,23.487L52.228,46.973C52.228,49.876,49.876,52.228,46.973,52.228L23.487,52.228ZM39.751,35.23C39.751,37.727,37.727,39.751,35.23,39.751C32.733,39.751,30.709,37.727,30.709,35.23C30.709,32.733,32.733,30.709,35.23,30.709C37.727,30.709,39.751,32.733,39.751,35.23ZM52.728,35.23C52.728,25.566,44.894,17.732,35.23,17.732C25.566,17.732,17.732,25.566,17.732,35.23C17.732,44.894,25.566,52.728,35.23,52.728C44.894,52.728,52.728,44.894,52.728,35.23Z"/>
</g>
  <g id="Heavy-M" transform="matrix(1.0,0.0,0.0,1.0,2602.74001953125,1055.5400390625)">  <path stroke-width="2px" fill="#000000" stroke="none" stroke-opacity="1" stroke-dasharray="none" stroke-miterlimit="4" fill-rule="nonzero" stroke-linecap="round" fill-opacity="1" stroke-linejoin="round" d="M48.882,26.916L48.911,26.916C52.102,26.916,54.689,24.329,54.689,21.138C54.689,17.947,52.102,15.36,48.911,15.36L48.882,15.36C45.691,15.36,43.104,17.947,43.104,21.138C43.104,24.329,45.691,26.916,48.882,26.916ZM23.487,64.494L46.973,64.494C56.65,64.494,64.494,56.65,64.494,46.973L64.494,23.487C64.494,13.81,56.65,5.966,46.973,5.966L23.487,5.966C13.81,5.966,5.966,13.81,5.966,23.487L5.966,46.973C5.966,56.65,13.81,64.494,23.487,64.494ZM23.487,52.939C20.192,52.939,17.521,50.268,17.521,46.973L17.521,23.487C17.521,20.192,20.192,17.521,23.487,17.521L46.973,17.521C50.268,17.521,52.939,20.192,52.939,23.487L52.939,46.973C52.939,50.268,50.268,52.939,46.973,52.939L23.487,52.939ZM40.462,35.23C40.462,38.119,38.119,40.462,35.23,40.462C32.341,40.462,29.998,38.119,29.998,35.23C29.998,32.341,32.341,29.998,35.23,29.998C38.119,29.998,40.462,32.341,40.462,35.23ZM52.017,35.23C52.017,25.959,44.501,18.443,35.23,18.443C25.959,18.443,18.443,25.959,18.443,35.23C18.443,44.501,25.959,52.017,35.23,52.017C44.501,52.017,52.017,44.501,52.017,35.23Z"/>
</g>
  <g id="Bold-M" transform="matrix(1.0,0.0,0.0,1.0,2306.0300195312498,1055.5400390625)">  <path stroke-opacity="1" stroke-width="2px" fill-rule="nonzero" stroke-miterlimit="4" fill-opacity="1" stroke-linecap="round" fill="#000000" stroke-linejoin="round" stroke="none" stroke-dasharray="none" d="M48.882,26.205L48.911,26.205C51.71,26.205,53.978,23.937,53.978,21.138C53.978,18.339,51.71,16.071,48.911,16.071L48.882,16.071C46.083,16.071,43.814,18.339,43.814,21.138C43.814,23.937,46.083,26.205,48.882,26.205ZM23.487,63.784L46.973,63.784C56.257,63.784,63.784,56.257,63.784,46.973L63.784,23.487C63.784,14.202,56.257,6.676,46.973,6.676L23.487,6.676C14.202,6.676,6.676,14.202,6.676,23.487L6.676,46.973C6.676,56.257,14.202,63.784,23.487,63.784ZM23.487,53.649C19.8,53.649,16.811,50.66,16.811,46.973L16.811,23.487C16.811,19.8,19.8,16.811,23.487,16.811L46.973,16.811C50.66,16.811,53.649,19.8,53.649,23.487L53.649,46.973C53.649,50.66,50.66,53.649,46.973,53.649L23.487,53.649ZM41.172,35.23C41.172,38.512,38.512,41.172,35.23,41.172C31.948,41.172,29.288,38.512,29.288,35.23C29.288,31.948,31.948,29.288,35.23,29.288C38.512,29.288,41.172,31.948,41.172,35.23ZM51.307,35.23C51.307,26.351,44.109,19.153,35.23,19.153C26.351,19.153,19.153,26.351,19.153,35.23C19.153,44.109,26.351,51.307,35.23,51.307C44.109,51.307,51.307,44.109,51.307,35.23Z"/>
</g>
  <g id="Semibold-M" transform="matrix(1.0,0.0,0.0,1.0,2009.32001953125,1055.5400390625)">  <path stroke-miterlimit="4" stroke-width="2px" stroke="none" stroke-linejoin="round" fill-rule="nonzero" fill="#000000" stroke-dasharray="none" stroke-opacity="1" fill-opacity="1" stroke-linecap="round" d="M48.882,25.495L48.911,25.495C51.317,25.495,53.268,23.544,53.268,21.138C53.268,18.732,51.317,16.781,48.911,16.781L48.882,16.781C46.475,16.781,44.525,18.732,44.525,21.138C44.525,23.544,46.475,25.495,48.882,25.495ZM23.487,63.073L46.973,63.073C55.865,63.073,63.073,55.865,63.073,46.973L63.073,23.487C63.073,14.595,55.865,7.387,46.973,7.387L23.487,7.387C14.595,7.387,7.387,14.595,7.387,23.487L7.387,46.973C7.387,55.865,14.595,63.073,23.487,63.073ZM23.487,54.36C19.407,54.36,16.1,51.053,16.1,46.973L16.1,23.487C16.1,19.407,19.407,16.1,23.487,16.1L46.973,16.1C51.053,16.1,54.36,19.407,54.36,23.487L54.36,46.973C54.36,51.053,51.053,54.36,46.973,54.36L23.487,54.36ZM41.883,35.23C41.883,38.904,38.904,41.883,35.23,41.883C31.556,41.883,28.577,38.904,28.577,35.23C28.577,31.556,31.556,28.577,35.23,28.577C38.904,28.577,41.883,31.556,41.883,35.23ZM50.596,35.23C50.596,26.743,43.717,19.864,35.23,19.864C26.743,19.864,19.864,26.743,19.864,35.23C19.864,43.717,26.743,50.596,35.23,50.596C43.717,50.596,50.596,43.717,50.596,35.23Z"/>
</g>
  <g id="Medium-M" transform="matrix(1.0,0.0,0.0,1.0,1712.61001953125,1055.5400390625)">  <path stroke="none" stroke-linecap="round" stroke-linejoin="round" fill="#000000" stroke-opacity="1" stroke-miterlimit="4" fill-rule="nonzero" fill-opacity="1" stroke-dasharray="none" stroke-width="2px" d="M48.882,24.784L48.911,24.784C50.925,24.784,52.557,23.152,52.557,21.138C52.557,19.124,50.925,17.492,48.911,17.492L48.882,17.492C46.868,17.492,45.235,19.124,45.235,21.138C45.235,23.152,46.868,24.784,48.882,24.784ZM23.487,62.363L46.973,62.363C55.473,62.363,62.363,55.473,62.363,46.973L62.363,23.487C62.363,14.987,55.473,8.097,46.973,8.097L23.487,8.097C14.987,8.097,8.097,14.987,8.097,23.487L8.097,46.973C8.097,55.473,14.987,62.363,23.487,62.363ZM23.487,55.07C19.015,55.07,15.39,51.445,15.39,46.973L15.39,23.487C15.39,19.015,19.015,15.39,23.487,15.39L46.973,15.39C51.445,15.39,55.07,19.015,55.07,23.487L55.07,46.973C55.07,51.445,51.445,55.07,46.973,55.07L23.487,55.07ZM42.593,35.23C42.593,39.297,39.297,42.593,35.23,42.593C31.163,42.593,27.867,39.297,27.867,35.23C27.867,31.163,31.163,27.867,35.23,27.867C39.297,27.867,42.593,31.163,42.593,35.23ZM49.886,35.23C49.886,27.136,43.324,20.574,35.23,20.574C27.136,20.574,20.574,27.136,20.574,35.23C20.574,43.324,27.136,49.886,35.23,49.886C43.324,49.886,49.886,43.324,49.886,35.23Z"/>
</g>
  <g id="Regular-M" transform="matrix(1.0,0.0,0.0,1.0,1415.9000195312499,1055.5400390625)">  <path stroke-linecap="round" fill-opacity="1" fill-rule="nonzero" stroke-miterlimit="4" stroke-linejoin="round" stroke-width="2px" stroke-opacity="1" stroke-dasharray="none" fill="#000000" stroke="none" d="M48.882,24.074L48.911,24.074C50.532,24.074,51.847,22.759,51.847,21.138C51.847,19.517,50.532,18.202,48.911,18.202L48.882,18.202C47.26,18.202,45.946,19.517,45.946,21.138C45.946,22.759,47.26,24.074,48.882,24.074ZM23.487,61.652L46.973,61.652C55.08,61.652,61.652,55.08,61.652,46.973L61.652,23.487C61.652,15.38,55.08,8.807,46.973,8.807L23.487,8.807C15.38,8.807,8.807,15.38,8.807,23.487L8.807,46.973C8.807,55.08,15.38,61.652,23.487,61.652ZM23.487,55.781C18.622,55.781,14.679,51.837,14.679,46.973L14.679,23.487C14.679,18.622,18.622,14.679,23.487,14.679L46.973,14.679C51.837,14.679,55.781,18.622,55.781,23.487L55.781,46.973C55.781,51.837,51.837,55.781,46.973,55.781L23.487,55.781ZM43.304,35.23C43.304,39.689,39.689,43.304,35.23,43.304C30.771,43.304,27.156,39.689,27.156,35.23C27.156,30.771,30.771,27.156,35.23,27.156C39.689,27.156,43.304,30.771,43.304,35.23ZM49.175,35.23C49.175,27.528,42.932,21.285,35.23,21.285C27.528,21.285,21.285,27.528,21.285,35.23C21.285,42.932,27.528,49.175,35.23,49.175C42.932,49.175,49.175,42.932,49.175,35.23Z"/>
</g>
  <g id="Light-M" transform="matrix(1.0,0.0,0.0,1.0,1119.19001953125,1055.5400390625)">  <path stroke-linejoin="round" fill-rule="nonzero" fill-opacity="1" stroke="none" stroke-linecap="round" stroke-opacity="1" stroke-dasharray="none" stroke-width="2px" stroke-miterlimit="4" fill="#000000" d="M48.882,23.585L48.911,23.585C50.262,23.585,51.357,22.489,51.357,21.138C51.357,19.787,50.262,18.691,48.911,18.691L48.882,18.691C47.53,18.691,46.435,19.787,46.435,21.138C46.435,22.489,47.53,23.585,48.882,23.585ZM23.487,61.163L46.973,61.163C54.81,61.163,61.163,54.81,61.163,46.973L61.163,23.487C61.163,15.65,54.81,9.297,46.973,9.297L23.487,9.297C15.65,9.297,9.297,15.65,9.297,23.487L9.297,46.973C9.297,54.81,15.65,61.163,23.487,61.163ZM23.487,56.27C18.352,56.27,14.19,52.108,14.19,46.973L14.19,23.487C14.19,18.352,18.352,14.19,23.487,14.19L46.973,14.19C52.108,14.19,56.27,18.352,56.27,23.487L56.27,46.973C56.27,52.108,52.108,56.27,46.973,56.27L23.487,56.27ZM43.793,35.23C43.793,39.959,39.959,43.793,35.23,43.793C30.501,43.793,26.667,39.959,26.667,35.23C26.667,30.501,30.501,26.667,35.23,26.667C39.959,26.667,43.793,30.501,43.793,35.23ZM48.686,35.23C48.686,27.798,42.662,21.774,35.23,21.774C27.798,21.774,21.774,27.798,21.774,35.23C21.774,42.662,27.798,48.686,35.23,48.686C42.662,48.686,48.686,42.662,48.686,35.23Z"/>
</g>
  <g id="Thin-M" transform="matrix(1.0,0.0,0.0,1.0,822.48001953125,1055.5400390625)">  <path stroke-opacity="1" stroke-linecap="round" fill="#000000" fill-rule="nonzero" stroke-linejoin="round" stroke-width="2px" stroke-dasharray="none" fill-opacity="1" stroke="none" stroke-miterlimit="4" d="M48.882,23.095L48.911,23.095C49.992,23.095,50.868,22.219,50.868,21.138C50.868,20.057,49.992,19.181,48.911,19.181L48.882,19.181C47.801,19.181,46.924,20.057,46.924,21.138C46.924,22.219,47.801,23.095,48.882,23.095ZM23.487,60.674L46.973,60.674C54.54,60.674,60.674,54.54,60.674,46.973L60.674,23.487C60.674,15.92,54.54,9.786,46.973,9.786L23.487,9.786C15.92,9.786,9.786,15.92,9.786,23.487L9.786,46.973C9.786,54.54,15.92,60.674,23.487,60.674ZM23.487,56.759C18.082,56.759,13.701,52.378,13.701,46.973L13.701,23.487C13.701,18.082,18.082,13.701,23.487,13.701L46.973,13.701C52.378,13.701,56.759,18.082,56.759,23.487L56.759,46.973C56.759,52.378,52.378,56.759,46.973,56.759L23.487,56.759ZM44.282,35.23C44.282,40.229,40.229,44.282,35.23,44.282C30.231,44.282,26.178,40.229,26.178,35.23C26.178,30.231,30.231,26.178,35.23,26.178C40.229,26.178,44.282,30.231,44.282,35.23ZM48.197,35.23C48.197,28.069,42.391,22.263,35.23,22.263C28.069,22.263,22.263,28.069,22.263,35.23C22.263,42.391,28.069,48.197,35.23,48.197C42.391,48.197,48.197,42.391,48.197,35.23Z"/>
</g>
  <g id="Ultralight-M" transform="matrix(1.0,0.0,0.0,1.0,525.77001953125,1055.5400390625)">  <path stroke-opacity="1" stroke-dasharray="none" stroke-linejoin="round" fill="#000000" fill-opacity="1" stroke-miterlimit="4" fill-rule="nonzero" stroke="none" stroke-width="2px" stroke-linecap="round" d="M48.882,22.606L48.911,22.606C49.722,22.606,50.379,21.949,50.379,21.138C50.379,20.327,49.722,19.67,48.911,19.67L48.882,19.67C48.071,19.67,47.414,20.327,47.414,21.138C47.414,21.949,48.071,22.606,48.882,22.606ZM23.487,60.185L46.973,60.185C54.27,60.185,60.185,54.27,60.185,46.973L60.185,23.487C60.185,16.19,54.27,10.275,46.973,10.275L23.487,10.275C16.19,10.275,10.275,16.19,10.275,23.487L10.275,46.973C10.275,54.27,16.19,60.185,23.487,60.185ZM23.487,57.249C17.812,57.249,13.211,52.648,13.211,46.973L13.211,23.487C13.211,17.812,17.812,13.211,23.487,13.211L46.973,13.211C52.648,13.211,57.249,17.812,57.249,23.487L57.249,46.973C57.249,52.648,52.648,57.249,46.973,57.249L23.487,57.249ZM44.771,35.23C44.771,40.5,40.5,44.771,35.23,44.771C29.96,44.771,25.689,40.5,25.689,35.23C25.689,29.96,29.96,25.689,35.23,25.689C40.5,25.689,44.771,29.96,44.771,35.23ZM47.707,35.23C47.707,28.339,42.121,22.753,35.23,22.753C28.339,22.753,22.753,28.339,22.753,35.23C22.753,42.121,28.339,47.707,35.23,47.707C42.121,47.707,47.707,42.121,47.707,35.23Z"/>
</g>
  <g id="Black-S" transform="matrix(1.0,0.0,0.0,1.0,2907.0949252929686,633.1849448242187)">  <path stroke-width="2px" fill-rule="nonzero" fill="#000000" fill-opacity="1" stroke-opacity="1" stroke-linejoin="round" stroke-dasharray="none" stroke="none" stroke-miterlimit="4" stroke-linecap="round" d="M38.274,21.631L38.297,21.631C41.103,21.631,43.378,19.357,43.378,16.551C43.378,13.745,41.103,11.471,38.297,11.471L38.274,11.471C35.469,11.471,33.194,13.745,33.194,16.551C33.194,19.357,35.469,21.631,38.274,21.631ZM18.39,51.055L36.78,51.055C44.664,51.055,51.055,44.664,51.055,36.78L51.055,18.39C51.055,10.506,44.664,4.115,36.78,4.115L18.39,4.115C10.506,4.115,4.115,10.506,4.115,18.39L4.115,36.78C4.115,44.664,10.506,51.055,18.39,51.055ZM18.39,40.895C16.118,40.895,14.275,39.053,14.275,36.78L14.275,18.39C14.275,16.118,16.118,14.275,18.39,14.275L36.78,14.275C39.053,14.275,40.895,16.118,40.895,18.39L40.895,36.78C40.895,39.053,39.053,40.895,36.78,40.895L18.39,40.895ZM31.125,27.585C31.125,29.54,29.54,31.125,27.585,31.125C25.63,31.125,24.045,29.54,24.045,27.585C24.045,25.63,25.63,24.045,27.585,24.045C29.54,24.045,31.125,25.63,31.125,27.585ZM41.286,27.585C41.286,20.018,35.152,13.884,27.585,13.884C20.018,13.884,13.884,20.018,13.884,27.585C13.884,35.152,20.018,41.286,27.585,41.286C35.152,41.286,41.286,35.152,41.286,27.585Z"/>
</g>
  <g id="Heavy-S" transform="matrix(1.0,0.0,0.0,1.0,2610.3849252929685,633.1849448242187)">  <path stroke-width="2px" fill="#000000" stroke="none" stroke-opacity="1" stroke-dasharray="none" stroke-miterlimit="4" fill-rule="nonzero" stroke-linecap="round" fill-opacity="1" stroke-linejoin="round" d="M38.274,21.075L38.297,21.075C40.796,21.075,42.821,19.05,42.821,16.551C42.821,14.053,40.796,12.027,38.297,12.027L38.274,12.027C35.776,12.027,33.75,14.053,33.75,16.551C33.75,19.05,35.776,21.075,38.274,21.075ZM18.39,50.499L36.78,50.499C44.357,50.499,50.499,44.357,50.499,36.78L50.499,18.39C50.499,10.813,44.357,4.671,36.78,4.671L18.39,4.671C10.813,4.671,4.671,10.813,4.671,18.39L4.671,36.78C4.671,44.357,10.813,50.499,18.39,50.499ZM18.39,41.451C15.81,41.451,13.719,39.36,13.719,36.78L13.719,18.39C13.719,15.81,15.81,13.719,18.39,13.719L36.78,13.719C39.36,13.719,41.451,15.81,41.451,18.39L41.451,36.78C41.451,39.36,39.36,41.451,36.78,41.451L18.39,41.451ZM31.681,27.585C31.681,29.848,29.848,31.681,27.585,31.681C25.323,31.681,23.489,29.847,23.489,27.585C23.489,25.323,25.323,23.489,27.585,23.489C29.847,23.489,31.681,25.323,31.681,27.585ZM40.729,27.585C40.729,20.326,34.845,14.441,27.585,14.441C20.326,14.441,14.441,20.326,14.441,27.585C14.441,34.845,20.326,40.729,27.585,40.729C34.845,40.729,40.729,34.845,40.729,27.585Z"/>
</g>
  <g id="Bold-S" transform="matrix(1.0,0.0,0.0,1.0,2313.6749252929685,633.1849448242187)">  <path stroke-opacity="1" stroke-width="2px" fill-rule="nonzero" stroke-miterlimit="4" fill-opacity="1" stroke-linecap="round" fill="#000000" stroke-linejoin="round" stroke="none" stroke-dasharray="none" d="M38.274,20.519L38.297,20.519C40.489,20.519,42.265,18.742,42.265,16.551C42.265,14.36,40.489,12.583,38.297,12.583L38.274,12.583C36.083,12.583,34.307,14.36,34.307,16.551C34.307,18.742,36.083,20.519,38.274,20.519ZM18.39,49.943L36.78,49.943C44.05,49.943,49.943,44.05,49.943,36.78L49.943,18.39C49.943,11.121,44.05,5.227,36.78,5.227L18.39,5.227C11.121,5.227,5.227,11.121,5.227,18.39L5.227,36.78C5.227,44.05,11.121,49.943,18.39,49.943ZM18.39,42.007C15.503,42.007,13.163,39.667,13.163,36.78L13.163,18.39C13.163,15.503,15.503,13.163,18.39,13.163L36.78,13.163C39.667,13.163,42.007,15.503,42.007,18.39L42.007,36.78C42.007,39.667,39.667,42.007,36.78,42.007L18.39,42.007ZM32.238,27.585C32.238,30.155,30.155,32.238,27.585,32.238C25.015,32.238,22.932,30.155,22.932,27.585C22.932,25.015,25.015,22.932,27.585,22.932C30.155,22.932,32.238,25.015,32.238,27.585ZM40.173,27.585C40.173,20.633,34.537,14.997,27.585,14.997C20.633,14.997,14.997,20.633,14.997,27.585C14.997,34.537,20.633,40.173,27.585,40.173C34.537,40.173,40.173,34.537,40.173,27.585Z"/>
</g>
  <g id="Semibold-S" transform="matrix(1.0,0.0,0.0,1.0,2016.9649252929687,633.1849448242187)">  <path stroke-miterlimit="4" stroke-width="2px" stroke="none" stroke-linejoin="round" fill-rule="nonzero" fill="#000000" stroke-dasharray="none" stroke-opacity="1" fill-opacity="1" stroke-linecap="round" d="M38.274,19.962L38.297,19.962C40.181,19.962,41.709,18.435,41.709,16.551C41.709,14.667,40.181,13.14,38.297,13.14L38.274,13.14C36.39,13.14,34.863,14.667,34.863,16.551C34.863,18.435,36.39,19.962,38.274,19.962ZM18.39,49.386L36.78,49.386C43.742,49.386,49.386,43.742,49.386,36.78L49.386,18.39C49.386,11.428,43.742,5.784,36.78,5.784L18.39,5.784C11.428,5.784,5.784,11.428,5.784,18.39L5.784,36.78C5.784,43.742,11.428,49.386,18.39,49.386ZM18.39,42.564C15.196,42.564,12.606,39.974,12.606,36.78L12.606,18.39C12.606,15.196,15.196,12.606,18.39,12.606L36.78,12.606C39.974,12.606,42.564,15.196,42.564,18.39L42.564,36.78C42.564,39.974,39.974,42.564,36.78,42.564L18.39,42.564ZM32.794,27.585C32.794,30.462,30.462,32.794,27.585,32.794C24.708,32.794,22.376,30.462,22.376,27.585C22.376,24.708,24.708,22.376,27.585,22.376C30.462,22.376,32.794,24.708,32.794,27.585ZM39.617,27.585C39.617,20.94,34.23,15.553,27.585,15.553C20.94,15.553,15.553,20.94,15.553,27.585C15.553,34.23,20.94,39.617,27.585,39.617C34.23,39.617,39.617,34.23,39.617,27.585Z"/>
</g>
  <g id="Medium-S" transform="matrix(1.0,0.0,0.0,1.0,1720.2549252929687,633.1849448242187)">  <path stroke="none" stroke-linecap="round" stroke-linejoin="round" fill="#000000" stroke-opacity="1" stroke-miterlimit="4" fill-rule="nonzero" fill-opacity="1" stroke-dasharray="none" stroke-width="2px" d="M38.274,19.406L38.297,19.406C39.874,19.406,41.152,18.128,41.152,16.551C41.152,14.974,39.874,13.696,38.297,13.696L38.274,13.696C36.697,13.696,35.419,14.974,35.419,16.551C35.419,18.128,36.697,19.406,38.274,19.406ZM18.39,48.83L36.78,48.83C43.435,48.83,48.83,43.435,48.83,36.78L48.83,18.39C48.83,11.735,43.435,6.34,36.78,6.34L18.39,6.34C11.735,6.34,6.34,11.735,6.34,18.39L6.34,36.78C6.34,43.435,11.735,48.83,18.39,48.83ZM18.39,43.12C14.889,43.12,12.05,40.282,12.05,36.78L12.05,18.39C12.05,14.889,14.889,12.05,18.39,12.05L36.78,12.05C40.282,12.05,43.12,14.889,43.12,18.39L43.12,36.78C43.12,40.281,40.281,43.12,36.78,43.12L18.39,43.12ZM33.35,27.585C33.35,30.769,30.769,33.35,27.585,33.35C24.401,33.35,21.82,30.769,21.82,27.585C21.82,24.401,24.401,21.82,27.585,21.82C30.769,21.82,33.35,24.401,33.35,27.585ZM39.06,27.585C39.06,21.247,33.923,16.11,27.585,16.11C21.247,16.11,16.11,21.247,16.11,27.585C16.11,33.923,21.247,39.06,27.585,39.06C33.923,39.06,39.06,33.923,39.06,27.585Z"/>
</g>
  <g id="Regular-S" transform="matrix(1.0,0.0,0.0,1.0,1423.5449252929686,633.1849448242187)">  <path stroke-linecap="round" fill-opacity="1" fill-rule="nonzero" stroke-miterlimit="4" stroke-linejoin="round" stroke-width="2px" stroke-opacity="1" stroke-dasharray="none" fill="#000000" stroke="none" d="M38.274,18.85L38.297,18.85C39.567,18.85,40.596,17.821,40.596,16.551C40.596,15.281,39.567,14.252,38.297,14.252L38.274,14.252C37.005,14.252,35.976,15.281,35.976,16.551C35.976,17.821,37.005,18.85,38.274,18.85ZM18.39,48.274L36.78,48.274C43.128,48.274,48.274,43.128,48.274,36.78L48.274,18.39C48.274,12.042,43.128,6.896,36.78,6.896L18.39,6.896C12.042,6.896,6.896,12.042,6.896,18.39L6.896,36.78C6.896,43.128,12.042,48.274,18.39,48.274ZM18.39,43.676C14.581,43.676,11.494,40.589,11.494,36.78L11.494,18.39C11.494,14.581,14.581,11.494,18.39,11.494L36.78,11.494C40.589,11.494,43.676,14.581,43.676,18.39L43.676,36.78C43.676,40.589,40.589,43.676,36.78,43.676L18.39,43.676ZM33.907,27.585C33.907,31.076,31.076,33.907,27.585,33.907C24.094,33.907,21.263,31.076,21.263,27.585C21.263,24.094,24.094,21.263,27.585,21.263C31.076,21.263,33.907,24.094,33.907,27.585ZM38.504,27.585C38.504,21.555,33.616,16.666,27.585,16.666C21.555,16.666,16.666,21.555,16.666,27.585C16.666,33.616,21.555,38.504,27.585,38.504C33.616,38.504,38.504,33.616,38.504,27.585Z"/>
</g>
  <g id="Light-S" transform="matrix(1.0,0.0,0.0,1.0,1126.8349252929688,633.1849448242187)">  <path stroke-linejoin="round" fill-rule="nonzero" fill-opacity="1" stroke="none" stroke-linecap="round" stroke-opacity="1" stroke-dasharray="none" stroke-width="2px" stroke-miterlimit="4" fill="#000000" d="M38.274,18.467L38.297,18.467C39.355,18.467,40.213,17.609,40.213,16.551C40.213,15.493,39.355,14.635,38.297,14.635L38.274,14.635C37.216,14.635,36.359,15.493,36.359,16.551C36.359,17.609,37.216,18.467,38.274,18.467ZM18.39,47.891L36.78,47.891C42.916,47.891,47.891,42.916,47.891,36.78L47.891,18.39C47.891,12.254,42.916,7.279,36.78,7.279L18.39,7.279C12.254,7.279,7.279,12.254,7.279,18.39L7.279,36.78C7.279,42.916,12.254,47.891,18.39,47.891ZM18.39,44.059C14.37,44.059,11.111,40.8,11.111,36.78L11.111,18.39C11.111,14.37,14.37,11.111,18.39,11.111L36.78,11.111C40.8,11.111,44.059,14.37,44.059,18.39L44.059,36.78C44.059,40.8,40.8,44.059,36.78,44.059L18.39,44.059ZM34.29,27.585C34.29,31.288,31.288,34.29,27.585,34.29C23.882,34.29,20.88,31.288,20.88,27.585C20.88,23.882,23.882,20.88,27.585,20.88C31.288,20.88,34.29,23.882,34.29,27.585ZM38.121,27.585C38.121,21.766,33.404,17.049,27.585,17.049C21.766,17.049,17.049,21.766,17.049,27.585C17.049,33.404,21.766,38.121,27.585,38.121C33.404,38.121,38.121,33.404,38.121,27.585Z"/>
</g>
  <g id="Thin-S" transform="matrix(1.0,0.0,0.0,1.0,830.1249252929688,633.1849448242187)">  <path stroke-opacity="1" stroke-linecap="round" fill="#000000" fill-rule="nonzero" stroke-linejoin="round" stroke-width="2px" stroke-dasharray="none" fill-opacity="1" stroke="none" stroke-miterlimit="4" d="M38.274,18.084L38.297,18.084C39.144,18.084,39.83,17.397,39.83,16.551C39.83,15.705,39.144,15.019,38.297,15.019L38.274,15.019C37.428,15.019,36.742,15.705,36.742,16.551C36.742,17.397,37.428,18.084,38.274,18.084ZM18.39,47.508L36.78,47.508C42.705,47.508,47.508,42.705,47.508,36.78L47.508,18.39C47.508,12.465,42.705,7.663,36.78,7.663L18.39,7.663C12.465,7.663,7.663,12.465,7.663,18.39L7.663,36.78C7.663,42.705,12.465,47.508,18.39,47.508ZM18.39,44.443C14.158,44.443,10.728,41.012,10.728,36.78L10.728,18.39C10.728,14.158,14.158,10.728,18.39,10.728L36.78,10.728C41.012,10.728,44.443,14.158,44.443,18.39L44.443,36.78C44.443,41.012,41.012,44.443,36.78,44.443L18.39,44.443ZM34.673,27.585C34.673,31.5,31.5,34.673,27.585,34.673C23.671,34.673,20.497,31.5,20.497,27.585C20.497,23.671,23.671,20.497,27.585,20.497C31.5,20.497,34.673,23.671,34.673,27.585ZM37.738,27.585C37.738,21.978,33.192,17.432,27.585,17.432C21.978,17.432,17.432,21.978,17.432,27.585C17.432,33.192,21.978,37.738,27.585,37.738C33.192,37.738,37.738,33.192,37.738,27.585Z"/>
</g>
  <g id="Ultralight-S" transform="matrix(1.0,0.0,0.0,1.0,533.4149252929687,633.1849448242187)">  <path stroke-opacity="1" stroke-dasharray="none" stroke-linejoin="round" fill="#000000" fill-opacity="1" stroke-miterlimit="4" fill-rule="nonzero" stroke="none" stroke-width="2px" stroke-linecap="round" d="M38.274,17.7L38.297,17.7C38.932,17.7,39.447,17.186,39.447,16.551C39.447,15.916,38.932,15.402,38.297,15.402L38.274,15.402C37.64,15.402,37.125,15.916,37.125,16.551C37.125,17.186,37.64,17.7,38.274,17.7ZM18.39,47.125L36.78,47.125C42.493,47.125,47.125,42.493,47.125,36.78L47.125,18.39C47.125,12.677,42.493,8.046,36.78,8.046L18.39,8.046C12.677,8.046,8.046,12.677,8.046,18.39L8.046,36.78C8.046,42.493,12.677,47.125,18.39,47.125ZM18.39,44.826C13.947,44.826,10.344,41.224,10.344,36.78L10.344,18.39C10.344,13.947,13.947,10.344,18.39,10.344L36.78,10.344C41.224,10.344,44.826,13.947,44.826,18.39L44.826,36.78C44.826,41.223,41.223,44.826,36.78,44.826L18.39,44.826ZM35.056,27.585C35.056,31.711,31.711,35.056,27.585,35.056C23.459,35.056,20.114,31.711,20.114,27.585C20.114,23.459,23.459,20.114,27.585,20.114C31.711,20.114,35.056,23.459,35.056,27.585ZM37.355,27.585C37.355,22.189,32.981,17.815,27.585,17.815C22.189,17.815,17.815,22.189,17.815,27.585C17.815,32.981,22.189,37.355,27.585,37.355C32.981,37.355,37.355,32.981,37.355,27.585Z"/>
</g>
 </g>
</svg>
