<?xml version="1.0" encoding="UTF-8"?>
<!-- Generator: CustomSymbols v2.7.2.48 by @serious_bret https://bretlester.com/app_content/CustomSymbols/ -->
<!-- Guides: Left/Right 0.004/-0.004 Cap/Base 0.0/0.0 -->
<!-- Settings: RefScale 1.0 Min/Max Stroke Scales 0.5/2.21 -->
<!DOCTYPE svg
PUBLIC "-//W3C//DTD SVG 1.1//EN"
       "http://www.w3.org/Graphics/SVG/1.1/DTD/svg11.dtd">
<svg version="1.1" xmlns="http://www.w3.org/2000/svg" xmlns:xlink="http://www.w3.org/1999/xlink" width="3300" height="2200">
<![CDATA[<?xml version="1.0" encoding="utf-8"?><!-- Uploaded to: SVG Repo, www.svgrepo.com, Generator: SVG Repo Mixer Tools -->
<svg width="800px" height="800px" viewBox="0 0 24 24" fill="none" xmlns="http://www.w3.org/2000/svg">
<path d="M8 7V12C8 12.5523 7.55228 13 7 13C6.44772 13 6 12.5523 6 12V7C6.00458 5.12141 7.76059 4 9.5 4C10.6307 4 11.4437 4.34086 12 4.83532C12.5563 4.34086 13.3693 4 14.5 4C16.2387 4 17.9942 5.12063 18 6.99875V12C18 12.5523 17.5523 13 17 13C16.4477 13 16 12.5523 16 12V6.99875C15.9406 6.24143 15.1596 6 14.5 6C13.8515 6 13.0672 6.24659 13 6.99875V10C13 10.5523 12.5523 11 12 11C11.4477 11 11 10.5523 11 10V7C10.9403 6.23967 10.1531 6 9.5 6C8.85153 6 8.06716 6.24784 8 7Z" fill="#0F0F0F"/>
<path fill-rule="evenodd" clip-rule="evenodd" d="M16 1H8C4.07296 1 1.08597 4.02365 1 7.98924V13C1 18.1146 4.55833 23 10 23H15.48C16.8717 23 18 21.8717 18 20.48C18 19.1132 16.8655 18.0336 15.5 18C15.2181 17.9931 14.8836 17.9965 14.5149 18.0004C12.4361 18.022 9.26795 18.055 8.28321 16.2962C12.8078 17.1259 23 18.5 23 11V8C22.9065 4.03533 19.9339 1 16 1ZM3 13V7.98924C3.11577 5.11381 5.1386 3 8 3H16C18.8671 3 20.8776 5.12583 21 8V11C21 17 10.344 14.8052 7.24254 14.0299C6.62138 13.8746 6 14.3597 6 15C6 16.0843 6.27531 17.0111 6.8592 17.7553C8.53489 19.8912 11.8962 19.9238 14.5184 19.9492C14.8582 19.9525 15.1857 19.9557 15.4954 19.9633C15.7768 19.9703 16 20.1994 16 20.48C16 20.7672 15.7672 21 15.48 21H10C5.65362 21 3 17.016 3 13Z" fill="#0F0F0F"/>
</svg>]]>
 <g id="Notes">
  <rect height="2200" id="artboard" style="fill:white;opacity:1" width="3300" x="0" y="0"/>
  <line id="" style="fill:none;stroke:black;opacity:1;stroke-width:0.5;" x1="263" x2="3036" y1="292" y2="292"/>
  <text id="reftext1" style="stroke:none;fill:black;font-family:-apple-system,&quot;SF Pro Display&quot;,&quot;SF Pro Text&quot;,Helvetica,sans-serif;font-weight:bold;" transform="matrix(1 0 0 1 263 322)">Weight/Scale Variations</text>
  <text id="reftext2" style="stroke:none;fill:black;font-family:-apple-system,&quot;SF Pro Display&quot;,&quot;SF Pro Text&quot;,Helvetica,sans-serif;text-anchor:middle;" transform="matrix(1 0 0 1 559.711 322)">Ultralight</text>
  <text style="stroke:none;fill:black;font-family:-apple-system,&quot;SF Pro Display&quot;,&quot;SF Pro Text&quot;,Helvetica,sans-serif;text-anchor:middle;" transform="matrix(1 0 0 1 856.422 322)">Thin</text>
  <text style="stroke:none;fill:black;font-family:-apple-system,&quot;SF Pro Display&quot;,&quot;SF Pro Text&quot;,Helvetica,sans-serif;text-anchor:middle;" transform="matrix(1 0 0 1 1153.13 322)">Light</text>
  <text style="stroke:none;fill:black;font-family:-apple-system,&quot;SF Pro Display&quot;,&quot;SF Pro Text&quot;,Helvetica,sans-serif;text-anchor:middle;" transform="matrix(1 0 0 1 1449.84 322)">Regular</text>
  <text style="stroke:none;fill:black;font-family:-apple-system,&quot;SF Pro Display&quot;,&quot;SF Pro Text&quot;,Helvetica,sans-serif;text-anchor:middle;" transform="matrix(1 0 0 1 1746.56 322)">Medium</text>
  <text style="stroke:none;fill:black;font-family:-apple-system,&quot;SF Pro Display&quot;,&quot;SF Pro Text&quot;,Helvetica,sans-serif;text-anchor:middle;" transform="matrix(1 0 0 1 2043.27 322)">Semibold</text>
  <text style="stroke:none;fill:black;font-family:-apple-system,&quot;SF Pro Display&quot;,&quot;SF Pro Text&quot;,Helvetica,sans-serif;text-anchor:middle;" transform="matrix(1 0 0 1 2339.98 322)">Bold</text>
  <text style="stroke:none;fill:black;font-family:-apple-system,&quot;SF Pro Display&quot;,&quot;SF Pro Text&quot;,Helvetica,sans-serif;text-anchor:middle;" transform="matrix(1 0 0 1 2636.69 322)">Heavy</text>
  <text style="stroke:none;fill:black;font-family:-apple-system,&quot;SF Pro Display&quot;,&quot;SF Pro Text&quot;,Helvetica,sans-serif;text-anchor:middle;" transform="matrix(1 0 0 1 2933.4 322)">Black</text>
  <line id="" style="fill:none;stroke:black;opacity:1;stroke-width:0.5;" x1="263" x2="3036" y1="1903" y2="1903"/>
  <g id="" transform="matrix(1 0 0 1 263 1933)">
   <path d="M9.24805 0.830078C13.5547 0.830078 17.1387-2.74414 17.1387-7.05078C17.1387-11.3574 13.5449-14.9316 9.23828-14.9316C4.94141-14.9316 1.36719-11.3574 1.36719-7.05078C1.36719-2.74414 4.95117 0.830078 9.24805 0.830078ZM9.24805-0.654297C5.70312-0.654297 2.87109-3.49609 2.87109-7.05078C2.87109-10.6055 5.69336-13.4473 9.23828-13.4473C12.793-13.4473 15.6348-10.6055 15.6445-7.05078C15.6543-3.49609 12.8027-0.654297 9.24805-0.654297ZM6.39648-6.31836L8.50586-6.31836L8.50586-4.19922C8.50586-3.75977 8.79883-3.45703 9.22852-3.45703C9.67773-3.45703 9.9707-3.75977 9.9707-4.19922L9.9707-6.31836L12.0996-6.31836C12.5391-6.31836 12.8418-6.61133 12.8418-7.04102C12.8418-7.48047 12.5391-7.7832 12.0996-7.7832L9.9707-7.7832L9.9707-9.89258C9.9707-10.3418 9.67773-10.6445 9.22852-10.6445C8.79883-10.6445 8.50586-10.3418 8.50586-9.89258L8.50586-7.7832L6.39648-7.7832C5.94727-7.7832 5.64453-7.48047 5.64453-7.04102C5.64453-6.61133 5.94727-6.31836 6.39648-6.31836Z"/>
  </g>
  <g id="" transform="matrix(1 0 0 1 281.506 1933)">
   <path d="M11.709 2.91016C17.1582 2.91016 21.6699-1.61133 21.6699-7.05078C21.6699-12.5 17.1484-17.0117 11.6992-17.0117C6.25977-17.0117 1.74805-12.5 1.74805-7.05078C1.74805-1.61133 6.26953 2.91016 11.709 2.91016ZM11.709 1.25C7.09961 1.25 3.41797-2.44141 3.41797-7.05078C3.41797-11.6602 7.08984-15.3516 11.6992-15.3516C16.3086-15.3516 20-11.6602 20.0098-7.05078C20.0195-2.44141 16.3184 1.25 11.709 1.25ZM7.98828-6.23047L10.8789-6.23047L10.8789-3.32031C10.8789-2.83203 11.2109-2.5 11.6895-2.5C12.1777-2.5 12.5195-2.83203 12.5195-3.32031L12.5195-6.23047L15.4297-6.23047C15.918-6.23047 16.25-6.5625 16.25-7.04102C16.25-7.5293 15.918-7.87109 15.4297-7.87109L12.5195-7.87109L12.5195-10.7617C12.5195-11.2695 12.1777-11.6016 11.6895-11.6016C11.2109-11.6016 10.8789-11.2598 10.8789-10.7617L10.8789-7.87109L7.98828-7.87109C7.48047-7.87109 7.14844-7.5293 7.14844-7.04102C7.14844-6.5625 7.49023-6.23047 7.98828-6.23047Z"/>
  </g>
  <g id="" transform="matrix(1 0 0 1 304.924 1933)">
   <path d="M14.9707 5.66406C21.9336 5.66406 27.6953-0.0976562 27.6953-7.05078C27.6953-14.0137 21.9238-19.7754 14.9609-19.7754C8.00781-19.7754 2.25586-14.0137 2.25586-7.05078C2.25586-0.0976562 8.01758 5.66406 14.9707 5.66406ZM14.9707 3.84766C8.93555 3.84766 4.08203-1.01562 4.08203-7.05078C4.08203-13.0957 8.92578-17.9492 14.9609-17.9492C21.0059-17.9492 25.8594-13.0957 25.8691-7.05078C25.8789-1.01562 21.0156 3.84766 14.9707 3.84766ZM10.0586-6.14258L14.0625-6.14258L14.0625-2.12891C14.0625-1.5918 14.4336-1.2207 14.9512-1.2207C15.4883-1.2207 15.8594-1.5918 15.8594-2.12891L15.8594-6.14258L19.8828-6.14258C20.4102-6.14258 20.791-6.51367 20.791-7.03125C20.791-7.56836 20.4199-7.94922 19.8828-7.94922L15.8594-7.94922L15.8594-11.9531C15.8594-12.5098 15.4883-12.8809 14.9512-12.8809C14.4336-12.8809 14.0625-12.5 14.0625-11.9531L14.0625-7.94922L10.0586-7.94922C9.50195-7.94922 9.13086-7.56836 9.13086-7.03125C9.13086-6.51367 9.51172-6.14258 10.0586-6.14258Z"/>
  </g>
  <text style="stroke:none;fill:black;font-family:-apple-system,&quot;SF Pro Display&quot;,&quot;SF Pro Text&quot;,Helvetica,sans-serif;font-weight:bold;" transform="matrix(1 0 0 1 263 1953)">Design Variations</text>
  <text style="stroke:none;fill:black;font-family:-apple-system,&quot;SF Pro Display&quot;,&quot;SF Pro Text&quot;,Helvetica,sans-serif;" transform="matrix(1 0 0 1 263 1971)">Symbols are supported in up to nine weights and three scales.</text>
  <text style="stroke:none;fill:black;font-family:-apple-system,&quot;SF Pro Display&quot;,&quot;SF Pro Text&quot;,Helvetica,sans-serif;" transform="matrix(1 0 0 1 263 1989)">For optimal layout with text and other symbols, vertically align</text>
  <text style="stroke:none;fill:black;font-family:-apple-system,&quot;SF Pro Display&quot;,&quot;SF Pro Text&quot;,Helvetica,sans-serif;" transform="matrix(1 0 0 1 263 2007)">symbols with the adjacent text.</text>
  <line id="" style="fill:none;stroke:#00AEEF;stroke-width:0.5;opacity:1.0;" x1="776" x2="776" y1="1919" y2="1933"/>
  <g id="" transform="matrix(1 0 0 1 776 1933)">
   <path d="M3.31055 0.126953C3.82812 0.126953 4.08203-0.0683594 4.26758-0.605469L5.52734-4.0625L11.2891-4.0625L12.5488-0.605469C12.7344-0.0683594 12.9883 0.126953 13.4961 0.126953C14.0137 0.126953 14.3457-0.185547 14.3457-0.673828C14.3457-0.839844 14.3164-0.986328 14.2383-1.20117L9.6582-13.3887C9.43359-13.9941 9.0332-14.2871 8.4082-14.2871C7.80273-14.2871 7.39258-13.9941 7.17773-13.3984L2.59766-1.19141C2.51953-0.976562 2.49023-0.830078 2.49023-0.664062C2.49023-0.175781 2.80273 0.126953 3.31055 0.126953ZM6.00586-5.53711L8.37891-12.1094L8.42773-12.1094L10.8008-5.53711Z"/>
  </g>
  <line id="" style="fill:none;stroke:#00AEEF;stroke-width:0.5;opacity:1.0;" x1="792.836" x2="792.836" y1="1919" y2="1933"/>
  <text style="stroke:none;fill:black;font-family:-apple-system,&quot;SF Pro Display&quot;,&quot;SF Pro Text&quot;,Helvetica,sans-serif;font-weight:bold;" transform="matrix(1 0 0 1 776 1953)">Margins</text>
  <text style="stroke:none;fill:black;font-family:-apple-system,&quot;SF Pro Display&quot;,&quot;SF Pro Text&quot;,Helvetica,sans-serif;" transform="matrix(1 0 0 1 776 1971)">Leading and trailing margins on the left and right side of each symbol</text>
  <text style="stroke:none;fill:black;font-family:-apple-system,&quot;SF Pro Display&quot;,&quot;SF Pro Text&quot;,Helvetica,sans-serif;" transform="matrix(1 0 0 1 776 1989)">can be adjusted by modifying the x-location of the margin guidelines.</text>
  <text style="stroke:none;fill:black;font-family:-apple-system,&quot;SF Pro Display&quot;,&quot;SF Pro Text&quot;,Helvetica,sans-serif;" transform="matrix(1 0 0 1 776 2007)">Modifications are automatically applied proportionally to all</text>
  <text style="stroke:none;fill:black;font-family:-apple-system,&quot;SF Pro Display&quot;,&quot;SF Pro Text&quot;,Helvetica,sans-serif;" transform="matrix(1 0 0 1 776 2025)">scales and weights.</text>
  <g id="" transform="matrix(1 0 0 1 1289 1933)">
   <path d="M2.8418 1.86523L4.54102 3.57422C5.40039 4.44336 6.38672 4.38477 7.31445 3.35938L17.4902-7.85156C17.7539-7.76367 18.0273-7.7832 18.3398-7.8418L19.4043-8.03711L20.0684-7.36328L20.0293-6.80664C19.9902-6.30859 20.1172-5.92773 20.6055-5.44922L21.3672-4.70703C21.8457-4.22852 22.4609-4.19922 22.9297-4.66797L25.8398-7.58789C26.3086-8.05664 26.2891-8.65234 25.8105-9.13086L25.0391-9.89258C24.5605-10.3711 24.1895-10.5273 23.7109-10.4883L23.1348-10.4395L22.4902-11.0742L22.7344-12.1973C22.8613-12.7637 22.7051-13.2031 22.1191-13.7891L19.9219-15.9766C16.582-19.2969 12.1484-19.2188 9.25781-16.3281C8.83789-15.918 8.80859-15.3418 9.04297-14.9512C9.27734-14.5898 9.73633-14.3555 10.3809-14.5215C11.8457-14.8633 13.3691-14.9219 14.7949-13.9844L14.209-12.5293C14.0137-12.0508 13.9844-11.6504 14.1113-11.2891L3.04688-0.898438C2.06055 0.0195312 1.98242 0.996094 2.8418 1.86523ZM10.752-15.957C13.1836-17.7344 16.4746-17.4316 18.7012-15.2051L21.1328-12.793C21.3672-12.5586 21.4062-12.373 21.3379-12.0312L21.0156-10.5469L22.5195-9.0625L23.5059-9.12109C23.7598-9.13086 23.8379-9.11133 24.0332-8.91602L24.6094-8.33984L22.168-5.89844L21.5918-6.47461C21.3965-6.66992 21.3672-6.74805 21.377-7.01172L21.4453-7.98828L19.9512-9.47266L18.4277-9.21875C18.1055-9.15039 17.959-9.17969 17.7148-9.41406L15.7129-11.416C15.459-11.6504 15.4297-11.8164 15.5859-12.1875L16.4648-14.2773C14.9023-15.7324 12.8711-16.3574 10.8398-15.7617C10.6836-15.7227 10.625-15.8496 10.752-15.957ZM5.27344 2.30469L4.10156 1.14258C3.63281 0.683594 3.74023 0.341797 4.14062-0.0195312L14.9512-10.1953L16.416-8.71094L6.42578 2.27539C6.07422 2.67578 5.74219 2.77344 5.27344 2.30469Z"/>
  </g>
  <text style="stroke:none;fill:black;font-family:-apple-system,&quot;SF Pro Display&quot;,&quot;SF Pro Text&quot;,Helvetica,sans-serif;font-weight:bold;" transform="matrix(1 0 0 1 1289 1953)">Exporting</text>
  <text style="stroke:none;fill:black;font-family:-apple-system,&quot;SF Pro Display&quot;,&quot;SF Pro Text&quot;,Helvetica,sans-serif;" transform="matrix(1 0 0 1 1289 1971)">Symbols should be outlined when exporting to ensure the</text>
  <text style="stroke:none;fill:black;font-family:-apple-system,&quot;SF Pro Display&quot;,&quot;SF Pro Text&quot;,Helvetica,sans-serif;" transform="matrix(1 0 0 1 1289 1989)">design is preserved when submitting to Xcode.</text>
  <text id="template-version" style="stroke:none;fill:black;font-family:-apple-system,&quot;SF Pro Display&quot;,&quot;SF Pro Text&quot;,Helvetica,sans-serif;text-anchor:end;" transform="matrix(1 0 0 1 3036 1933)">Template v.2.0</text>
  <text style="stroke:none;fill:black;font-family:-apple-system,&quot;SF Pro Display&quot;,&quot;SF Pro Text&quot;,Helvetica,sans-serif;text-anchor:end;" transform="matrix(1 0 0 1 3036 1951)">Requires Xcode 12 or greater</text>
  <text style="stroke:none;fill:black;font-family:-apple-system,&quot;SF Pro Display&quot;,&quot;SF Pro Text&quot;,Helvetica,sans-serif;" transform="matrix(1 0 0 1 263 726)">Small</text>
  <text style="stroke:none;fill:black;font-family:-apple-system,&quot;SF Pro Display&quot;,&quot;SF Pro Text&quot;,Helvetica,sans-serif;" transform="matrix(1 0 0 1 263 1156)">Medium</text>
  <text style="stroke:none;fill:black;font-family:-apple-system,&quot;SF Pro Display&quot;,&quot;SF Pro Text&quot;,Helvetica,sans-serif;" transform="matrix(1 0 0 1 263 1586)">Large</text>
 </g>
 <g id="Guides">
  <g id="H-reference" style="fill:#27AAE1;stroke:none;" transform="matrix(1 0 0 1 339 696)">
   <path d="M0.976562 0L3.66211 0L12.9883-24.4629L45.752-24.4629L55.127 0L57.7637 0L30.6152-70.459L28.125-70.459ZM29.3457-67.1387L29.4434-67.1387L44.873-26.709L13.8672-26.709Z"/>
  </g>
  <line id="Baseline-S" style="fill:none;stroke:#27AAE1;opacity:1;stroke-width:0.5;" x1="263" x2="3036" y1="696" y2="696"/>
  <line id="Capline-S" style="fill:none;stroke:#27AAE1;opacity:1;stroke-width:0.5;" x1="263" x2="3036" y1="625.541" y2="625.541"/>
  <g id="H-reference" style="fill:#27AAE1;stroke:none;" transform="matrix(1 0 0 1 339 1126)">
   <path d="M0.976562 0L3.66211 0L12.9883-24.4629L45.752-24.4629L55.127 0L57.7637 0L30.6152-70.459L28.125-70.459ZM29.3457-67.1387L29.4434-67.1387L44.873-26.709L13.8672-26.709Z"/>
  </g>
  <line id="Baseline-M" style="fill:none;stroke:#27AAE1;opacity:1;stroke-width:0.5;" x1="263" x2="3036" y1="1126" y2="1126"/>
  <line id="Capline-M" style="fill:none;stroke:#27AAE1;opacity:1;stroke-width:0.5;" x1="263" x2="3036" y1="1055.54" y2="1055.54"/>
  <g id="H-reference" style="fill:#27AAE1;stroke:none;" transform="matrix(1 0 0 1 339 1556)">
   <path d="M0.976562 0L3.66211 0L12.9883-24.4629L45.752-24.4629L55.127 0L57.7637 0L30.6152-70.459L28.125-70.459ZM29.3457-67.1387L29.4434-67.1387L44.873-26.709L13.8672-26.709Z"/>
  </g>
  <line id="Baseline-L" style="fill:none;stroke:#27AAE1;opacity:1;stroke-width:0.5;" x1="263" x2="3036" y1="1556" y2="1556"/>
  <line id="Capline-L" style="fill:none;stroke:#27AAE1;opacity:1;stroke-width:0.5;" x1="263" x2="3036" y1="1485.54" y2="1485.54"/>
  <line id="left-margin" x1="1416.181859375" x2="1416.181859375" y1="1030.79" y2="1150.12" style="fill:none;stroke:#00AEEF;stroke-width:0.5;opacity:1.0;"/>
  <line id="right-margin" x1="1486.6418203125" x2="1486.6418203125" y1="1030.79" y2="1150.12" style="fill:none;stroke:#00AEEF;stroke-width:0.5;opacity:1.0;"/>
 </g>
 <g id="Symbols">
  <g id="Black-L" transform="matrix(1.0,0.0,0.0,1.0,2889.2333251953123,1475.3233447265625)">  <path stroke-linecap="butt" stroke="none" stroke-miterlimit="4" stroke-linejoin="miter" stroke-opacity="1" stroke-dasharray="none" fill-opacity="1" fill="#000000" fill-rule="nonzero" stroke-width="1px" d="M30.298,26.511L30.298,45.447C30.298,47.538,28.602,49.234,26.511,49.234C24.419,49.234,22.723,47.538,22.723,45.447L22.723,26.511C22.741,19.396,29.391,15.149,35.979,15.149C40.261,15.149,43.34,16.44,45.447,18.312C47.554,16.44,50.633,15.149,54.915,15.149C61.5,15.149,68.148,19.393,68.17,26.506L68.17,45.447C68.17,47.538,66.474,49.234,64.383,49.234C62.291,49.234,60.596,47.538,60.596,45.447L60.596,26.506C60.371,23.638,57.413,22.723,54.915,22.723C52.459,22.723,49.488,23.657,49.234,26.506L49.234,37.872C49.234,39.964,47.538,41.659,45.447,41.659C43.355,41.659,41.659,39.964,41.659,37.872L41.659,26.511C41.433,23.631,38.452,22.723,35.979,22.723C33.523,22.723,30.552,23.662,30.298,26.511ZM30.298,26.511"/>
  <path fill-opacity="1" fill-rule="evenodd" stroke-linejoin="miter" clip-rule="evenodd" fill="#000000" stroke-opacity="1" stroke-width="1px" stroke-linecap="butt" stroke-miterlimit="4" stroke="none" stroke-dasharray="none" d="M60.596,3.787L30.298,3.787C15.425,3.787,4.113,15.238,3.787,30.257L3.787,49.234C3.787,68.604,17.263,87.106,37.872,87.106L58.626,87.106C63.897,87.106,68.17,82.833,68.17,77.562C68.17,72.386,63.873,68.297,58.702,68.17C57.634,68.144,56.368,68.157,54.971,68.172C47.098,68.253,35.1,68.378,31.37,61.717C48.506,64.86,87.106,70.064,87.106,41.659L87.106,30.298C86.752,15.283,75.494,3.787,60.596,3.787ZM11.362,49.234L11.362,30.257C11.8,19.367,19.461,11.362,30.298,11.362L60.596,11.362C71.454,11.362,79.068,19.413,79.532,30.298L79.532,41.659C79.532,64.383,39.175,56.071,27.429,53.134C25.077,52.546,22.723,54.383,22.723,56.808C22.723,60.915,23.766,64.425,25.977,67.243C32.324,75.332,45.054,75.456,54.984,75.552C56.271,75.565,57.512,75.577,58.685,75.605C59.75,75.632,60.596,76.5,60.596,77.562C60.596,78.65,59.714,79.532,58.626,79.532L37.872,79.532C21.412,79.532,11.362,64.443,11.362,49.234ZM11.362,49.234"/>
</g>
  <g id="Heavy-L" transform="matrix(1.0,0.0,0.0,1.0,2592.5233251953123,1475.3233447265625)">  <path fill-opacity="1" fill-rule="nonzero" stroke-opacity="1" stroke-linecap="butt" stroke-linejoin="miter" stroke-miterlimit="4" stroke="none" fill="#000000" stroke-dasharray="none" stroke-width="1px" d="M30.298,26.511L30.298,45.447C30.298,47.538,28.602,49.234,26.511,49.234C24.419,49.234,22.723,47.538,22.723,45.447L22.723,26.511C22.741,19.396,29.391,15.149,35.979,15.149C40.261,15.149,43.34,16.44,45.447,18.312C47.554,16.44,50.633,15.149,54.915,15.149C61.5,15.149,68.148,19.393,68.17,26.506L68.17,45.447C68.17,47.538,66.474,49.234,64.383,49.234C62.291,49.234,60.596,47.538,60.596,45.447L60.596,26.506C60.371,23.638,57.413,22.723,54.915,22.723C52.459,22.723,49.488,23.657,49.234,26.506L49.234,37.872C49.234,39.964,47.538,41.659,45.447,41.659C43.355,41.659,41.659,39.964,41.659,37.872L41.659,26.511C41.433,23.631,38.452,22.723,35.979,22.723C33.523,22.723,30.552,23.662,30.298,26.511ZM30.298,26.511"/>
  <path stroke-linejoin="miter" stroke-dasharray="none" stroke-miterlimit="4" fill="#000000" clip-rule="evenodd" stroke-width="1px" fill-opacity="1" stroke-linecap="butt" fill-rule="evenodd" stroke-opacity="1" stroke="none" d="M60.596,3.787L30.298,3.787C15.425,3.787,4.113,15.238,3.787,30.257L3.787,49.234C3.787,68.604,17.263,87.106,37.872,87.106L58.626,87.106C63.897,87.106,68.17,82.833,68.17,77.562C68.17,72.386,63.873,68.297,58.702,68.17C57.634,68.144,56.368,68.157,54.971,68.172C47.098,68.253,35.1,68.378,31.37,61.717C48.506,64.86,87.106,70.064,87.106,41.659L87.106,30.298C86.752,15.283,75.494,3.787,60.596,3.787ZM11.362,49.234L11.362,30.257C11.8,19.367,19.461,11.362,30.298,11.362L60.596,11.362C71.454,11.362,79.068,19.413,79.532,30.298L79.532,41.659C79.532,64.383,39.175,56.071,27.429,53.134C25.077,52.546,22.723,54.383,22.723,56.808C22.723,60.915,23.766,64.425,25.977,67.243C32.324,75.332,45.054,75.456,54.984,75.552C56.271,75.565,57.512,75.577,58.685,75.605C59.75,75.632,60.596,76.5,60.596,77.562C60.596,78.65,59.714,79.532,58.626,79.532L37.872,79.532C21.412,79.532,11.362,64.443,11.362,49.234ZM11.362,49.234"/>
</g>
  <g id="Bold-L" transform="matrix(1.0,0.0,0.0,1.0,2295.8133251953122,1475.3233447265625)">  <path stroke-dasharray="none" stroke-linecap="butt" fill="#000000" stroke-opacity="1" fill-rule="nonzero" stroke-width="1px" stroke="none" fill-opacity="1" stroke-linejoin="miter" stroke-miterlimit="4" d="M30.298,26.511L30.298,45.447C30.298,47.538,28.602,49.234,26.511,49.234C24.419,49.234,22.723,47.538,22.723,45.447L22.723,26.511C22.741,19.396,29.391,15.149,35.979,15.149C40.261,15.149,43.34,16.44,45.447,18.312C47.554,16.44,50.633,15.149,54.915,15.149C61.5,15.149,68.148,19.393,68.17,26.506L68.17,45.447C68.17,47.538,66.474,49.234,64.383,49.234C62.291,49.234,60.596,47.538,60.596,45.447L60.596,26.506C60.371,23.638,57.413,22.723,54.915,22.723C52.459,22.723,49.488,23.657,49.234,26.506L49.234,37.872C49.234,39.964,47.538,41.659,45.447,41.659C43.355,41.659,41.659,39.964,41.659,37.872L41.659,26.511C41.433,23.631,38.452,22.723,35.979,22.723C33.523,22.723,30.552,23.662,30.298,26.511ZM30.298,26.511"/>
  <path stroke-opacity="1" fill-rule="evenodd" clip-rule="evenodd" fill-opacity="1" stroke-dasharray="none" stroke-linecap="butt" stroke="none" stroke-linejoin="miter" stroke-width="1px" stroke-miterlimit="4" fill="#000000" d="M60.596,3.787L30.298,3.787C15.425,3.787,4.113,15.238,3.787,30.257L3.787,49.234C3.787,68.604,17.263,87.106,37.872,87.106L58.626,87.106C63.897,87.106,68.17,82.833,68.17,77.562C68.17,72.386,63.873,68.297,58.702,68.17C57.634,68.144,56.368,68.157,54.971,68.172C47.098,68.253,35.1,68.378,31.37,61.717C48.506,64.86,87.106,70.064,87.106,41.659L87.106,30.298C86.752,15.283,75.494,3.787,60.596,3.787ZM11.362,49.234L11.362,30.257C11.8,19.367,19.461,11.362,30.298,11.362L60.596,11.362C71.454,11.362,79.068,19.413,79.532,30.298L79.532,41.659C79.532,64.383,39.175,56.071,27.429,53.134C25.077,52.546,22.723,54.383,22.723,56.808C22.723,60.915,23.766,64.425,25.977,67.243C32.324,75.332,45.054,75.456,54.984,75.552C56.271,75.565,57.512,75.577,58.685,75.605C59.75,75.632,60.596,76.5,60.596,77.562C60.596,78.65,59.714,79.532,58.626,79.532L37.872,79.532C21.412,79.532,11.362,64.443,11.362,49.234ZM11.362,49.234"/>
</g>
  <g id="Semibold-L" transform="matrix(1.0,0.0,0.0,1.0,1999.1033251953124,1475.3233447265625)">  <path stroke-linejoin="miter" fill="#000000" fill-opacity="1" stroke-linecap="butt" fill-rule="nonzero" stroke-miterlimit="4" stroke="none" stroke-width="1px" stroke-dasharray="none" stroke-opacity="1" d="M30.298,26.511L30.298,45.447C30.298,47.538,28.602,49.234,26.511,49.234C24.419,49.234,22.723,47.538,22.723,45.447L22.723,26.511C22.741,19.396,29.391,15.149,35.979,15.149C40.261,15.149,43.34,16.44,45.447,18.312C47.554,16.44,50.633,15.149,54.915,15.149C61.5,15.149,68.148,19.393,68.17,26.506L68.17,45.447C68.17,47.538,66.474,49.234,64.383,49.234C62.291,49.234,60.596,47.538,60.596,45.447L60.596,26.506C60.371,23.638,57.413,22.723,54.915,22.723C52.459,22.723,49.488,23.657,49.234,26.506L49.234,37.872C49.234,39.964,47.538,41.659,45.447,41.659C43.355,41.659,41.659,39.964,41.659,37.872L41.659,26.511C41.433,23.631,38.452,22.723,35.979,22.723C33.523,22.723,30.552,23.662,30.298,26.511ZM30.298,26.511"/>
  <path clip-rule="evenodd" stroke-linejoin="miter" stroke-dasharray="none" stroke-linecap="butt" stroke="none" stroke-miterlimit="4" fill-rule="evenodd" fill="#000000" stroke-opacity="1" stroke-width="1px" fill-opacity="1" d="M60.596,3.787L30.298,3.787C15.425,3.787,4.113,15.238,3.787,30.257L3.787,49.234C3.787,68.604,17.263,87.106,37.872,87.106L58.626,87.106C63.897,87.106,68.17,82.833,68.17,77.562C68.17,72.386,63.873,68.297,58.702,68.17C57.634,68.144,56.368,68.157,54.971,68.172C47.098,68.253,35.1,68.378,31.37,61.717C48.506,64.86,87.106,70.064,87.106,41.659L87.106,30.298C86.752,15.283,75.494,3.787,60.596,3.787ZM11.362,49.234L11.362,30.257C11.8,19.367,19.461,11.362,30.298,11.362L60.596,11.362C71.454,11.362,79.068,19.413,79.532,30.298L79.532,41.659C79.532,64.383,39.175,56.071,27.429,53.134C25.077,52.546,22.723,54.383,22.723,56.808C22.723,60.915,23.766,64.425,25.977,67.243C32.324,75.332,45.054,75.456,54.984,75.552C56.271,75.565,57.512,75.577,58.685,75.605C59.75,75.632,60.596,76.5,60.596,77.562C60.596,78.65,59.714,79.532,58.626,79.532L37.872,79.532C21.412,79.532,11.362,64.443,11.362,49.234ZM11.362,49.234"/>
</g>
  <g id="Medium-L" transform="matrix(1.0,0.0,0.0,1.0,1702.3933251953124,1475.3233447265625)">  <path stroke-opacity="1" fill-opacity="1" stroke-dasharray="none" stroke-miterlimit="4" stroke="none" stroke-linecap="butt" fill-rule="nonzero" stroke-linejoin="miter" stroke-width="1px" fill="#000000" d="M30.298,26.511L30.298,45.447C30.298,47.538,28.602,49.234,26.511,49.234C24.419,49.234,22.723,47.538,22.723,45.447L22.723,26.511C22.741,19.396,29.391,15.149,35.979,15.149C40.261,15.149,43.34,16.44,45.447,18.312C47.554,16.44,50.633,15.149,54.915,15.149C61.5,15.149,68.148,19.393,68.17,26.506L68.17,45.447C68.17,47.538,66.474,49.234,64.383,49.234C62.291,49.234,60.596,47.538,60.596,45.447L60.596,26.506C60.371,23.638,57.413,22.723,54.915,22.723C52.459,22.723,49.488,23.657,49.234,26.506L49.234,37.872C49.234,39.964,47.538,41.659,45.447,41.659C43.355,41.659,41.659,39.964,41.659,37.872L41.659,26.511C41.433,23.631,38.452,22.723,35.979,22.723C33.523,22.723,30.552,23.662,30.298,26.511ZM30.298,26.511"/>
  <path fill-opacity="1" stroke-opacity="1" stroke="none" clip-rule="evenodd" fill-rule="evenodd" stroke-linecap="butt" stroke-dasharray="none" stroke-miterlimit="4" fill="#000000" stroke-width="1px" stroke-linejoin="miter" d="M60.596,3.787L30.298,3.787C15.425,3.787,4.113,15.238,3.787,30.257L3.787,49.234C3.787,68.604,17.263,87.106,37.872,87.106L58.626,87.106C63.897,87.106,68.17,82.833,68.17,77.562C68.17,72.386,63.873,68.297,58.702,68.17C57.634,68.144,56.368,68.157,54.971,68.172C47.098,68.253,35.1,68.378,31.37,61.717C48.506,64.86,87.106,70.064,87.106,41.659L87.106,30.298C86.752,15.283,75.494,3.787,60.596,3.787ZM11.362,49.234L11.362,30.257C11.8,19.367,19.461,11.362,30.298,11.362L60.596,11.362C71.454,11.362,79.068,19.413,79.532,30.298L79.532,41.659C79.532,64.383,39.175,56.071,27.429,53.134C25.077,52.546,22.723,54.383,22.723,56.808C22.723,60.915,23.766,64.425,25.977,67.243C32.324,75.332,45.054,75.456,54.984,75.552C56.271,75.565,57.512,75.577,58.685,75.605C59.75,75.632,60.596,76.5,60.596,77.562C60.596,78.65,59.714,79.532,58.626,79.532L37.872,79.532C21.412,79.532,11.362,64.443,11.362,49.234ZM11.362,49.234"/>
</g>
  <g id="Regular-L" transform="matrix(1.0,0.0,0.0,1.0,1405.6833251953124,1475.3233447265625)">  <path fill-rule="nonzero" stroke-linejoin="miter" stroke-dasharray="none" fill="#000000" fill-opacity="1" stroke-linecap="butt" stroke-width="1px" stroke-opacity="1" stroke-miterlimit="4" stroke="none" d="M30.298,26.511L30.298,45.447C30.298,47.538,28.602,49.234,26.511,49.234C24.419,49.234,22.723,47.538,22.723,45.447L22.723,26.511C22.741,19.396,29.391,15.149,35.979,15.149C40.261,15.149,43.34,16.44,45.447,18.312C47.554,16.44,50.633,15.149,54.915,15.149C61.5,15.149,68.148,19.393,68.17,26.506L68.17,45.447C68.17,47.538,66.474,49.234,64.383,49.234C62.291,49.234,60.596,47.538,60.596,45.447L60.596,26.506C60.371,23.638,57.413,22.723,54.915,22.723C52.459,22.723,49.488,23.657,49.234,26.506L49.234,37.872C49.234,39.964,47.538,41.659,45.447,41.659C43.355,41.659,41.659,39.964,41.659,37.872L41.659,26.511C41.433,23.631,38.452,22.723,35.979,22.723C33.523,22.723,30.552,23.662,30.298,26.511ZM30.298,26.511"/>
  <path stroke-dasharray="none" fill-rule="evenodd" stroke-miterlimit="4" stroke="none" stroke-width="1px" stroke-linecap="butt" stroke-opacity="1" fill-opacity="1" fill="#000000" clip-rule="evenodd" stroke-linejoin="miter" d="M60.596,3.787L30.298,3.787C15.425,3.787,4.113,15.238,3.787,30.257L3.787,49.234C3.787,68.604,17.263,87.106,37.872,87.106L58.626,87.106C63.897,87.106,68.17,82.833,68.17,77.562C68.17,72.386,63.873,68.297,58.702,68.17C57.634,68.144,56.368,68.157,54.971,68.172C47.098,68.253,35.1,68.378,31.37,61.717C48.506,64.86,87.106,70.064,87.106,41.659L87.106,30.298C86.752,15.283,75.494,3.787,60.596,3.787ZM11.362,49.234L11.362,30.257C11.8,19.367,19.461,11.362,30.298,11.362L60.596,11.362C71.454,11.362,79.068,19.413,79.532,30.298L79.532,41.659C79.532,64.383,39.175,56.071,27.429,53.134C25.077,52.546,22.723,54.383,22.723,56.808C22.723,60.915,23.766,64.425,25.977,67.243C32.324,75.332,45.054,75.456,54.984,75.552C56.271,75.565,57.512,75.577,58.685,75.605C59.75,75.632,60.596,76.5,60.596,77.562C60.596,78.65,59.714,79.532,58.626,79.532L37.872,79.532C21.412,79.532,11.362,64.443,11.362,49.234ZM11.362,49.234"/>
</g>
  <g id="Light-L" transform="matrix(1.0,0.0,0.0,1.0,1108.9733251953126,1475.3233447265625)">  <path stroke-opacity="1" stroke-dasharray="none" stroke-miterlimit="4" stroke-linejoin="miter" stroke="none" stroke-width="1px" fill-opacity="1" stroke-linecap="butt" fill="#000000" fill-rule="nonzero" d="M30.298,26.511L30.298,45.447C30.298,47.538,28.602,49.234,26.511,49.234C24.419,49.234,22.723,47.538,22.723,45.447L22.723,26.511C22.741,19.396,29.391,15.149,35.979,15.149C40.261,15.149,43.34,16.44,45.447,18.312C47.554,16.44,50.633,15.149,54.915,15.149C61.5,15.149,68.148,19.393,68.17,26.506L68.17,45.447C68.17,47.538,66.474,49.234,64.383,49.234C62.291,49.234,60.596,47.538,60.596,45.447L60.596,26.506C60.371,23.638,57.413,22.723,54.915,22.723C52.459,22.723,49.488,23.657,49.234,26.506L49.234,37.872C49.234,39.964,47.538,41.659,45.447,41.659C43.355,41.659,41.659,39.964,41.659,37.872L41.659,26.511C41.433,23.631,38.452,22.723,35.979,22.723C33.523,22.723,30.552,23.662,30.298,26.511ZM30.298,26.511"/>
  <path stroke-linejoin="miter" fill-rule="evenodd" clip-rule="evenodd" stroke-width="1px" stroke-opacity="1" fill="#000000" stroke-linecap="butt" stroke-dasharray="none" stroke="none" stroke-miterlimit="4" fill-opacity="1" d="M60.596,3.787L30.298,3.787C15.425,3.787,4.113,15.238,3.787,30.257L3.787,49.234C3.787,68.604,17.263,87.106,37.872,87.106L58.626,87.106C63.897,87.106,68.17,82.833,68.17,77.562C68.17,72.386,63.873,68.297,58.702,68.17C57.634,68.144,56.368,68.157,54.971,68.172C47.098,68.253,35.1,68.378,31.37,61.717C48.506,64.86,87.106,70.064,87.106,41.659L87.106,30.298C86.752,15.283,75.494,3.787,60.596,3.787ZM11.362,49.234L11.362,30.257C11.8,19.367,19.461,11.362,30.298,11.362L60.596,11.362C71.454,11.362,79.068,19.413,79.532,30.298L79.532,41.659C79.532,64.383,39.175,56.071,27.429,53.134C25.077,52.546,22.723,54.383,22.723,56.808C22.723,60.915,23.766,64.425,25.977,67.243C32.324,75.332,45.054,75.456,54.984,75.552C56.271,75.565,57.512,75.577,58.685,75.605C59.75,75.632,60.596,76.5,60.596,77.562C60.596,78.65,59.714,79.532,58.626,79.532L37.872,79.532C21.412,79.532,11.362,64.443,11.362,49.234ZM11.362,49.234"/>
</g>
  <g id="Thin-L" transform="matrix(1.0,0.0,0.0,1.0,812.2633251953125,1475.3233447265625)">  <path fill-opacity="1" fill-rule="nonzero" stroke-width="1px" stroke="none" stroke-linejoin="miter" fill="#000000" stroke-opacity="1" stroke-miterlimit="4" stroke-linecap="butt" stroke-dasharray="none" d="M30.298,26.511L30.298,45.447C30.298,47.538,28.602,49.234,26.511,49.234C24.419,49.234,22.723,47.538,22.723,45.447L22.723,26.511C22.741,19.396,29.391,15.149,35.979,15.149C40.261,15.149,43.34,16.44,45.447,18.312C47.554,16.44,50.633,15.149,54.915,15.149C61.5,15.149,68.148,19.393,68.17,26.506L68.17,45.447C68.17,47.538,66.474,49.234,64.383,49.234C62.291,49.234,60.596,47.538,60.596,45.447L60.596,26.506C60.371,23.638,57.413,22.723,54.915,22.723C52.459,22.723,49.488,23.657,49.234,26.506L49.234,37.872C49.234,39.964,47.538,41.659,45.447,41.659C43.355,41.659,41.659,39.964,41.659,37.872L41.659,26.511C41.433,23.631,38.452,22.723,35.979,22.723C33.523,22.723,30.552,23.662,30.298,26.511ZM30.298,26.511"/>
  <path stroke-opacity="1" stroke-miterlimit="4" stroke="none" stroke-dasharray="none" fill-rule="evenodd" stroke-linecap="butt" fill-opacity="1" fill="#000000" stroke-width="1px" clip-rule="evenodd" stroke-linejoin="miter" d="M60.596,3.787L30.298,3.787C15.425,3.787,4.113,15.238,3.787,30.257L3.787,49.234C3.787,68.604,17.263,87.106,37.872,87.106L58.626,87.106C63.897,87.106,68.17,82.833,68.17,77.562C68.17,72.386,63.873,68.297,58.702,68.17C57.634,68.144,56.368,68.157,54.971,68.172C47.098,68.253,35.1,68.378,31.37,61.717C48.506,64.86,87.106,70.064,87.106,41.659L87.106,30.298C86.752,15.283,75.494,3.787,60.596,3.787ZM11.362,49.234L11.362,30.257C11.8,19.367,19.461,11.362,30.298,11.362L60.596,11.362C71.454,11.362,79.068,19.413,79.532,30.298L79.532,41.659C79.532,64.383,39.175,56.071,27.429,53.134C25.077,52.546,22.723,54.383,22.723,56.808C22.723,60.915,23.766,64.425,25.977,67.243C32.324,75.332,45.054,75.456,54.984,75.552C56.271,75.565,57.512,75.577,58.685,75.605C59.75,75.632,60.596,76.5,60.596,77.562C60.596,78.65,59.714,79.532,58.626,79.532L37.872,79.532C21.412,79.532,11.362,64.443,11.362,49.234ZM11.362,49.234"/>
</g>
  <g id="Ultralight-L" transform="matrix(1.0,0.0,0.0,1.0,515.5533251953125,1475.3233447265625)">  <path stroke-width="1px" fill="#000000" stroke-dasharray="none" fill-rule="nonzero" stroke-opacity="1" fill-opacity="1" stroke-linecap="butt" stroke="none" stroke-miterlimit="4" stroke-linejoin="miter" d="M30.298,26.511L30.298,45.447C30.298,47.538,28.602,49.234,26.511,49.234C24.419,49.234,22.723,47.538,22.723,45.447L22.723,26.511C22.741,19.396,29.391,15.149,35.979,15.149C40.261,15.149,43.34,16.44,45.447,18.312C47.554,16.44,50.633,15.149,54.915,15.149C61.5,15.149,68.148,19.393,68.17,26.506L68.17,45.447C68.17,47.538,66.474,49.234,64.383,49.234C62.291,49.234,60.596,47.538,60.596,45.447L60.596,26.506C60.371,23.638,57.413,22.723,54.915,22.723C52.459,22.723,49.488,23.657,49.234,26.506L49.234,37.872C49.234,39.964,47.538,41.659,45.447,41.659C43.355,41.659,41.659,39.964,41.659,37.872L41.659,26.511C41.433,23.631,38.452,22.723,35.979,22.723C33.523,22.723,30.552,23.662,30.298,26.511ZM30.298,26.511"/>
  <path fill-rule="evenodd" stroke-linejoin="miter" stroke-dasharray="none" stroke="none" clip-rule="evenodd" fill="#000000" stroke-opacity="1" fill-opacity="1" stroke-miterlimit="4" stroke-linecap="butt" stroke-width="1px" d="M60.596,3.787L30.298,3.787C15.425,3.787,4.113,15.238,3.787,30.257L3.787,49.234C3.787,68.604,17.263,87.106,37.872,87.106L58.626,87.106C63.897,87.106,68.17,82.833,68.17,77.562C68.17,72.386,63.873,68.297,58.702,68.17C57.634,68.144,56.368,68.157,54.971,68.172C47.098,68.253,35.1,68.378,31.37,61.717C48.506,64.86,87.106,70.064,87.106,41.659L87.106,30.298C86.752,15.283,75.494,3.787,60.596,3.787ZM11.362,49.234L11.362,30.257C11.8,19.367,19.461,11.362,30.298,11.362L60.596,11.362C71.454,11.362,79.068,19.413,79.532,30.298L79.532,41.659C79.532,64.383,39.175,56.071,27.429,53.134C25.077,52.546,22.723,54.383,22.723,56.808C22.723,60.915,23.766,64.425,25.977,67.243C32.324,75.332,45.054,75.456,54.984,75.552C56.271,75.565,57.512,75.577,58.685,75.605C59.75,75.632,60.596,76.5,60.596,77.562C60.596,78.65,59.714,79.532,58.626,79.532L37.872,79.532C21.412,79.532,11.362,64.443,11.362,49.234ZM11.362,49.234"/>
</g>
  <g id="Black-M" transform="matrix(1.0,0.0,0.0,1.0,2899.45001953125,1055.5400390625)">  <path stroke-linecap="butt" stroke="none" stroke-miterlimit="4" stroke-linejoin="miter" stroke-opacity="1" stroke-dasharray="none" fill-opacity="1" fill="#000000" fill-rule="nonzero" stroke-width="1px" d="M23.487,20.551L23.487,35.23C23.487,36.851,22.172,38.166,20.551,38.166C18.929,38.166,17.615,36.851,17.615,35.23L17.615,20.551C17.628,15.036,22.784,11.743,27.89,11.743C31.21,11.743,33.597,12.744,35.23,14.196C36.863,12.744,39.25,11.743,42.57,11.743C47.674,11.743,52.828,15.033,52.845,20.547L52.845,35.23C52.845,36.851,51.531,38.166,49.909,38.166C48.288,38.166,46.973,36.851,46.973,35.23L46.973,20.547C46.799,18.324,44.506,17.615,42.57,17.615C40.666,17.615,38.363,18.339,38.166,20.547L38.166,29.358C38.166,30.98,36.851,32.294,35.23,32.294C33.609,32.294,32.294,30.98,32.294,29.358L32.294,20.551C32.119,18.319,29.808,17.615,27.89,17.615C25.987,17.615,23.684,18.343,23.487,20.551ZM23.487,20.551"/>
  <path fill-opacity="1" fill-rule="evenodd" stroke-linejoin="miter" clip-rule="evenodd" fill="#000000" stroke-opacity="1" stroke-width="1px" stroke-linecap="butt" stroke-miterlimit="4" stroke="none" stroke-dasharray="none" d="M46.973,2.936L23.487,2.936C11.958,2.936,3.188,11.813,2.936,23.455L2.936,38.166C2.936,53.181,13.382,67.524,29.358,67.524L45.447,67.524C49.532,67.524,52.845,64.212,52.845,60.126C52.845,56.113,49.514,52.944,45.505,52.845C44.678,52.825,43.696,52.835,42.613,52.846C36.51,52.91,27.209,53.006,24.318,47.843C37.602,50.279,67.524,54.313,67.524,32.294L67.524,23.487C67.25,11.847,58.523,2.936,46.973,2.936ZM8.807,38.166L8.807,23.455C9.147,15.013,15.086,8.807,23.487,8.807L46.973,8.807C55.391,8.807,61.293,15.049,61.652,23.487L61.652,32.294C61.652,49.909,30.368,43.466,21.263,41.189C19.439,40.733,17.615,42.158,17.615,44.037C17.615,47.221,18.423,49.942,20.137,52.127C25.057,58.397,34.925,58.493,42.624,58.567C43.621,58.577,44.583,58.587,45.492,58.609C46.318,58.629,46.973,59.302,46.973,60.126C46.973,60.969,46.29,61.652,45.447,61.652L29.358,61.652C16.598,61.652,8.807,49.956,8.807,38.166ZM8.807,38.166"/>
</g>
  <g id="Heavy-M" transform="matrix(1.0,0.0,0.0,1.0,2602.74001953125,1055.5400390625)">  <path fill-opacity="1" fill-rule="nonzero" stroke-opacity="1" stroke-linecap="butt" stroke-linejoin="miter" stroke-miterlimit="4" stroke="none" fill="#000000" stroke-dasharray="none" stroke-width="1px" d="M23.487,20.551L23.487,35.23C23.487,36.851,22.172,38.166,20.551,38.166C18.929,38.166,17.615,36.851,17.615,35.23L17.615,20.551C17.628,15.036,22.784,11.743,27.89,11.743C31.21,11.743,33.597,12.744,35.23,14.196C36.863,12.744,39.25,11.743,42.57,11.743C47.674,11.743,52.828,15.033,52.845,20.547L52.845,35.23C52.845,36.851,51.531,38.166,49.909,38.166C48.288,38.166,46.973,36.851,46.973,35.23L46.973,20.547C46.799,18.324,44.506,17.615,42.57,17.615C40.666,17.615,38.363,18.339,38.166,20.547L38.166,29.358C38.166,30.98,36.851,32.294,35.23,32.294C33.609,32.294,32.294,30.98,32.294,29.358L32.294,20.551C32.119,18.319,29.808,17.615,27.89,17.615C25.987,17.615,23.684,18.343,23.487,20.551ZM23.487,20.551"/>
  <path stroke-linejoin="miter" stroke-dasharray="none" stroke-miterlimit="4" fill="#000000" clip-rule="evenodd" stroke-width="1px" fill-opacity="1" stroke-linecap="butt" fill-rule="evenodd" stroke-opacity="1" stroke="none" d="M46.973,2.936L23.487,2.936C11.958,2.936,3.188,11.813,2.936,23.455L2.936,38.166C2.936,53.181,13.382,67.524,29.358,67.524L45.447,67.524C49.532,67.524,52.845,64.212,52.845,60.126C52.845,56.113,49.514,52.944,45.505,52.845C44.678,52.825,43.696,52.835,42.613,52.846C36.51,52.91,27.209,53.006,24.318,47.843C37.602,50.279,67.524,54.313,67.524,32.294L67.524,23.487C67.25,11.847,58.523,2.936,46.973,2.936ZM8.807,38.166L8.807,23.455C9.147,15.013,15.086,8.807,23.487,8.807L46.973,8.807C55.391,8.807,61.293,15.049,61.652,23.487L61.652,32.294C61.652,49.909,30.368,43.466,21.263,41.189C19.439,40.733,17.615,42.158,17.615,44.037C17.615,47.221,18.423,49.942,20.137,52.127C25.057,58.397,34.925,58.493,42.624,58.567C43.621,58.577,44.583,58.587,45.492,58.609C46.318,58.629,46.973,59.302,46.973,60.126C46.973,60.969,46.29,61.652,45.447,61.652L29.358,61.652C16.598,61.652,8.807,49.956,8.807,38.166ZM8.807,38.166"/>
</g>
  <g id="Bold-M" transform="matrix(1.0,0.0,0.0,1.0,2306.0300195312498,1055.5400390625)">  <path stroke-dasharray="none" stroke-linecap="butt" fill="#000000" stroke-opacity="1" fill-rule="nonzero" stroke-width="1px" stroke="none" fill-opacity="1" stroke-linejoin="miter" stroke-miterlimit="4" d="M23.487,20.551L23.487,35.23C23.487,36.851,22.172,38.166,20.551,38.166C18.929,38.166,17.615,36.851,17.615,35.23L17.615,20.551C17.628,15.036,22.784,11.743,27.89,11.743C31.21,11.743,33.597,12.744,35.23,14.196C36.863,12.744,39.25,11.743,42.57,11.743C47.674,11.743,52.828,15.033,52.845,20.547L52.845,35.23C52.845,36.851,51.531,38.166,49.909,38.166C48.288,38.166,46.973,36.851,46.973,35.23L46.973,20.547C46.799,18.324,44.506,17.615,42.57,17.615C40.666,17.615,38.363,18.339,38.166,20.547L38.166,29.358C38.166,30.98,36.851,32.294,35.23,32.294C33.609,32.294,32.294,30.98,32.294,29.358L32.294,20.551C32.119,18.319,29.808,17.615,27.89,17.615C25.987,17.615,23.684,18.343,23.487,20.551ZM23.487,20.551"/>
  <path stroke-opacity="1" fill-rule="evenodd" clip-rule="evenodd" fill-opacity="1" stroke-dasharray="none" stroke-linecap="butt" stroke="none" stroke-linejoin="miter" stroke-width="1px" stroke-miterlimit="4" fill="#000000" d="M46.973,2.936L23.487,2.936C11.958,2.936,3.188,11.813,2.936,23.455L2.936,38.166C2.936,53.181,13.382,67.524,29.358,67.524L45.447,67.524C49.532,67.524,52.845,64.212,52.845,60.126C52.845,56.113,49.514,52.944,45.505,52.845C44.678,52.825,43.696,52.835,42.613,52.846C36.51,52.91,27.209,53.006,24.318,47.843C37.602,50.279,67.524,54.313,67.524,32.294L67.524,23.487C67.25,11.847,58.523,2.936,46.973,2.936ZM8.807,38.166L8.807,23.455C9.147,15.013,15.086,8.807,23.487,8.807L46.973,8.807C55.391,8.807,61.293,15.049,61.652,23.487L61.652,32.294C61.652,49.909,30.368,43.466,21.263,41.189C19.439,40.733,17.615,42.158,17.615,44.037C17.615,47.221,18.423,49.942,20.137,52.127C25.057,58.397,34.925,58.493,42.624,58.567C43.621,58.577,44.583,58.587,45.492,58.609C46.318,58.629,46.973,59.302,46.973,60.126C46.973,60.969,46.29,61.652,45.447,61.652L29.358,61.652C16.598,61.652,8.807,49.956,8.807,38.166ZM8.807,38.166"/>
</g>
  <g id="Semibold-M" transform="matrix(1.0,0.0,0.0,1.0,2009.32001953125,1055.5400390625)">  <path stroke-linejoin="miter" fill="#000000" fill-opacity="1" stroke-linecap="butt" fill-rule="nonzero" stroke-miterlimit="4" stroke="none" stroke-width="1px" stroke-dasharray="none" stroke-opacity="1" d="M23.487,20.551L23.487,35.23C23.487,36.851,22.172,38.166,20.551,38.166C18.929,38.166,17.615,36.851,17.615,35.23L17.615,20.551C17.628,15.036,22.784,11.743,27.89,11.743C31.21,11.743,33.597,12.744,35.23,14.196C36.863,12.744,39.25,11.743,42.57,11.743C47.674,11.743,52.828,15.033,52.845,20.547L52.845,35.23C52.845,36.851,51.531,38.166,49.909,38.166C48.288,38.166,46.973,36.851,46.973,35.23L46.973,20.547C46.799,18.324,44.506,17.615,42.57,17.615C40.666,17.615,38.363,18.339,38.166,20.547L38.166,29.358C38.166,30.98,36.851,32.294,35.23,32.294C33.609,32.294,32.294,30.98,32.294,29.358L32.294,20.551C32.119,18.319,29.808,17.615,27.89,17.615C25.987,17.615,23.684,18.343,23.487,20.551ZM23.487,20.551"/>
  <path clip-rule="evenodd" stroke-linejoin="miter" stroke-dasharray="none" stroke-linecap="butt" stroke="none" stroke-miterlimit="4" fill-rule="evenodd" fill="#000000" stroke-opacity="1" stroke-width="1px" fill-opacity="1" d="M46.973,2.936L23.487,2.936C11.958,2.936,3.188,11.813,2.936,23.455L2.936,38.166C2.936,53.181,13.382,67.524,29.358,67.524L45.447,67.524C49.532,67.524,52.845,64.212,52.845,60.126C52.845,56.113,49.514,52.944,45.505,52.845C44.678,52.825,43.696,52.835,42.613,52.846C36.51,52.91,27.209,53.006,24.318,47.843C37.602,50.279,67.524,54.313,67.524,32.294L67.524,23.487C67.25,11.847,58.523,2.936,46.973,2.936ZM8.807,38.166L8.807,23.455C9.147,15.013,15.086,8.807,23.487,8.807L46.973,8.807C55.391,8.807,61.293,15.049,61.652,23.487L61.652,32.294C61.652,49.909,30.368,43.466,21.263,41.189C19.439,40.733,17.615,42.158,17.615,44.037C17.615,47.221,18.423,49.942,20.137,52.127C25.057,58.397,34.925,58.493,42.624,58.567C43.621,58.577,44.583,58.587,45.492,58.609C46.318,58.629,46.973,59.302,46.973,60.126C46.973,60.969,46.29,61.652,45.447,61.652L29.358,61.652C16.598,61.652,8.807,49.956,8.807,38.166ZM8.807,38.166"/>
</g>
  <g id="Medium-M" transform="matrix(1.0,0.0,0.0,1.0,1712.61001953125,1055.5400390625)">  <path stroke-opacity="1" fill-opacity="1" stroke-dasharray="none" stroke-miterlimit="4" stroke="none" stroke-linecap="butt" fill-rule="nonzero" stroke-linejoin="miter" stroke-width="1px" fill="#000000" d="M23.487,20.551L23.487,35.23C23.487,36.851,22.172,38.166,20.551,38.166C18.929,38.166,17.615,36.851,17.615,35.23L17.615,20.551C17.628,15.036,22.784,11.743,27.89,11.743C31.21,11.743,33.597,12.744,35.23,14.196C36.863,12.744,39.25,11.743,42.57,11.743C47.674,11.743,52.828,15.033,52.845,20.547L52.845,35.23C52.845,36.851,51.531,38.166,49.909,38.166C48.288,38.166,46.973,36.851,46.973,35.23L46.973,20.547C46.799,18.324,44.506,17.615,42.57,17.615C40.666,17.615,38.363,18.339,38.166,20.547L38.166,29.358C38.166,30.98,36.851,32.294,35.23,32.294C33.609,32.294,32.294,30.98,32.294,29.358L32.294,20.551C32.119,18.319,29.808,17.615,27.89,17.615C25.987,17.615,23.684,18.343,23.487,20.551ZM23.487,20.551"/>
  <path fill-opacity="1" stroke-opacity="1" stroke="none" clip-rule="evenodd" fill-rule="evenodd" stroke-linecap="butt" stroke-dasharray="none" stroke-miterlimit="4" fill="#000000" stroke-width="1px" stroke-linejoin="miter" d="M46.973,2.936L23.487,2.936C11.958,2.936,3.188,11.813,2.936,23.455L2.936,38.166C2.936,53.181,13.382,67.524,29.358,67.524L45.447,67.524C49.532,67.524,52.845,64.212,52.845,60.126C52.845,56.113,49.514,52.944,45.505,52.845C44.678,52.825,43.696,52.835,42.613,52.846C36.51,52.91,27.209,53.006,24.318,47.843C37.602,50.279,67.524,54.313,67.524,32.294L67.524,23.487C67.25,11.847,58.523,2.936,46.973,2.936ZM8.807,38.166L8.807,23.455C9.147,15.013,15.086,8.807,23.487,8.807L46.973,8.807C55.391,8.807,61.293,15.049,61.652,23.487L61.652,32.294C61.652,49.909,30.368,43.466,21.263,41.189C19.439,40.733,17.615,42.158,17.615,44.037C17.615,47.221,18.423,49.942,20.137,52.127C25.057,58.397,34.925,58.493,42.624,58.567C43.621,58.577,44.583,58.587,45.492,58.609C46.318,58.629,46.973,59.302,46.973,60.126C46.973,60.969,46.29,61.652,45.447,61.652L29.358,61.652C16.598,61.652,8.807,49.956,8.807,38.166ZM8.807,38.166"/>
</g>
  <g id="Regular-M" transform="matrix(1.0,0.0,0.0,1.0,1415.9000195312499,1055.5400390625)">  <path fill-rule="nonzero" stroke-linejoin="miter" stroke-dasharray="none" fill="#000000" fill-opacity="1" stroke-linecap="butt" stroke-width="1px" stroke-opacity="1" stroke-miterlimit="4" stroke="none" d="M23.487,20.551L23.487,35.23C23.487,36.851,22.172,38.166,20.551,38.166C18.929,38.166,17.615,36.851,17.615,35.23L17.615,20.551C17.628,15.036,22.784,11.743,27.89,11.743C31.21,11.743,33.597,12.744,35.23,14.196C36.863,12.744,39.25,11.743,42.57,11.743C47.674,11.743,52.828,15.033,52.845,20.547L52.845,35.23C52.845,36.851,51.531,38.166,49.909,38.166C48.288,38.166,46.973,36.851,46.973,35.23L46.973,20.547C46.799,18.324,44.506,17.615,42.57,17.615C40.666,17.615,38.363,18.339,38.166,20.547L38.166,29.358C38.166,30.98,36.851,32.294,35.23,32.294C33.609,32.294,32.294,30.98,32.294,29.358L32.294,20.551C32.119,18.319,29.808,17.615,27.89,17.615C25.987,17.615,23.684,18.343,23.487,20.551ZM23.487,20.551"/>
  <path stroke-dasharray="none" fill-rule="evenodd" stroke-miterlimit="4" stroke="none" stroke-width="1px" stroke-linecap="butt" stroke-opacity="1" fill-opacity="1" fill="#000000" clip-rule="evenodd" stroke-linejoin="miter" d="M46.973,2.936L23.487,2.936C11.958,2.936,3.188,11.813,2.936,23.455L2.936,38.166C2.936,53.181,13.382,67.524,29.358,67.524L45.447,67.524C49.532,67.524,52.845,64.212,52.845,60.126C52.845,56.113,49.514,52.944,45.505,52.845C44.678,52.825,43.696,52.835,42.613,52.846C36.51,52.91,27.209,53.006,24.318,47.843C37.602,50.279,67.524,54.313,67.524,32.294L67.524,23.487C67.25,11.847,58.523,2.936,46.973,2.936ZM8.807,38.166L8.807,23.455C9.147,15.013,15.086,8.807,23.487,8.807L46.973,8.807C55.391,8.807,61.293,15.049,61.652,23.487L61.652,32.294C61.652,49.909,30.368,43.466,21.263,41.189C19.439,40.733,17.615,42.158,17.615,44.037C17.615,47.221,18.423,49.942,20.137,52.127C25.057,58.397,34.925,58.493,42.624,58.567C43.621,58.577,44.583,58.587,45.492,58.609C46.318,58.629,46.973,59.302,46.973,60.126C46.973,60.969,46.29,61.652,45.447,61.652L29.358,61.652C16.598,61.652,8.807,49.956,8.807,38.166ZM8.807,38.166"/>
</g>
  <g id="Light-M" transform="matrix(1.0,0.0,0.0,1.0,1119.19001953125,1055.5400390625)">  <path stroke-opacity="1" stroke-dasharray="none" stroke-miterlimit="4" stroke-linejoin="miter" stroke="none" stroke-width="1px" fill-opacity="1" stroke-linecap="butt" fill="#000000" fill-rule="nonzero" d="M23.487,20.551L23.487,35.23C23.487,36.851,22.172,38.166,20.551,38.166C18.929,38.166,17.615,36.851,17.615,35.23L17.615,20.551C17.628,15.036,22.784,11.743,27.89,11.743C31.21,11.743,33.597,12.744,35.23,14.196C36.863,12.744,39.25,11.743,42.57,11.743C47.674,11.743,52.828,15.033,52.845,20.547L52.845,35.23C52.845,36.851,51.531,38.166,49.909,38.166C48.288,38.166,46.973,36.851,46.973,35.23L46.973,20.547C46.799,18.324,44.506,17.615,42.57,17.615C40.666,17.615,38.363,18.339,38.166,20.547L38.166,29.358C38.166,30.98,36.851,32.294,35.23,32.294C33.609,32.294,32.294,30.98,32.294,29.358L32.294,20.551C32.119,18.319,29.808,17.615,27.89,17.615C25.987,17.615,23.684,18.343,23.487,20.551ZM23.487,20.551"/>
  <path stroke-linejoin="miter" fill-rule="evenodd" clip-rule="evenodd" stroke-width="1px" stroke-opacity="1" fill="#000000" stroke-linecap="butt" stroke-dasharray="none" stroke="none" stroke-miterlimit="4" fill-opacity="1" d="M46.973,2.936L23.487,2.936C11.958,2.936,3.188,11.813,2.936,23.455L2.936,38.166C2.936,53.181,13.382,67.524,29.358,67.524L45.447,67.524C49.532,67.524,52.845,64.212,52.845,60.126C52.845,56.113,49.514,52.944,45.505,52.845C44.678,52.825,43.696,52.835,42.613,52.846C36.51,52.91,27.209,53.006,24.318,47.843C37.602,50.279,67.524,54.313,67.524,32.294L67.524,23.487C67.25,11.847,58.523,2.936,46.973,2.936ZM8.807,38.166L8.807,23.455C9.147,15.013,15.086,8.807,23.487,8.807L46.973,8.807C55.391,8.807,61.293,15.049,61.652,23.487L61.652,32.294C61.652,49.909,30.368,43.466,21.263,41.189C19.439,40.733,17.615,42.158,17.615,44.037C17.615,47.221,18.423,49.942,20.137,52.127C25.057,58.397,34.925,58.493,42.624,58.567C43.621,58.577,44.583,58.587,45.492,58.609C46.318,58.629,46.973,59.302,46.973,60.126C46.973,60.969,46.29,61.652,45.447,61.652L29.358,61.652C16.598,61.652,8.807,49.956,8.807,38.166ZM8.807,38.166"/>
</g>
  <g id="Thin-M" transform="matrix(1.0,0.0,0.0,1.0,822.48001953125,1055.5400390625)">  <path fill-opacity="1" fill-rule="nonzero" stroke-width="1px" stroke="none" stroke-linejoin="miter" fill="#000000" stroke-opacity="1" stroke-miterlimit="4" stroke-linecap="butt" stroke-dasharray="none" d="M23.487,20.551L23.487,35.23C23.487,36.851,22.172,38.166,20.551,38.166C18.929,38.166,17.615,36.851,17.615,35.23L17.615,20.551C17.628,15.036,22.784,11.743,27.89,11.743C31.21,11.743,33.597,12.744,35.23,14.196C36.863,12.744,39.25,11.743,42.57,11.743C47.674,11.743,52.828,15.033,52.845,20.547L52.845,35.23C52.845,36.851,51.531,38.166,49.909,38.166C48.288,38.166,46.973,36.851,46.973,35.23L46.973,20.547C46.799,18.324,44.506,17.615,42.57,17.615C40.666,17.615,38.363,18.339,38.166,20.547L38.166,29.358C38.166,30.98,36.851,32.294,35.23,32.294C33.609,32.294,32.294,30.98,32.294,29.358L32.294,20.551C32.119,18.319,29.808,17.615,27.89,17.615C25.987,17.615,23.684,18.343,23.487,20.551ZM23.487,20.551"/>
  <path stroke-opacity="1" stroke-miterlimit="4" stroke="none" stroke-dasharray="none" fill-rule="evenodd" stroke-linecap="butt" fill-opacity="1" fill="#000000" stroke-width="1px" clip-rule="evenodd" stroke-linejoin="miter" d="M46.973,2.936L23.487,2.936C11.958,2.936,3.188,11.813,2.936,23.455L2.936,38.166C2.936,53.181,13.382,67.524,29.358,67.524L45.447,67.524C49.532,67.524,52.845,64.212,52.845,60.126C52.845,56.113,49.514,52.944,45.505,52.845C44.678,52.825,43.696,52.835,42.613,52.846C36.51,52.91,27.209,53.006,24.318,47.843C37.602,50.279,67.524,54.313,67.524,32.294L67.524,23.487C67.25,11.847,58.523,2.936,46.973,2.936ZM8.807,38.166L8.807,23.455C9.147,15.013,15.086,8.807,23.487,8.807L46.973,8.807C55.391,8.807,61.293,15.049,61.652,23.487L61.652,32.294C61.652,49.909,30.368,43.466,21.263,41.189C19.439,40.733,17.615,42.158,17.615,44.037C17.615,47.221,18.423,49.942,20.137,52.127C25.057,58.397,34.925,58.493,42.624,58.567C43.621,58.577,44.583,58.587,45.492,58.609C46.318,58.629,46.973,59.302,46.973,60.126C46.973,60.969,46.29,61.652,45.447,61.652L29.358,61.652C16.598,61.652,8.807,49.956,8.807,38.166ZM8.807,38.166"/>
</g>
  <g id="Ultralight-M" transform="matrix(1.0,0.0,0.0,1.0,525.77001953125,1055.5400390625)">  <path stroke-width="1px" fill="#000000" stroke-dasharray="none" fill-rule="nonzero" stroke-opacity="1" fill-opacity="1" stroke-linecap="butt" stroke="none" stroke-miterlimit="4" stroke-linejoin="miter" d="M23.487,20.551L23.487,35.23C23.487,36.851,22.172,38.166,20.551,38.166C18.929,38.166,17.615,36.851,17.615,35.23L17.615,20.551C17.628,15.036,22.784,11.743,27.89,11.743C31.21,11.743,33.597,12.744,35.23,14.196C36.863,12.744,39.25,11.743,42.57,11.743C47.674,11.743,52.828,15.033,52.845,20.547L52.845,35.23C52.845,36.851,51.531,38.166,49.909,38.166C48.288,38.166,46.973,36.851,46.973,35.23L46.973,20.547C46.799,18.324,44.506,17.615,42.57,17.615C40.666,17.615,38.363,18.339,38.166,20.547L38.166,29.358C38.166,30.98,36.851,32.294,35.23,32.294C33.609,32.294,32.294,30.98,32.294,29.358L32.294,20.551C32.119,18.319,29.808,17.615,27.89,17.615C25.987,17.615,23.684,18.343,23.487,20.551ZM23.487,20.551"/>
  <path fill-rule="evenodd" stroke-linejoin="miter" stroke-dasharray="none" stroke="none" clip-rule="evenodd" fill="#000000" stroke-opacity="1" fill-opacity="1" stroke-miterlimit="4" stroke-linecap="butt" stroke-width="1px" d="M46.973,2.936L23.487,2.936C11.958,2.936,3.188,11.813,2.936,23.455L2.936,38.166C2.936,53.181,13.382,67.524,29.358,67.524L45.447,67.524C49.532,67.524,52.845,64.212,52.845,60.126C52.845,56.113,49.514,52.944,45.505,52.845C44.678,52.825,43.696,52.835,42.613,52.846C36.51,52.91,27.209,53.006,24.318,47.843C37.602,50.279,67.524,54.313,67.524,32.294L67.524,23.487C67.25,11.847,58.523,2.936,46.973,2.936ZM8.807,38.166L8.807,23.455C9.147,15.013,15.086,8.807,23.487,8.807L46.973,8.807C55.391,8.807,61.293,15.049,61.652,23.487L61.652,32.294C61.652,49.909,30.368,43.466,21.263,41.189C19.439,40.733,17.615,42.158,17.615,44.037C17.615,47.221,18.423,49.942,20.137,52.127C25.057,58.397,34.925,58.493,42.624,58.567C43.621,58.577,44.583,58.587,45.492,58.609C46.318,58.629,46.973,59.302,46.973,60.126C46.973,60.969,46.29,61.652,45.447,61.652L29.358,61.652C16.598,61.652,8.807,49.956,8.807,38.166ZM8.807,38.166"/>
</g>
  <g id="Black-S" transform="matrix(1.0,0.0,0.0,1.0,2907.0949252929686,633.1849448242187)">  <path stroke-linecap="butt" stroke="none" stroke-miterlimit="4" stroke-linejoin="miter" stroke-opacity="1" stroke-dasharray="none" fill-opacity="1" fill="#000000" fill-rule="nonzero" stroke-width="1px" d="M18.39,16.091L18.39,27.585C18.39,28.855,17.361,29.884,16.091,29.884C14.822,29.884,13.793,28.855,13.793,27.585L13.793,16.091C13.803,11.773,17.84,9.195,21.838,9.195C24.437,9.195,26.306,9.979,27.585,11.115C28.864,9.979,30.733,9.195,33.332,9.195C37.329,9.195,41.364,11.771,41.378,16.088L41.378,27.585C41.378,28.855,40.348,29.884,39.079,29.884C37.809,29.884,36.78,28.855,36.78,27.585L36.78,16.088C36.644,14.348,34.848,13.793,33.332,13.793C31.841,13.793,30.038,14.359,29.884,16.088L29.884,22.988C29.884,24.257,28.855,25.286,27.585,25.286C26.315,25.286,25.286,24.257,25.286,22.988L25.286,16.091C25.149,14.343,23.34,13.793,21.838,13.793C20.348,13.793,18.544,14.362,18.39,16.091ZM18.39,16.091"/>
  <path fill-opacity="1" fill-rule="evenodd" stroke-linejoin="miter" clip-rule="evenodd" fill="#000000" stroke-opacity="1" stroke-width="1px" stroke-linecap="butt" stroke-miterlimit="4" stroke="none" stroke-dasharray="none" d="M36.78,2.299L18.39,2.299C9.363,2.299,2.496,9.249,2.299,18.365L2.299,29.884C2.299,41.641,10.478,52.871,22.988,52.871L35.585,52.871C38.784,52.871,41.378,50.278,41.378,47.079C41.378,43.937,38.77,41.455,35.631,41.378C34.983,41.362,34.214,41.37,33.366,41.379C28.588,41.428,21.305,41.504,19.041,37.461C29.442,39.368,52.871,42.527,52.871,25.286L52.871,18.39C52.656,9.276,45.823,2.299,36.78,2.299ZM6.896,29.884L6.896,18.365C7.162,11.755,11.812,6.896,18.39,6.896L36.78,6.896C43.371,6.896,47.993,11.783,48.274,18.39L48.274,25.286C48.274,39.079,23.778,34.034,16.649,32.251C15.221,31.894,13.793,33.009,13.793,34.481C13.793,36.974,14.425,39.104,15.768,40.815C19.62,45.725,27.346,45.8,33.374,45.858C34.155,45.866,34.908,45.873,35.62,45.891C36.267,45.907,36.78,46.433,36.78,47.079C36.78,47.739,36.245,48.274,35.585,48.274L22.988,48.274C12.996,48.274,6.896,39.116,6.896,29.884ZM6.896,29.884"/>
</g>
  <g id="Heavy-S" transform="matrix(1.0,0.0,0.0,1.0,2610.3849252929685,633.1849448242187)">  <path fill-opacity="1" fill-rule="nonzero" stroke-opacity="1" stroke-linecap="butt" stroke-linejoin="miter" stroke-miterlimit="4" stroke="none" fill="#000000" stroke-dasharray="none" stroke-width="1px" d="M18.39,16.091L18.39,27.585C18.39,28.855,17.361,29.884,16.091,29.884C14.822,29.884,13.793,28.855,13.793,27.585L13.793,16.091C13.803,11.773,17.84,9.195,21.838,9.195C24.437,9.195,26.306,9.979,27.585,11.115C28.864,9.979,30.733,9.195,33.332,9.195C37.329,9.195,41.364,11.771,41.378,16.088L41.378,27.585C41.378,28.855,40.348,29.884,39.079,29.884C37.809,29.884,36.78,28.855,36.78,27.585L36.78,16.088C36.644,14.348,34.848,13.793,33.332,13.793C31.841,13.793,30.038,14.359,29.884,16.088L29.884,22.988C29.884,24.257,28.855,25.286,27.585,25.286C26.315,25.286,25.286,24.257,25.286,22.988L25.286,16.091C25.149,14.343,23.34,13.793,21.838,13.793C20.348,13.793,18.544,14.362,18.39,16.091ZM18.39,16.091"/>
  <path stroke-linejoin="miter" stroke-dasharray="none" stroke-miterlimit="4" fill="#000000" clip-rule="evenodd" stroke-width="1px" fill-opacity="1" stroke-linecap="butt" fill-rule="evenodd" stroke-opacity="1" stroke="none" d="M36.78,2.299L18.39,2.299C9.363,2.299,2.496,9.249,2.299,18.365L2.299,29.884C2.299,41.641,10.478,52.871,22.988,52.871L35.585,52.871C38.784,52.871,41.378,50.278,41.378,47.079C41.378,43.937,38.77,41.455,35.631,41.378C34.983,41.362,34.214,41.37,33.366,41.379C28.588,41.428,21.305,41.504,19.041,37.461C29.442,39.368,52.871,42.527,52.871,25.286L52.871,18.39C52.656,9.276,45.823,2.299,36.78,2.299ZM6.896,29.884L6.896,18.365C7.162,11.755,11.812,6.896,18.39,6.896L36.78,6.896C43.371,6.896,47.993,11.783,48.274,18.39L48.274,25.286C48.274,39.079,23.778,34.034,16.649,32.251C15.221,31.894,13.793,33.009,13.793,34.481C13.793,36.974,14.425,39.104,15.768,40.815C19.62,45.725,27.346,45.8,33.374,45.858C34.155,45.866,34.908,45.873,35.62,45.891C36.267,45.907,36.78,46.433,36.78,47.079C36.78,47.739,36.245,48.274,35.585,48.274L22.988,48.274C12.996,48.274,6.896,39.116,6.896,29.884ZM6.896,29.884"/>
</g>
  <g id="Bold-S" transform="matrix(1.0,0.0,0.0,1.0,2313.6749252929685,633.1849448242187)">  <path stroke-dasharray="none" stroke-linecap="butt" fill="#000000" stroke-opacity="1" fill-rule="nonzero" stroke-width="1px" stroke="none" fill-opacity="1" stroke-linejoin="miter" stroke-miterlimit="4" d="M18.39,16.091L18.39,27.585C18.39,28.855,17.361,29.884,16.091,29.884C14.822,29.884,13.793,28.855,13.793,27.585L13.793,16.091C13.803,11.773,17.84,9.195,21.838,9.195C24.437,9.195,26.306,9.979,27.585,11.115C28.864,9.979,30.733,9.195,33.332,9.195C37.329,9.195,41.364,11.771,41.378,16.088L41.378,27.585C41.378,28.855,40.348,29.884,39.079,29.884C37.809,29.884,36.78,28.855,36.78,27.585L36.78,16.088C36.644,14.348,34.848,13.793,33.332,13.793C31.841,13.793,30.038,14.359,29.884,16.088L29.884,22.988C29.884,24.257,28.855,25.286,27.585,25.286C26.315,25.286,25.286,24.257,25.286,22.988L25.286,16.091C25.149,14.343,23.34,13.793,21.838,13.793C20.348,13.793,18.544,14.362,18.39,16.091ZM18.39,16.091"/>
  <path stroke-opacity="1" fill-rule="evenodd" clip-rule="evenodd" fill-opacity="1" stroke-dasharray="none" stroke-linecap="butt" stroke="none" stroke-linejoin="miter" stroke-width="1px" stroke-miterlimit="4" fill="#000000" d="M36.78,2.299L18.39,2.299C9.363,2.299,2.496,9.249,2.299,18.365L2.299,29.884C2.299,41.641,10.478,52.871,22.988,52.871L35.585,52.871C38.784,52.871,41.378,50.278,41.378,47.079C41.378,43.937,38.77,41.455,35.631,41.378C34.983,41.362,34.214,41.37,33.366,41.379C28.588,41.428,21.305,41.504,19.041,37.461C29.442,39.368,52.871,42.527,52.871,25.286L52.871,18.39C52.656,9.276,45.823,2.299,36.78,2.299ZM6.896,29.884L6.896,18.365C7.162,11.755,11.812,6.896,18.39,6.896L36.78,6.896C43.371,6.896,47.993,11.783,48.274,18.39L48.274,25.286C48.274,39.079,23.778,34.034,16.649,32.251C15.221,31.894,13.793,33.009,13.793,34.481C13.793,36.974,14.425,39.104,15.768,40.815C19.62,45.725,27.346,45.8,33.374,45.858C34.155,45.866,34.908,45.873,35.62,45.891C36.267,45.907,36.78,46.433,36.78,47.079C36.78,47.739,36.245,48.274,35.585,48.274L22.988,48.274C12.996,48.274,6.896,39.116,6.896,29.884ZM6.896,29.884"/>
</g>
  <g id="Semibold-S" transform="matrix(1.0,0.0,0.0,1.0,2016.9649252929687,633.1849448242187)">  <path stroke-linejoin="miter" fill="#000000" fill-opacity="1" stroke-linecap="butt" fill-rule="nonzero" stroke-miterlimit="4" stroke="none" stroke-width="1px" stroke-dasharray="none" stroke-opacity="1" d="M18.39,16.091L18.39,27.585C18.39,28.855,17.361,29.884,16.091,29.884C14.822,29.884,13.793,28.855,13.793,27.585L13.793,16.091C13.803,11.773,17.84,9.195,21.838,9.195C24.437,9.195,26.306,9.979,27.585,11.115C28.864,9.979,30.733,9.195,33.332,9.195C37.329,9.195,41.364,11.771,41.378,16.088L41.378,27.585C41.378,28.855,40.348,29.884,39.079,29.884C37.809,29.884,36.78,28.855,36.78,27.585L36.78,16.088C36.644,14.348,34.848,13.793,33.332,13.793C31.841,13.793,30.038,14.359,29.884,16.088L29.884,22.988C29.884,24.257,28.855,25.286,27.585,25.286C26.315,25.286,25.286,24.257,25.286,22.988L25.286,16.091C25.149,14.343,23.34,13.793,21.838,13.793C20.348,13.793,18.544,14.362,18.39,16.091ZM18.39,16.091"/>
  <path clip-rule="evenodd" stroke-linejoin="miter" stroke-dasharray="none" stroke-linecap="butt" stroke="none" stroke-miterlimit="4" fill-rule="evenodd" fill="#000000" stroke-opacity="1" stroke-width="1px" fill-opacity="1" d="M36.78,2.299L18.39,2.299C9.363,2.299,2.496,9.249,2.299,18.365L2.299,29.884C2.299,41.641,10.478,52.871,22.988,52.871L35.585,52.871C38.784,52.871,41.378,50.278,41.378,47.079C41.378,43.937,38.77,41.455,35.631,41.378C34.983,41.362,34.214,41.37,33.366,41.379C28.588,41.428,21.305,41.504,19.041,37.461C29.442,39.368,52.871,42.527,52.871,25.286L52.871,18.39C52.656,9.276,45.823,2.299,36.78,2.299ZM6.896,29.884L6.896,18.365C7.162,11.755,11.812,6.896,18.39,6.896L36.78,6.896C43.371,6.896,47.993,11.783,48.274,18.39L48.274,25.286C48.274,39.079,23.778,34.034,16.649,32.251C15.221,31.894,13.793,33.009,13.793,34.481C13.793,36.974,14.425,39.104,15.768,40.815C19.62,45.725,27.346,45.8,33.374,45.858C34.155,45.866,34.908,45.873,35.62,45.891C36.267,45.907,36.78,46.433,36.78,47.079C36.78,47.739,36.245,48.274,35.585,48.274L22.988,48.274C12.996,48.274,6.896,39.116,6.896,29.884ZM6.896,29.884"/>
</g>
  <g id="Medium-S" transform="matrix(1.0,0.0,0.0,1.0,1720.2549252929687,633.1849448242187)">  <path stroke-opacity="1" fill-opacity="1" stroke-dasharray="none" stroke-miterlimit="4" stroke="none" stroke-linecap="butt" fill-rule="nonzero" stroke-linejoin="miter" stroke-width="1px" fill="#000000" d="M18.39,16.091L18.39,27.585C18.39,28.855,17.361,29.884,16.091,29.884C14.822,29.884,13.793,28.855,13.793,27.585L13.793,16.091C13.803,11.773,17.84,9.195,21.838,9.195C24.437,9.195,26.306,9.979,27.585,11.115C28.864,9.979,30.733,9.195,33.332,9.195C37.329,9.195,41.364,11.771,41.378,16.088L41.378,27.585C41.378,28.855,40.348,29.884,39.079,29.884C37.809,29.884,36.78,28.855,36.78,27.585L36.78,16.088C36.644,14.348,34.848,13.793,33.332,13.793C31.841,13.793,30.038,14.359,29.884,16.088L29.884,22.988C29.884,24.257,28.855,25.286,27.585,25.286C26.315,25.286,25.286,24.257,25.286,22.988L25.286,16.091C25.149,14.343,23.34,13.793,21.838,13.793C20.348,13.793,18.544,14.362,18.39,16.091ZM18.39,16.091"/>
  <path fill-opacity="1" stroke-opacity="1" stroke="none" clip-rule="evenodd" fill-rule="evenodd" stroke-linecap="butt" stroke-dasharray="none" stroke-miterlimit="4" fill="#000000" stroke-width="1px" stroke-linejoin="miter" d="M36.78,2.299L18.39,2.299C9.363,2.299,2.496,9.249,2.299,18.365L2.299,29.884C2.299,41.641,10.478,52.871,22.988,52.871L35.585,52.871C38.784,52.871,41.378,50.278,41.378,47.079C41.378,43.937,38.77,41.455,35.631,41.378C34.983,41.362,34.214,41.37,33.366,41.379C28.588,41.428,21.305,41.504,19.041,37.461C29.442,39.368,52.871,42.527,52.871,25.286L52.871,18.39C52.656,9.276,45.823,2.299,36.78,2.299ZM6.896,29.884L6.896,18.365C7.162,11.755,11.812,6.896,18.39,6.896L36.78,6.896C43.371,6.896,47.993,11.783,48.274,18.39L48.274,25.286C48.274,39.079,23.778,34.034,16.649,32.251C15.221,31.894,13.793,33.009,13.793,34.481C13.793,36.974,14.425,39.104,15.768,40.815C19.62,45.725,27.346,45.8,33.374,45.858C34.155,45.866,34.908,45.873,35.62,45.891C36.267,45.907,36.78,46.433,36.78,47.079C36.78,47.739,36.245,48.274,35.585,48.274L22.988,48.274C12.996,48.274,6.896,39.116,6.896,29.884ZM6.896,29.884"/>
</g>
  <g id="Regular-S" transform="matrix(1.0,0.0,0.0,1.0,1423.5449252929686,633.1849448242187)">  <path fill-rule="nonzero" stroke-linejoin="miter" stroke-dasharray="none" fill="#000000" fill-opacity="1" stroke-linecap="butt" stroke-width="1px" stroke-opacity="1" stroke-miterlimit="4" stroke="none" d="M18.39,16.091L18.39,27.585C18.39,28.855,17.361,29.884,16.091,29.884C14.822,29.884,13.793,28.855,13.793,27.585L13.793,16.091C13.803,11.773,17.84,9.195,21.838,9.195C24.437,9.195,26.306,9.979,27.585,11.115C28.864,9.979,30.733,9.195,33.332,9.195C37.329,9.195,41.364,11.771,41.378,16.088L41.378,27.585C41.378,28.855,40.348,29.884,39.079,29.884C37.809,29.884,36.78,28.855,36.78,27.585L36.78,16.088C36.644,14.348,34.848,13.793,33.332,13.793C31.841,13.793,30.038,14.359,29.884,16.088L29.884,22.988C29.884,24.257,28.855,25.286,27.585,25.286C26.315,25.286,25.286,24.257,25.286,22.988L25.286,16.091C25.149,14.343,23.34,13.793,21.838,13.793C20.348,13.793,18.544,14.362,18.39,16.091ZM18.39,16.091"/>
  <path stroke-dasharray="none" fill-rule="evenodd" stroke-miterlimit="4" stroke="none" stroke-width="1px" stroke-linecap="butt" stroke-opacity="1" fill-opacity="1" fill="#000000" clip-rule="evenodd" stroke-linejoin="miter" d="M36.78,2.299L18.39,2.299C9.363,2.299,2.496,9.249,2.299,18.365L2.299,29.884C2.299,41.641,10.478,52.871,22.988,52.871L35.585,52.871C38.784,52.871,41.378,50.278,41.378,47.079C41.378,43.937,38.77,41.455,35.631,41.378C34.983,41.362,34.214,41.37,33.366,41.379C28.588,41.428,21.305,41.504,19.041,37.461C29.442,39.368,52.871,42.527,52.871,25.286L52.871,18.39C52.656,9.276,45.823,2.299,36.78,2.299ZM6.896,29.884L6.896,18.365C7.162,11.755,11.812,6.896,18.39,6.896L36.78,6.896C43.371,6.896,47.993,11.783,48.274,18.39L48.274,25.286C48.274,39.079,23.778,34.034,16.649,32.251C15.221,31.894,13.793,33.009,13.793,34.481C13.793,36.974,14.425,39.104,15.768,40.815C19.62,45.725,27.346,45.8,33.374,45.858C34.155,45.866,34.908,45.873,35.62,45.891C36.267,45.907,36.78,46.433,36.78,47.079C36.78,47.739,36.245,48.274,35.585,48.274L22.988,48.274C12.996,48.274,6.896,39.116,6.896,29.884ZM6.896,29.884"/>
</g>
  <g id="Light-S" transform="matrix(1.0,0.0,0.0,1.0,1126.8349252929688,633.1849448242187)">  <path stroke-opacity="1" stroke-dasharray="none" stroke-miterlimit="4" stroke-linejoin="miter" stroke="none" stroke-width="1px" fill-opacity="1" stroke-linecap="butt" fill="#000000" fill-rule="nonzero" d="M18.39,16.091L18.39,27.585C18.39,28.855,17.361,29.884,16.091,29.884C14.822,29.884,13.793,28.855,13.793,27.585L13.793,16.091C13.803,11.773,17.84,9.195,21.838,9.195C24.437,9.195,26.306,9.979,27.585,11.115C28.864,9.979,30.733,9.195,33.332,9.195C37.329,9.195,41.364,11.771,41.378,16.088L41.378,27.585C41.378,28.855,40.348,29.884,39.079,29.884C37.809,29.884,36.78,28.855,36.78,27.585L36.78,16.088C36.644,14.348,34.848,13.793,33.332,13.793C31.841,13.793,30.038,14.359,29.884,16.088L29.884,22.988C29.884,24.257,28.855,25.286,27.585,25.286C26.315,25.286,25.286,24.257,25.286,22.988L25.286,16.091C25.149,14.343,23.34,13.793,21.838,13.793C20.348,13.793,18.544,14.362,18.39,16.091ZM18.39,16.091"/>
  <path stroke-linejoin="miter" fill-rule="evenodd" clip-rule="evenodd" stroke-width="1px" stroke-opacity="1" fill="#000000" stroke-linecap="butt" stroke-dasharray="none" stroke="none" stroke-miterlimit="4" fill-opacity="1" d="M36.78,2.299L18.39,2.299C9.363,2.299,2.496,9.249,2.299,18.365L2.299,29.884C2.299,41.641,10.478,52.871,22.988,52.871L35.585,52.871C38.784,52.871,41.378,50.278,41.378,47.079C41.378,43.937,38.77,41.455,35.631,41.378C34.983,41.362,34.214,41.37,33.366,41.379C28.588,41.428,21.305,41.504,19.041,37.461C29.442,39.368,52.871,42.527,52.871,25.286L52.871,18.39C52.656,9.276,45.823,2.299,36.78,2.299ZM6.896,29.884L6.896,18.365C7.162,11.755,11.812,6.896,18.39,6.896L36.78,6.896C43.371,6.896,47.993,11.783,48.274,18.39L48.274,25.286C48.274,39.079,23.778,34.034,16.649,32.251C15.221,31.894,13.793,33.009,13.793,34.481C13.793,36.974,14.425,39.104,15.768,40.815C19.62,45.725,27.346,45.8,33.374,45.858C34.155,45.866,34.908,45.873,35.62,45.891C36.267,45.907,36.78,46.433,36.78,47.079C36.78,47.739,36.245,48.274,35.585,48.274L22.988,48.274C12.996,48.274,6.896,39.116,6.896,29.884ZM6.896,29.884"/>
</g>
  <g id="Thin-S" transform="matrix(1.0,0.0,0.0,1.0,830.1249252929688,633.1849448242187)">  <path fill-opacity="1" fill-rule="nonzero" stroke-width="1px" stroke="none" stroke-linejoin="miter" fill="#000000" stroke-opacity="1" stroke-miterlimit="4" stroke-linecap="butt" stroke-dasharray="none" d="M18.39,16.091L18.39,27.585C18.39,28.855,17.361,29.884,16.091,29.884C14.822,29.884,13.793,28.855,13.793,27.585L13.793,16.091C13.803,11.773,17.84,9.195,21.838,9.195C24.437,9.195,26.306,9.979,27.585,11.115C28.864,9.979,30.733,9.195,33.332,9.195C37.329,9.195,41.364,11.771,41.378,16.088L41.378,27.585C41.378,28.855,40.348,29.884,39.079,29.884C37.809,29.884,36.78,28.855,36.78,27.585L36.78,16.088C36.644,14.348,34.848,13.793,33.332,13.793C31.841,13.793,30.038,14.359,29.884,16.088L29.884,22.988C29.884,24.257,28.855,25.286,27.585,25.286C26.315,25.286,25.286,24.257,25.286,22.988L25.286,16.091C25.149,14.343,23.34,13.793,21.838,13.793C20.348,13.793,18.544,14.362,18.39,16.091ZM18.39,16.091"/>
  <path stroke-opacity="1" stroke-miterlimit="4" stroke="none" stroke-dasharray="none" fill-rule="evenodd" stroke-linecap="butt" fill-opacity="1" fill="#000000" stroke-width="1px" clip-rule="evenodd" stroke-linejoin="miter" d="M36.78,2.299L18.39,2.299C9.363,2.299,2.496,9.249,2.299,18.365L2.299,29.884C2.299,41.641,10.478,52.871,22.988,52.871L35.585,52.871C38.784,52.871,41.378,50.278,41.378,47.079C41.378,43.937,38.77,41.455,35.631,41.378C34.983,41.362,34.214,41.37,33.366,41.379C28.588,41.428,21.305,41.504,19.041,37.461C29.442,39.368,52.871,42.527,52.871,25.286L52.871,18.39C52.656,9.276,45.823,2.299,36.78,2.299ZM6.896,29.884L6.896,18.365C7.162,11.755,11.812,6.896,18.39,6.896L36.78,6.896C43.371,6.896,47.993,11.783,48.274,18.39L48.274,25.286C48.274,39.079,23.778,34.034,16.649,32.251C15.221,31.894,13.793,33.009,13.793,34.481C13.793,36.974,14.425,39.104,15.768,40.815C19.62,45.725,27.346,45.8,33.374,45.858C34.155,45.866,34.908,45.873,35.62,45.891C36.267,45.907,36.78,46.433,36.78,47.079C36.78,47.739,36.245,48.274,35.585,48.274L22.988,48.274C12.996,48.274,6.896,39.116,6.896,29.884ZM6.896,29.884"/>
</g>
  <g id="Ultralight-S" transform="matrix(1.0,0.0,0.0,1.0,533.4149252929687,633.1849448242187)">  <path stroke-width="1px" fill="#000000" stroke-dasharray="none" fill-rule="nonzero" stroke-opacity="1" fill-opacity="1" stroke-linecap="butt" stroke="none" stroke-miterlimit="4" stroke-linejoin="miter" d="M18.39,16.091L18.39,27.585C18.39,28.855,17.361,29.884,16.091,29.884C14.822,29.884,13.793,28.855,13.793,27.585L13.793,16.091C13.803,11.773,17.84,9.195,21.838,9.195C24.437,9.195,26.306,9.979,27.585,11.115C28.864,9.979,30.733,9.195,33.332,9.195C37.329,9.195,41.364,11.771,41.378,16.088L41.378,27.585C41.378,28.855,40.348,29.884,39.079,29.884C37.809,29.884,36.78,28.855,36.78,27.585L36.78,16.088C36.644,14.348,34.848,13.793,33.332,13.793C31.841,13.793,30.038,14.359,29.884,16.088L29.884,22.988C29.884,24.257,28.855,25.286,27.585,25.286C26.315,25.286,25.286,24.257,25.286,22.988L25.286,16.091C25.149,14.343,23.34,13.793,21.838,13.793C20.348,13.793,18.544,14.362,18.39,16.091ZM18.39,16.091"/>
  <path fill-rule="evenodd" stroke-linejoin="miter" stroke-dasharray="none" stroke="none" clip-rule="evenodd" fill="#000000" stroke-opacity="1" fill-opacity="1" stroke-miterlimit="4" stroke-linecap="butt" stroke-width="1px" d="M36.78,2.299L18.39,2.299C9.363,2.299,2.496,9.249,2.299,18.365L2.299,29.884C2.299,41.641,10.478,52.871,22.988,52.871L35.585,52.871C38.784,52.871,41.378,50.278,41.378,47.079C41.378,43.937,38.77,41.455,35.631,41.378C34.983,41.362,34.214,41.37,33.366,41.379C28.588,41.428,21.305,41.504,19.041,37.461C29.442,39.368,52.871,42.527,52.871,25.286L52.871,18.39C52.656,9.276,45.823,2.299,36.78,2.299ZM6.896,29.884L6.896,18.365C7.162,11.755,11.812,6.896,18.39,6.896L36.78,6.896C43.371,6.896,47.993,11.783,48.274,18.39L48.274,25.286C48.274,39.079,23.778,34.034,16.649,32.251C15.221,31.894,13.793,33.009,13.793,34.481C13.793,36.974,14.425,39.104,15.768,40.815C19.62,45.725,27.346,45.8,33.374,45.858C34.155,45.866,34.908,45.873,35.62,45.891C36.267,45.907,36.78,46.433,36.78,47.079C36.78,47.739,36.245,48.274,35.585,48.274L22.988,48.274C12.996,48.274,6.896,39.116,6.896,29.884ZM6.896,29.884"/>
</g>
 </g>
</svg>
